<?xml version="1.0" encoding="utf-8" ?>
<svg xmlns="http://www.w3.org/2000/svg" xmlns:xlink="http://www.w3.org/1999/xlink" width="512" height="512">
	<path fill="#F7E5DA" transform="scale(0.666667 0.666667)" d="M-0 -0L768 0L768 768L-0 768L0 -0Z"/>
	<path fill="#8E8182" transform="scale(0.666667 0.666667)" d="M108.328 342.457C108.011 342.281 107.705 342.137 107.449 341.866C106.683 341.057 106.46 339.581 106.646 338.517C106.844 337.376 106.92 337.325 107.812 336.693C108.826 336.671 108.927 336.661 109.773 337.207C110.354 338.95 110.015 340.606 109.81 342.391L108.328 342.457Z"/>
	<path fill="#8E8182" transform="scale(0.666667 0.666667)" d="M108.914 401.438L109.065 401.443C109.804 401.619 110.002 401.648 110.504 402.248C111.597 403.555 111.446 404.914 111.304 406.5L110.438 407.2L108.75 407.178C108.107 406.63 107.85 406.508 107.72 405.623C107.488 404.053 108.039 402.691 108.914 401.438Z"/>
	<path fill="#8E8182" transform="scale(0.666667 0.666667)" d="M109.935 266.438L110.131 266.455C111.574 266.854 111.636 267.161 112.427 268.312C112.499 269.229 112.665 270.156 112.267 271.018C111.994 271.61 111.37 271.698 110.812 271.949C110.215 271.915 109.639 271.792 109.051 271.688C108.425 270.901 107.98 270.323 108.12 269.25C108.318 267.739 108.713 267.224 109.935 266.438Z"/>
	<path fill="#8E8182" transform="scale(0.666667 0.666667)" d="M106.906 367.312C107.6 367.257 108.033 367.416 108.695 367.606C109.487 368.492 109.844 368.887 109.745 370.125C109.629 371.585 109.465 372.077 108.324 372.938C107.521 373.197 107.114 373.14 106.297 372.952C105.799 372.293 105.545 371.789 105.544 370.939C105.541 369.508 105.948 368.353 106.906 367.312Z"/>
	<path fill="#CC512F" transform="scale(0.666667 0.666667)" d="M78.2883 549.938L78.7894 549.822C79.8024 549.671 80.3521 549.72 81.1875 550.267C81.5695 551.602 81.8251 554.499 81.1858 555.747C80.9173 556.272 79.864 556.344 79.3125 556.485C78.8645 556.431 78.2146 556.35 77.8125 556.16C76.7728 555.669 76.6237 554.839 76.252 553.875C76.4736 551.972 76.774 551.158 78.2883 549.938Z"/>
	<path fill="#EFB59A" transform="scale(0.666667 0.666667)" d="M379.038 156.809C384.125 156.291 389.425 156.755 394.543 156.803C404.64 156.897 414.738 156.927 424.834 157.112C423.466 157.976 422.018 157.687 420.432 157.692C417.116 157.703 413.345 157.376 410.092 157.919C406.8 158.353 402.856 157.946 399.49 157.93C393.589 157.903 386.49 158.601 380.767 157.445L379.103 157.13L379.038 156.809Z"/>
	<path fill="#0891DC" transform="scale(0.666667 0.666667)" d="M110.177 531.931C109.669 528.187 109.947 524.056 109.941 520.268C109.931 513.085 109.922 505.9 109.964 498.716C111.993 498.486 114.25 498.276 116.272 498.65C117.751 498.923 118.418 499.811 119.24 500.98L119.137 501.418L111.126 501.476C111.47 508.075 111.888 515.709 110.572 522.187C109.936 525.317 110.626 528.744 110.177 531.931Z"/>
	<path fill="#EABFB0" transform="scale(0.666667 0.666667)" d="M260.105 188.939L323.424 188.812L323.25 189.254C320.956 189.856 318.526 189.69 316.169 189.71C312.642 189.74 309.115 189.762 305.587 189.782C298.757 189.819 291.467 190.378 284.683 189.734C283.236 188.681 279.623 189.1 277.819 189.097C271.928 189.088 265.987 189.271 260.105 188.939Z"/>
	<path fill="#F3EBE7" transform="scale(0.666667 0.666667)" d="M158.591 251.544C151.779 251.606 99.4789 252.15 97.875 251.385C97.6475 251.276 97.5025 251.045 97.3162 250.875L97.6875 250.316L141.175 250.618C144.117 251.054 147.166 250.914 150.135 250.939C155.334 250.982 160.534 251.016 165.733 251.047L158.591 251.544Z"/>
	<path fill="#EABFB0" transform="scale(0.666667 0.666667)" d="M398.189 207.795C417.386 207.81 436.586 207.763 455.783 207.866C461.308 207.895 466.833 207.96 472.357 208.033C475.513 208.075 478.844 207.904 481.963 208.39L482.062 208.746L431.372 208.779C428.561 208.454 425.497 208.652 422.658 208.622C417.361 208.567 412.065 208.512 406.769 208.442C404.536 208.413 400.034 208.908 398.189 207.795Z"/>
	<path fill="#D9CFCD" transform="scale(0.666667 0.666667)" d="M141.175 250.618C164.209 250.598 187.244 250.571 210.278 250.551C217.171 250.546 224.065 250.54 230.958 250.538C234.287 250.536 237.959 250.229 241.244 250.688C240.291 251.431 239.385 251.368 238.203 251.42C226.076 251.959 213.708 251.455 201.557 251.461C187.26 251.468 172.88 251.908 158.591 251.544L165.733 251.047C160.534 251.016 155.334 250.982 150.135 250.939C147.166 250.914 144.117 251.054 141.175 250.618Z"/>
	<path fill="#F3EBE7" transform="scale(0.666667 0.666667)" d="M431.372 208.779C424.983 209.205 418.39 208.825 411.971 208.802C398.446 208.754 384.925 208.623 371.401 208.521C362.079 208.451 352.756 208.474 343.434 208.459C339.466 208.452 333.482 209.188 329.812 208.005C330.061 207.858 330.279 207.636 330.559 207.562C332.124 207.152 334.609 207.427 336.277 207.425C340.362 207.422 344.448 207.425 348.533 207.428C358.918 207.436 369.303 207.443 379.688 207.479C385.67 207.5 391.85 207.28 397.809 207.762L398.189 207.795C400.034 208.908 404.536 208.413 406.769 208.442C412.065 208.512 417.361 208.567 422.658 208.622C425.497 208.652 428.561 208.454 431.372 208.779Z"/>
	<path fill="#EABFB0" transform="scale(0.666667 0.666667)" d="M424.834 157.112L425.229 157.082L527.625 156.79L527.958 157.312C526.148 158.438 504.933 157.835 501.027 157.843C479.61 157.89 458.194 158.071 436.778 158.108C430.981 158.118 425.183 158.121 419.386 158.115C416.365 158.111 413.074 158.368 410.092 157.919C413.345 157.376 417.116 157.703 420.432 157.692C422.018 157.687 423.466 157.976 424.834 157.112Z"/>
	<path fill="#EABFB0" transform="scale(0.666667 0.666667)" d="M125.362 231.94L258.522 232.312C255.102 232.875 251.523 232.72 248.062 232.748C215.831 232.853 183.598 232.785 151.366 232.805C147.029 232.808 116.736 233.526 114.721 232.5L114.938 232.134L125.362 231.94Z"/>
	<path fill="#EABFB0" transform="scale(0.666667 0.666667)" d="M287.809 238.688C290.942 238.372 294.199 238.559 297.353 238.556C302.859 238.55 308.366 238.548 313.872 238.545C331.591 238.536 349.309 238.516 367.027 238.505C383.553 238.494 400.078 238.476 416.604 238.488C421.231 238.491 425.859 238.499 430.486 238.519C433.524 238.532 436.699 238.329 439.688 238.941L439.688 239.194C437.539 240.098 433.491 239.585 431.151 239.579C424.59 239.562 418.029 239.532 411.468 239.518C389.006 239.472 366.544 239.486 344.082 239.49C331.843 239.492 319.605 239.495 307.366 239.494C300.845 239.494 294.004 239.898 287.528 239.32L287.809 238.688Z"/>
	<path fill="#EFB59A" transform="scale(0.666667 0.666667)" d="M284.683 189.734C265.246 189.966 130.294 191.352 128.199 189.938L128.438 189.282L260.105 188.939C265.987 189.271 271.928 189.088 277.819 189.097C279.623 189.1 283.236 188.681 284.683 189.734Z"/>
	<path fill="#F3EBE7" transform="scale(0.666667 0.666667)" d="M109.81 342.391C123.34 341.81 137.119 342.327 150.674 342.344C176.888 342.376 203.101 342.412 229.314 342.451C245.732 342.475 262.221 342.207 278.625 342.705C284.435 342.882 290.575 342.205 296.289 343.346C286.508 343.753 276.674 343.449 266.884 343.418C251.586 343.37 236.288 343.409 220.99 343.414C194.855 343.424 168.719 343.455 142.583 343.342C135.383 343.311 128.183 343.275 120.983 343.225C117.022 343.197 112.064 343.744 108.328 342.457L109.81 342.391Z"/>
	<path fill="#EABFB0" transform="scale(0.666667 0.666667)" d="M465.31 188.062C474.199 187.988 483.091 187.993 491.98 188.027C493.662 188.034 498.891 187.667 499.975 188.625L499.688 189.014L385.688 189.976C381.396 189.999 352.723 190.718 351.188 189.612C352.169 188.858 353.45 188.755 354.654 188.678C359.289 188.381 364.09 188.633 368.738 188.642C376.898 188.659 385.058 188.628 393.218 188.608C417.246 188.55 441.281 188.248 465.31 188.062Z"/>
	<path fill="#EABFB0" transform="scale(0.666667 0.666667)" d="M136.404 209.428L289.123 209.397L288.938 209.809L254.812 209.999C218.166 210.049 181.493 210.245 144.851 210.716C134.196 210.853 123.535 211.045 112.881 211.243C110.608 211.286 108.334 211.318 106.061 211.349C105.415 211.357 104.033 211.555 103.5 211.382C103.289 211.313 103.125 211.145 102.938 211.027L103.613 210.188C107.323 209.295 111.609 209.716 115.429 209.697C122.422 209.663 129.416 209.706 136.404 209.428Z"/>
	<path fill="#EABFB0" transform="scale(0.666667 0.666667)" d="M199.587 156.932L369.75 157.247L369.938 157.623C365.952 158.712 360.385 157.979 356.19 157.963C346.898 157.927 337.605 157.889 328.312 157.848C272.408 157.822 216.507 157.809 160.603 158.097C159.541 158.103 158.203 158.42 157.424 157.688C158.852 157.037 160.789 157.178 162.333 157.164C165.296 157.136 168.26 157.122 171.224 157.107C180.678 157.06 190.133 156.993 199.587 156.932Z"/>
	<path fill="#5BB6EB" transform="scale(0.666667 0.666667)" d="M588.69 143.368C589.32 142.523 591.167 141.534 592.067 140.894C595.494 138.457 598.912 135.79 602.586 133.74C604.491 134.835 608.355 134.334 610.55 134.364C615.119 134.427 619.694 134.506 624.259 134.734C629.835 135.013 635.397 135.594 640.973 135.924C640.951 139.761 641.439 144.46 640.54 148.179C635.08 148.061 591.931 147.512 590.279 148.506C589.509 146.934 589.323 145.045 588.69 143.368Z"/>
	<path fill="#0891DC" transform="scale(0.666667 0.666667)" d="M298.071 211.282C299.231 211.13 306.453 205.308 307.918 204.205C318.283 196.406 328.061 187.849 338.567 180.218C346.491 174.463 354.981 169.518 363.336 164.427C367.485 161.899 374.144 157.172 379.038 156.809L379.103 157.13C373.43 163.128 368.128 169.443 362.798 175.744C359.855 179.223 356.968 183.104 353.582 186.161C350.007 189.39 345.912 191.733 342.111 194.666C321.036 210.932 298.703 224.992 276.534 239.666C268.153 245.214 260.255 251.48 252.082 257.325C240.962 265.277 229.533 272.964 218.263 280.711C214.116 283.562 209.811 286.292 205.496 288.879C203.023 290.362 200.239 291.639 197.959 293.385L183.822 300.512C183.068 300.67 182.488 300.865 181.794 301.189C179.243 302.381 171.045 304.854 169.978 307.283L169.838 307.696C169.018 307.825 168.196 307.924 167.396 308.148L121.875 326.14L121.613 325.688C122.444 324.547 123.235 323.862 124.461 323.152C130.189 319.835 136.34 317.126 142.125 313.843C151.873 308.311 161.313 302.164 171.001 296.496C189.499 285.675 208.389 275.64 226.458 264.07C239.088 255.983 251.101 246.756 263.292 238.023C275.028 229.616 287.469 221.088 298.071 211.282Z"/>
	<path fill="#F3EBE7" transform="scale(0.666667 0.666667)" d="M82.315 285.314L81.8029 284.967L82.3125 284.441L118.125 284.625C119.455 285.512 124.545 285.003 126.331 285.004C133.188 285.006 140.044 285.011 146.901 285.004C149.76 285.002 152.795 284.712 155.625 284.908C163.866 285.48 172.465 284.988 180.749 284.985C182.852 284.984 186.291 284.546 188.244 285.136L188.625 285.283C189.501 285.505 190.235 284.691 190.969 284.252L192.844 283.127L193.312 283.125C193.818 282.497 193.526 282.729 194.292 282.346L195.337 281.798L196.219 281.252C196.97 280.897 197.67 280.593 198.375 280.125C199.382 279.457 200.438 278.964 201.469 278.344C202.185 277.913 202.903 277.541 203.625 277.125L205.031 276.281L207.375 274.875C207.985 274.441 208.632 274.153 209.25 273.75C209.863 273.351 210.308 272.938 210.973 272.58L211.594 272.252L212.439 271.781L213.75 271.125C215.006 270.293 216.524 269.432 217.646 268.436L217.969 268.127C218.758 268.014 219.102 267.845 219.75 267.375C220.738 266.658 221.732 266.076 222.757 265.425L223.219 265.127L223.688 265.125L224.252 264.377C224.823 264.159 225.244 263.992 225.75 263.625C226.485 263.092 227.281 262.684 228 262.125C228.745 261.546 229.51 261.162 230.25 260.625C230.967 260.104 231.836 259.713 232.5 259.125L233.252 258.377C233.881 257.979 234.219 258.037 234.762 257.415L235.219 256.877L235.688 256.875L237.188 255.75C238.272 255.098 239.203 254.435 240.094 253.52L240.469 253.127L240.938 253.125L241.594 252.377L242.062 252.191C242.475 251.948 242.653 251.653 243.135 251.438C243.681 251.194 243.457 251.336 243.934 250.98L244.316 250.687C245.487 249.907 246.564 248.881 247.748 248.168L249.375 247.125L250.031 246.656C250.942 246.193 250.995 246.054 251.627 245.252L252.188 245.25L253.219 244.127C254.191 244.123 254.043 243.414 254.719 243.002C255.324 242.633 255.904 242.279 256.5 241.875C257.069 241.489 257.6 241.163 258.117 240.704L258.469 240.377L258.938 240.375L259.877 239.252L260.438 239.25C260.887 238.728 261.254 238.19 261.896 237.903C263.414 237.226 264.453 236.312 265.594 235.127L266.062 235.125L266.719 234.377L267.188 234.375L267.75 233.812C268.297 233.37 268.806 233.057 269.314 232.549L269.719 232.127L270.188 232.125L270.752 231.377C271.847 231.257 272.339 230.358 273.189 229.781C273.777 229.382 273.991 229.388 274.507 228.816L274.877 228.377L275.438 228.375C275.845 227.937 276.177 227.627 276.686 227.303C277.248 226.945 277.76 226.582 278.25 226.125L279.002 225.377C281.327 224.048 283.376 221.604 285.656 220.406C286.51 219.958 286.806 219.332 287.531 218.906C288.47 218.356 288.942 217.551 289.781 217.031C290.676 216.478 291.217 215.66 292.031 215.156C292.748 214.713 293.261 214.035 293.906 213.656C294.843 213.107 295.237 212.694 295.969 211.877C296.741 211.874 297.045 211.321 298.071 211.282C287.469 221.088 275.028 229.616 263.292 238.023C251.101 246.756 239.088 255.983 226.458 264.07C208.389 275.64 189.499 285.675 171.001 296.496C161.313 302.164 151.873 308.311 142.125 313.843C136.34 317.126 130.189 319.835 124.461 323.152C123.235 323.862 122.444 324.547 121.613 325.688L121.875 326.14L167.396 308.148C168.196 307.924 169.018 307.825 169.838 307.696L169.978 307.283C171.045 304.854 179.243 302.381 181.794 301.189C182.488 300.865 183.068 300.67 183.822 300.512L197.959 293.385L198.067 294.05C197.427 294.516 197.817 294.271 197.057 294.652C195.581 295.394 197.291 294.473 196.125 295.309L194.482 296.115C193.919 296.397 194.12 296.27 193.688 296.809L193.125 296.717C192.445 297.165 191.948 297.391 191.248 297.748L191.062 297.941C191.725 297.988 192.132 298.167 192.703 297.812C193.453 297.345 194.606 297.188 195.469 297.002L196.125 296.908L196.502 296.627L197.732 296.503C198.478 296.427 197.968 296.493 198.75 296.066C199.385 295.72 200.118 295.773 200.814 295.781L201.375 295.316C201.97 294.938 202.856 295.024 203.531 295.031L204 294.566C204.547 294.156 205.232 294.154 205.875 294.188L206.25 293.816L206.816 293.812C207.54 293.753 208.224 293.435 208.875 293.158C209.429 292.922 209.971 292.855 210.564 292.781L211.125 292.316L211.781 292.406L212.062 291.941L213.188 292.125L213.562 291.566L213.941 291.562C214.716 291.484 215.316 291.219 216 290.908L216.938 290.625C217.277 290.495 217.544 290.218 217.875 290.066L219.562 289.875L219.797 289.613C220.422 288.993 220.976 288.998 221.814 289.031L222.375 288.566C223.008 288.161 223.218 288.3 223.875 288.283C224.379 288.27 225.011 287.868 225.469 287.719L226.086 287.584C227.581 287.24 225.793 287.709 227.25 287.066C227.972 286.748 229.363 286.704 230.25 286.408L230.816 286.312L231.375 285.941L232.066 286.039C232.841 286.143 233.407 286.168 234.147 285.89C235.258 285.472 236.025 286 237 285.191C237.877 285.263 238.076 285.248 238.781 285.752C238.781 286.401 238.94 286.686 238.5 287.19C237.935 287.838 237.376 288.243 237.373 289.123C236.535 289.784 236.496 289.815 235.969 290.719L235.125 291.75C234.673 292.299 234.376 292.447 234.373 293.156L232.875 294.562L232.873 295.123C232.38 295.536 231.903 295.773 231.68 296.366C231.464 296.941 231.054 297.25 230.626 297.661C229.385 298.851 228.56 300.395 227.338 301.6C226.35 302.573 227.35 301.489 226.594 302.719C226.053 303.598 225.002 303.747 224.998 304.873C224.033 305.713 223.163 306.485 222.375 307.5C221.474 308.661 220.436 309.937 219.301 310.875C217.683 310.875 213.85 311.317 212.625 310.5C211.292 310.494 209.919 310.42 208.594 310.55C207.378 310.669 206.106 310.283 204.938 310.684C203.911 309.664 199.743 310.1 198.138 310.115C196.414 310.131 198.346 310.085 196.875 310.217L195.75 310.217L195.176 310.223C194.469 310.223 194.819 310.231 194.204 310.171C192.957 310.049 191.148 310.432 190.125 309.75C188.878 309.75 186.173 310.11 185.25 309.375C183.888 309.363 182.466 309.259 181.123 309.478C180.025 309.658 178.514 309.498 177.375 309.467C176.683 309.448 176.318 309.158 175.688 309C173.882 308.547 171.049 309.657 169.5 308.625C168.285 308.683 167.931 308.942 166.873 309.281L165.747 309.483C165.264 309.573 164.894 309.807 164.438 309.934L163.312 310.125C163.003 310.218 162.624 310.542 162.375 310.684C161.758 311.035 160.994 311.183 160.311 311.344L159.938 311.809L159.375 311.717C158.38 311.768 156.011 312.877 155.059 313.312L154.5 313.684C154.061 313.933 153.655 313.937 153.184 314.062L152.25 314.438L151.02 314.852C149.482 315.317 151.914 314.563 150 315.375L148.875 315.562C148.103 316.335 147.538 316.069 146.625 316.684C146.237 316.945 145.74 316.955 145.309 317.062C144.698 317.214 144.584 317.315 144.188 317.809C143.646 317.751 143.506 317.611 143.049 317.936C142.489 318.333 142.171 318.359 141.559 318.562L141 318.842C140.474 319.057 140.027 319.147 139.498 319.406C138.924 319.688 138.439 319.849 137.811 319.969L136.875 320.809L136.219 320.719L135.645 321.035C134.238 321.793 135.71 321.033 134.434 321.562L133.875 321.842C133.352 322.056 132.9 322.154 132.373 322.406C131.34 322.9 130.226 323.483 129.105 323.707C128.468 323.835 128.083 324.135 127.5 324.375L126.75 324.562C125.995 325.318 125.906 325.481 124.875 325.688L125.438 325.691C142.261 326.475 159.348 325.892 176.205 325.892C183.769 325.893 191.332 325.892 198.896 325.89C203.058 325.889 207.36 326.106 211.5 325.783C215.284 325.488 219.354 326.388 223.127 325.772C224.229 325.592 225.328 325.903 226.443 325.871C231.967 325.711 237.403 325.824 242.902 325.887C255.955 326.036 269.028 325.894 282.084 325.892C289.453 325.892 297.176 326.355 304.5 325.783C310.435 325.32 317.006 326.742 322.875 325.783L323.811 326.156C324.415 325.836 324.939 325.509 325.5 325.125L326.039 324.773L331.781 320.531L343.031 312.281L346.254 309.703C346.945 309.138 346.597 309.407 347.338 308.935C347.987 308.522 347.723 308.758 348.188 308.066L348.75 308.062L349.632 307.049L349.064 306.749L349.008 306.316L349.98 306.433L350.441 306.562L374.344 289.219L376.5 287.625L377.531 286.781C378.259 286.352 378.528 286.193 379.125 285.562L378.375 285.467C376.354 285.178 374.089 285.362 372.031 285.363C368.785 285.366 365.488 285.253 362.25 285.467C360.949 285.553 359.426 285.595 358.125 285.467C351.001 284.768 343.248 285.366 336.061 285.367C320.915 285.368 305.77 285.371 290.625 285.375C289.312 284.5 284.795 284.998 283.088 284.997C275.796 284.994 268.505 284.991 261.213 284.994C258.204 284.994 254.645 285.409 251.719 284.906C251.627 283.899 251.585 283.929 252.188 283.125L287.25 283.125C288.981 284.279 293.727 283.231 295.969 283.45C299.1 283.757 302.467 283.506 305.625 283.5C305.812 283.625 305.976 283.797 306.188 283.875C306.885 284.133 308.854 283.876 309.73 283.876C313.881 283.877 318.031 283.878 322.182 283.878C334.447 283.88 346.713 283.883 358.979 283.882C365.542 283.882 372.237 284.151 378.786 283.812C379.755 283.761 379.941 283.819 380.812 284.25C381.382 284.055 381.735 283.9 382.213 283.518L390.592 277.471L393.094 275.719L400.758 270.035C401.101 269.755 401.502 269.359 401.906 269.156C402.843 268.688 402.322 269.133 403.049 268.406C403.331 268.124 403.525 267.853 403.875 267.658C404.882 267.098 403.784 267.937 404.836 267.076L412.764 261.029C413.204 260.669 413.309 260.541 413.812 260.25C414.653 259.764 415.016 259.42 415.64 258.668L415.877 258.377L416.438 258.375L419.344 256.219L423.469 253.219L425.092 251.971L425.625 251.625L426.188 251.25C426.745 250.892 427.248 250.576 427.764 250.154C428.378 249.652 428.124 249.818 428.812 249.375C429.37 249.017 429.873 248.701 430.389 248.279C431.003 247.777 430.749 247.943 431.438 247.5L435.99 244.178L439.125 241.875L439.781 241.406C440.751 240.913 440.181 241.411 440.98 240.595L441.44 240.1L441.575 241.005C414.87 260.911 387.714 280.226 360.842 299.903C353.603 305.204 346.546 310.739 339.312 316.041C325.136 326.431 310.765 336.545 296.568 346.903C266.104 369.132 235.74 391.498 205.188 413.609C178.666 432.804 151.001 450.467 124.875 470.214C116.102 476.844 106.729 483.538 98.7143 491.062L98.7815 491.838C101.666 492.804 109.409 488.561 112.121 487.192C120.231 483.099 127.842 477.593 135.246 472.362C144.442 465.865 153.584 459.288 162.852 452.893C173.834 445.315 184.988 437.958 195.902 430.278C228.809 407.121 261.193 383.214 293.562 359.316C308.188 348.517 322.925 337.884 337.523 327.04C341.745 323.903 345.971 320.778 350.169 317.609C351.853 316.337 353.739 315.201 355.29 313.777C356.892 317.33 356.232 322.691 356.24 326.589C356.261 335.735 355.637 345.381 356.422 354.472L355.939 354.601C353.96 355.09 351.308 354.742 349.239 354.741C343.551 354.737 337.863 354.721 332.175 354.702L332.364 378.518C329.636 379.282 326.821 380.131 324.403 381.646L320.196 378.332C317.615 377.984 314.908 378.127 312.305 378.106C307.391 378.066 302.476 378.052 297.562 377.977C294.351 377.929 291.141 377.821 287.93 377.745C286.779 377.718 285.337 377.515 284.242 377.925C282.873 378.439 282.23 380.108 281.636 381.34L279.534 381.562C278.724 382.757 278.986 384.336 278.963 385.769C278.916 388.675 278.878 391.581 278.846 394.487C278.679 409.506 278.709 424.527 278.69 439.547C278.686 442.534 278.673 445.521 278.655 448.507C278.651 449.297 278.856 450.974 278.635 451.688C278.584 451.852 277.66 452.558 277.473 452.725C276.263 452.102 275.651 451.626 275.203 450.314C274.863 449.317 274.549 448.269 273.767 447.517C272.44 446.239 270.046 446.633 268.302 446.626C264.18 446.609 260.058 446.596 255.936 446.591L253.308 423.281C248.582 423.284 220.181 422.165 218.325 423.355L218.676 426.137L212.47 426.419C212.095 432.426 212.958 438.872 212.178 444.777L212.381 453.468L163.138 453.911L162.968 459.227C162.327 457.736 162.688 455.94 162.191 454.312C161.499 454.655 160.736 455.15 160.125 455.625C158.06 457.23 155.95 458.681 153.75 460.125L152.625 460.875C151.799 461.539 150.911 462.058 150.094 462.727C149.751 463.008 149.373 463.392 148.969 463.594C148.032 464.062 148.553 463.617 147.826 464.344C147.544 464.626 147.35 464.897 147 465.092C146.245 465.512 145.667 466.023 144.943 466.506L140.156 469.781L138.527 471.029L138 471.375L137.531 471.748C135.716 472.958 134 474.301 132.193 475.506L124.875 480.375C124.453 480.694 124.252 480.925 123.762 481.171C122.468 481.821 121.378 482.784 120.094 483.469L118.271 484.518L116.344 485.719C115.203 486.327 114.078 487.252 112.875 487.688C111.771 488.088 110.59 489.015 109.523 489.281C108.94 489.427 108.55 489.725 108 489.938C107.172 490.258 106.554 490.412 105.75 490.875C104.763 491.443 102.693 492.241 101.59 492.398L100.969 492.469L100.312 492.75C99.4036 493.035 98.6959 492.801 97.9688 492.281L97.875 490.688L99.2812 489.281C100.385 488.62 99.5429 489.418 100.375 488.585C101.032 487.929 101.58 487.245 102.372 486.742C103.199 486.215 102.503 486.757 103.371 486.047L105.75 484.125C106.371 483.564 106.946 483.118 107.625 482.625L108.281 482.156C109.17 481.709 108.724 482.112 109.375 481.46C110.032 480.804 110.58 480.12 111.372 479.617C112.269 479.045 113.017 478.174 113.906 477.656C114.681 477.206 115.101 476.555 115.781 476.156C116.548 475.706 116.981 475.053 117.656 474.656C118.855 473.953 117.814 474.887 118.852 473.836C119.238 473.444 119.48 473.209 119.959 472.904C121.877 471.684 123.599 469.78 125.531 468.656C126.418 468.14 126.528 468.043 127.219 467.252L127.688 467.25L128.438 466.5L129 466.125L132.586 463.477L133.125 463.125L133.781 462.656C134.581 462.249 134.267 462.586 134.76 462.053C135.228 461.547 135.547 461.022 136.199 460.732C137.012 460.37 137.637 459.874 138.375 459.375L143.057 455.994L146.438 453.75C146.982 453.4 147.486 453.09 147.99 452.678L157.5 445.875L158.531 445.031L159.188 444.75L159.188 444.375L132.75 444.375C131.563 445.166 128.622 444.75 127.125 444.75C126.212 444.141 121.04 444.09 119.812 444.375C118.946 444.576 118.039 444.918 117.094 444.656L116.438 444.375C115.765 444.663 115.459 444.706 114.75 444.75C112.518 443.621 111.853 445.256 109.688 444.75C108.841 444.552 109.038 444.468 108.188 444.559L107.625 443.625C107.224 442.997 107.247 443.249 107.186 442.629L107.066 441L107.438 440.441C107.446 439.56 108.298 438.739 108.844 438.094C110.278 438.031 110.817 437.908 112.125 438.562L112.5 439.125L112.873 439.502C112.875 440.058 112.936 440.461 113.062 441C113.205 441.609 113.281 441.887 113.174 442.527L112.969 443.531C113.452 443.29 113.267 443.418 113.695 443.052L114 442.783C116.547 443.117 119.383 442.885 121.959 442.886C126.764 442.889 131.568 442.891 136.373 442.892C140.909 442.893 145.446 442.894 149.982 442.889C152.197 442.887 154.666 443.1 156.855 442.828L157.875 442.691C159.022 442.639 159.526 442.839 160.312 443.625L161.25 443.25L161.812 442.875L164.432 440.994L171.469 436.219C172.371 435.553 173.39 434.999 174.24 434.303L176.367 432.704L176.719 432.377L177.188 432.375L183.375 427.875C184.425 427.086 185.57 426.469 186.562 425.625L186.562 425.25L174.375 425.342C166.12 424.784 157.531 425.238 149.222 425.239C141.188 425.239 132.861 424.772 124.875 425.342L123.562 425.434C122.837 425.389 122.516 425.234 121.746 425.336C118.618 425.752 115.105 425.237 111.922 425.233C107.616 425.228 102.877 425.674 98.625 425.342C94.7608 425.04 90.7495 425.266 86.8623 425.265C84.8755 425.264 82.6197 425.589 80.8162 424.688C80.8937 424.158 80.9255 423.812 81.2459 423.363C81.5155 422.986 82.0464 422.906 82.5 422.908C84.8121 422.918 88.8176 423.65 90.9375 423C91.743 422.753 92.1416 422.663 93 422.625C94.9055 423.895 111.644 422.607 115.5 422.908C117.997 423.103 120.541 422.726 123 422.908C126.353 423.157 129.818 422.65 133.125 422.908C139.44 423.401 145.982 422.419 152.25 422.908C157.965 423.354 163.997 422.991 169.76 422.976C171.052 422.972 173.363 422.648 174.562 423C176.432 423.549 178.417 423.416 180.375 423.283L181.688 423.191C183.895 423.31 186.026 423.388 188.25 423.375L188.812 423.75C190.264 423.208 191.339 422.544 192.44 421.448L192.752 421.127L193.312 421.125L200.057 416.244L209.438 409.5C209.985 409.148 210.489 408.837 210.996 408.422L213.938 406.125L219.094 402.469L222.803 399.751C225.114 397.702 227.949 396.184 230.344 394.219L234.469 391.219L236.098 389.971C236.629 389.616 237.027 389.52 237.188 388.875L233.812 388.875L233.156 389.156C231.75 388.313 226.42 388.875 224.607 388.875C214.988 388.875 205.369 388.875 195.75 388.875C195.562 389 195.4 389.175 195.188 389.25C194.006 389.665 190.596 389.246 189.214 389.244C181.867 389.238 174.52 389.232 167.173 389.239C164.909 389.241 161.898 389.704 159.752 389.353C156.836 388.877 153.286 389.237 150.299 389.237C143.574 389.236 136.85 389.242 130.125 389.25C129.043 389.971 126.329 389.622 124.966 389.621C120.403 389.619 115.739 389.409 111.188 389.625C110.219 389.671 109.349 389.685 108.375 389.625C106.912 390.601 101.745 390.011 99.7519 389.906C102.771 388.597 107.79 389.508 111.184 389.062C112.313 388.914 113.193 389.346 114.184 388.688L113.812 388.316C107.685 388.28 101.56 388.636 95.4711 388.7C92.6048 388.731 89.7372 388.717 86.8707 388.728C85.818 388.732 84.3702 388.519 83.4208 388.909C82.8518 389.143 83.1926 389.081 82.3615 389.084L81.75 389.066L81.1875 389.434L81 388.688C81.5366 388.431 81.7418 388.386 82.3594 388.437L82.875 388.5C83.9386 387.791 95.9786 387.885 98.25 388.033L99.5625 388.125C102.366 387.552 105.859 387.465 108.75 387.658C115.894 388.135 123.32 387.756 130.5 387.75C131.623 387.001 137.266 387.171 138.844 387.325C141.936 387.628 145.052 387.178 148.125 387.191C152.291 387.21 156.813 387.648 160.969 387.241C168.707 386.483 177.015 387.404 184.815 387.398C186.792 387.396 189.297 387.677 191.217 387.293L192.562 387L193.219 387.281C194.38 386.584 198.093 387.004 199.564 387.004C203.854 387.007 208.148 387.047 212.438 387C214.446 386.978 216.63 386.702 218.625 386.908C223.337 387.396 228.249 386.863 232.969 387.325C234.81 387.506 236.908 387.053 238.684 387.562L239.25 387.75L239.812 387.375C240.37 387.017 240.873 386.701 241.389 386.279C241.915 385.849 242.455 385.523 243 385.125L249.094 380.719L254.889 376.529C255.503 376.027 255.249 376.193 255.938 375.75C256.495 375.392 256.998 375.076 257.514 374.654C258.128 374.152 257.874 374.318 258.562 373.875C259.49 373.279 260.285 372.681 261.111 371.948L261.469 371.627L261.938 371.625C262.313 371.067 262.169 371.131 262.624 370.853C263.209 370.494 263.71 370.234 264.252 369.791L282.094 356.719L286.781 353.156C287.739 352.677 288.136 352.168 288.844 351.377C289.558 351.374 289.697 351.074 290.25 350.625L306.217 338.971L306.75 338.625L307.312 338.25C307.87 337.892 308.373 337.576 308.889 337.154C309.503 336.652 309.249 336.818 309.938 336.375L318.094 330.469C319.022 329.707 320.099 329.099 320.906 328.219C319.422 328.093 317.958 328.313 316.5 328.217L315.938 328.125L314.812 328.309C313.811 328.304 312.254 328.386 311.287 328.228C307.493 327.609 302.769 328.114 298.875 328.125C297.305 327.078 290.476 327.747 288.352 327.747C279.211 327.744 270.071 327.742 260.93 327.745C257.695 327.747 254.262 328.079 251.062 327.934C237.083 327.299 222.894 327.739 208.875 327.75C207.577 328.615 203.119 328.125 201.375 328.125C199.924 327.158 171.978 327.718 167.812 327.75C165.818 327.765 163.574 328.165 161.625 327.847C158.424 327.324 154.985 328.114 151.781 327.8C143.691 327.007 135.245 328.252 127.125 327.842C124.949 327.732 122.961 328.332 121.219 326.906L121.125 325.125C121.335 324.728 121.53 324.425 121.865 324.12C122.451 323.588 122.677 323.441 123 322.688L122.25 322.592C121.078 323.182 119.27 322.9 117.959 322.891C115.347 322.874 112.449 323.168 109.875 322.967C108.936 322.894 109.678 322.827 108.887 322.913C108.181 322.989 107.61 323.094 106.9 322.978C103.968 322.499 100.497 322.864 97.5 322.875C96.3622 323.634 90.559 323.472 88.875 323.342C86.7936 323.182 82.1997 323.861 80.625 322.688L80.5331 321.75L81.0938 321.094L82.875 321C83.0625 320.875 83.2291 320.711 83.4375 320.625C83.9374 320.419 105.132 320.391 105.938 320.625C106.787 320.872 106.779 320.935 107.666 320.713L108 320.625C108.969 321.271 110.787 320.995 111.975 320.993C114.741 320.989 117.508 320.986 120.274 320.988C121.704 320.989 123.451 320.804 124.842 321.082C126.552 321.424 127.911 320.952 129.375 319.875L129.752 319.502C130.256 319.199 130.748 319.226 131.273 318.832C131.691 318.519 133.03 317.829 133.518 317.707L133.875 317.625L134.344 317.252L136.5 316.033L137.25 315.75L137.627 315.377L138.188 315.375C138.804 314.759 138.48 314.995 139.266 314.572L139.875 314.25L140.344 313.877L140.812 313.875L141.188 313.316C141.683 313.225 141.912 313.158 142.326 312.849C142.813 312.486 143.278 312.283 143.812 312L144.656 311.531C145.545 311.109 145.061 311.442 145.672 310.986L146.066 310.688C146.634 310.313 147.229 309.684 147.752 309.377C148.474 308.953 149.408 308.492 150.182 308.134C150.877 307.812 150.662 307.958 151.312 307.5L152.066 306.937C152.566 306.609 153.024 306.362 153.498 305.982L153.938 305.625L154.406 305.344L153.562 305.434C144.478 304.871 135.055 305.223 125.884 305.228C121.756 305.23 116.774 304.682 112.733 305.342L112.312 305.434L111.936 304.969L110.812 305.809C110.035 305.691 109.442 305.577 108.656 305.705L108.188 305.809C107.637 305.368 106.804 304.824 106.513 304.167C106.226 303.517 106.263 302.71 106.479 302.057C106.824 301.008 106.992 299.701 108 299.062C108.769 298.576 109.227 298.738 110.062 298.875C110.899 299.594 111.555 299.947 111.748 301.127L111.75 301.688C112.355 304.287 111.765 300.401 112.143 303.041L112.219 303.656C112.908 303.311 113.743 303.272 114.51 303.272L117.375 303.283C123.577 302.699 130.1 303.311 136.311 303.386C141.041 303.443 145.781 303.366 150.512 303.364C151.968 303.363 154.517 303.008 155.853 303.51C156.309 303.681 156.638 303.716 157.125 303.75L157.502 303.377L158.062 303.375C158.643 302.794 159.099 302.69 159.75 302.25C160.292 301.884 160.778 301.479 161.344 301.127L161.812 301.125C162.243 300.589 162.418 300.482 163.031 300.189C163.584 299.926 164.112 299.731 164.613 299.373L164.906 299.156C165.8 298.687 165.37 299.148 165.979 298.391L166.312 297.941L167.062 298.125L167.627 297.377C168.474 297.374 168.876 296.884 169.465 296.299C169.83 295.936 170.128 295.976 170.625 295.875C171.098 295.407 170.871 295.541 171.493 295.29C172.141 295.029 172.255 294.729 172.688 294.191C173.283 294.121 173.704 294.113 174.201 293.742C174.619 293.43 175.101 293.188 175.5 292.875L175.877 292.502C176.48 292.147 176.838 292.31 177.411 291.739L177.752 291.377C178.229 291.087 178.767 291.011 179.25 290.625C179.999 290.025 179.186 290.388 180.312 290.011C180.968 289.791 181.487 289.654 182.047 289.236C183.329 288.28 184.848 287.632 186.257 286.875L168 286.967C164.292 286.595 160.336 286.863 156.599 286.862C149.726 286.862 142.853 286.861 135.98 286.868C133.608 286.87 130.957 287.149 128.625 286.967C123.791 286.59 118.788 287.34 114 286.967C110.871 286.723 107.612 287.227 104.531 286.925C100.086 286.489 95.2392 286.869 90.75 286.875C88.6434 285.471 84.0317 287.542 81.9556 286.13L82.4387 285.774L82.315 285.314Z"/>
	<path fill="#8E8182" transform="scale(0.666667 0.666667)" d="M108.722 299.438L109.259 299.416C109.676 299.631 110.008 299.845 110.307 300.216C111.045 301.132 111.445 302.424 111.262 303.599C111.106 304.6 110.856 304.612 110.062 305.142C109.191 305.213 108.651 304.997 107.843 304.688C107.239 303.929 107.168 303.753 107.176 302.733C107.186 301.278 107.707 300.418 108.722 299.438Z"/>
	<path fill="#8E8182" transform="scale(0.666667 0.666667)" d="M109.053 438.938L110.252 438.572C110.976 438.879 111.447 438.934 111.926 439.587C112.518 440.392 112.604 441.573 112.436 442.535C112.257 443.563 112.007 443.572 111.188 444.14C110.672 444.194 109.807 444.2 109.312 443.98C108.368 443.562 108.261 443.194 107.883 442.312C107.922 440.822 108.13 440.115 109.053 438.938Z"/>
	<path fill="#5BB6EB" transform="scale(0.666667 0.666667)" d="M212.178 444.777C211.42 437.729 211.784 429.869 212.028 422.776L217.733 423.358L218.325 423.355L218.676 426.137L212.47 426.419C212.095 432.426 212.958 438.872 212.178 444.777Z"/>
	<path fill="#D9CFCD" transform="scale(0.666667 0.666667)" d="M82.315 285.314C84.0829 284.764 86.8916 285.197 88.7942 285.204C94.6556 285.228 100.517 285.251 106.378 285.288C123.818 285.397 141.257 285.459 158.697 285.513C167.589 285.541 176.552 285.786 185.438 285.566C184.636 286.175 183.979 286.257 183 286.324C176.077 286.795 168.879 286.402 161.926 286.388C148.012 286.362 134.1 286.297 120.188 286.227C111.996 286.186 103.805 286.196 95.6136 286.178C91.7546 286.169 87.4306 286.531 83.6269 286.015L82.4387 285.774L82.315 285.314Z"/>
	<path fill="#5BB6EB" transform="scale(0.666667 0.666667)" d="M183.822 300.512C185.662 301.287 190.558 299.226 192.562 298.666C199.044 296.853 205.528 295.097 211.933 293.023C217.468 291.231 222.937 289.11 228.564 287.631C231.81 286.778 235.06 286.363 238.398 286.081C234.036 292.03 229.548 297.817 224.83 303.488C223.092 305.576 220.862 308.684 218.644 310.17L167.396 308.148C168.196 307.924 169.018 307.825 169.838 307.696L169.978 307.283C171.045 304.854 179.243 302.381 181.794 301.189C182.488 300.865 183.068 300.67 183.822 300.512Z"/>
	<path fill="#233D4D" transform="scale(0.666667 0.666667)" d="M441.575 241.005C455.307 231.893 468.056 221.075 481.4 211.384C496.834 200.176 512.643 189.446 528.198 178.402C562.767 153.856 596.685 128.374 633.112 106.581C637.414 104.007 641.706 101.452 646.192 99.2056C648.279 98.1607 650.681 96.7364 653.062 96.8038L653.438 97.5475C651.937 99.069 649.812 100.24 648.037 101.456C645.058 103.496 642.111 105.587 639.174 107.687C626.984 116.399 615.057 125.421 602.586 133.74C598.912 135.79 595.494 138.457 592.067 140.894C591.167 141.534 589.32 142.523 588.69 143.368C589.323 145.045 589.509 146.934 590.279 148.506C591.931 147.512 635.08 148.061 640.54 148.179L640.078 172.677L640.908 173.345L642.178 173.356L688.816 173.305L689.292 628.29L694.232 628.313L706.608 628.362C706.768 533.482 706.249 438.601 706.299 343.721C706.314 313.9 706.166 284.08 706.146 254.259C706.139 245.23 706.137 236.201 706.13 227.172C706.126 222.754 706.524 217.903 705.938 213.534C705.322 213.208 704.847 212.912 704.337 212.438C706.707 210.551 709.61 209.315 712.475 208.391C711.89 209.606 710.556 211.059 710.425 212.349C710.056 215.99 710.462 220.058 710.475 223.751C710.505 232.397 710.54 241.043 710.581 249.689C710.719 278.207 710.983 306.72 711.02 335.239C711.148 432.977 711.427 530.716 711.36 628.453L734.991 628.474L734.986 642.521C733.375 643.327 720.97 642.747 718.243 642.749C697.233 642.766 676.223 642.779 655.213 642.778C534.355 642.775 413.497 642.497 292.639 642.475C205.81 642.459 118.968 642.489 32.1402 642.856L32.1358 628.745L59.517 628.893C59.0507 617.366 59.4608 605.659 59.4184 594.112C59.3236 568.27 59.359 542.435 59.4545 516.593C59.6674 458.979 59.3484 401.363 59.3289 343.748C59.3266 337.128 59.997 288.002 58.9244 286.018C58.1847 285.969 57.678 285.847 56.9936 285.562C57.0583 285.259 57.0179 284.912 57.1875 284.651C57.4458 284.255 58.6283 283.595 59.084 283.259C61.2951 281.625 63.495 279.988 65.737 278.396L66.3548 564.744C75.1227 564.775 83.8865 564.853 92.6534 564.982C96.1439 565.033 100.044 564.69 103.49 565.191C105.674 565.508 108.661 567.122 110.202 568.665L110.177 531.931C110.626 528.744 109.936 525.317 110.572 522.187C111.888 515.709 111.47 508.075 111.126 501.476L119.137 501.418L119.24 500.98C122.861 500.234 127.289 500.671 131.016 500.673C135.986 500.676 140.956 500.685 145.926 500.705C148.92 500.717 153.127 500.234 155.751 501.879C158.123 503.367 160.615 505.778 162.671 507.698C162.961 510.438 162.843 513.546 163.394 516.2L163.083 492.545C162.568 489.063 162.852 485.098 162.829 481.564C162.781 474.113 162.775 466.676 162.968 459.227L163.138 453.911L212.381 453.468L212.178 444.777C212.958 438.872 212.095 432.426 212.47 426.419L218.676 426.137L218.325 423.355C220.181 422.165 248.582 423.284 253.308 423.281L255.936 446.591C260.058 446.596 264.18 446.609 268.302 446.626C270.046 446.633 272.44 446.239 273.767 447.517C274.549 448.269 274.863 449.317 275.203 450.314C275.651 451.626 276.263 452.102 277.473 452.725C277.66 452.558 278.584 451.852 278.635 451.688C278.856 450.974 278.651 449.297 278.655 448.507C278.673 445.521 278.686 442.534 278.69 439.547C278.709 424.527 278.679 409.506 278.846 394.487C278.878 391.581 278.916 388.675 278.963 385.769C278.986 384.336 278.724 382.757 279.534 381.562L281.636 381.34C282.23 380.108 282.873 378.439 284.242 377.925C285.337 377.515 286.779 377.718 287.93 377.745C291.141 377.821 294.351 377.929 297.562 377.977C302.476 378.052 307.391 378.066 312.305 378.106C314.908 378.127 317.615 377.984 320.196 378.332L324.403 381.646C326.821 380.131 329.636 379.282 332.364 378.518L332.175 354.702C337.863 354.721 343.551 354.737 349.239 354.741C351.308 354.742 353.96 355.09 355.939 354.601L356.422 354.472C355.637 345.381 356.261 335.735 356.24 326.589C356.232 322.691 356.892 317.33 355.29 313.777C353.739 315.201 351.853 316.337 350.169 317.609C345.971 320.778 341.745 323.903 337.523 327.04C322.925 337.884 308.188 348.517 293.562 359.316C261.193 383.214 228.809 407.121 195.902 430.278C184.988 437.958 173.834 445.315 162.852 452.893C153.584 459.288 144.442 465.865 135.246 472.362C127.842 477.593 120.231 483.099 112.121 487.192C109.409 488.561 101.666 492.804 98.7815 491.838L98.7143 491.062C106.729 483.538 116.102 476.844 124.875 470.214C151.001 450.467 178.666 432.804 205.188 413.609C235.74 391.498 266.104 369.132 296.568 346.903C310.765 336.545 325.136 326.431 339.312 316.041C346.546 310.739 353.603 305.204 360.842 299.903C387.714 280.226 414.87 260.911 441.575 241.005Z"/>
	<path fill="#F3EBE7" transform="scale(0.666667 0.666667)" d="M405.518 276.065C405.932 279.292 405.728 282.716 405.734 285.974C405.747 293.625 405.395 301.444 405.763 309.075L360.737 309.237L405.518 276.065Z"/>
	<path fill="#CC512F" transform="scale(0.666667 0.666667)" d="M325.591 466.712L325.876 628.91L285.724 628.906L285.742 586.751L286.16 586.56L286.255 578.693L286.832 578.395L287.676 579.407L288.877 579.229L289.522 579.466C290.131 579.643 290.681 579.769 291.281 579.987C291.922 580.221 292.334 580.365 293.023 580.404L293.607 580.432C294.124 580.519 294.38 580.708 294.952 580.704C295.808 580.697 296.571 580.593 297.352 581.014C300.548 582.739 303.046 583.749 305.821 586.313L306.146 586.618C306.783 586.614 307.225 586.583 307.816 586.854C308.412 587.126 308.059 587.041 308.74 587.137C309.284 587.213 309.741 587.298 310.259 587.494L311.639 588.048C313.227 588.488 314.568 588.805 316.049 589.639L316.58 589.967L317.23 590.039L317.755 590.402L318.373 590.062L318.83 590.342L319.48 590.414L320.041 590.813L320.704 590.749L321.675 592.278L321.866 592.64C322.668 592.521 323.109 592.446 323.864 592.772L324.189 594.11L324.938 594.375L325.591 466.712Z"/>
	<defs>
		<linearGradient id="gradient_0" gradientUnits="userSpaceOnUse" x1="339.91" y1="569.51202" x2="351.435" y2="463.45801">
			<stop offset="0" stop-color="#062766"/>
			<stop offset="1" stop-color="#0B5DAF"/>
		</linearGradient>
	</defs>
	<path fill="url(#gradient_0)" transform="scale(0.666667 0.666667)" d="M333.482 432.907L333.668 433.617C334.018 435.066 333.876 436.718 333.883 438.202C333.896 441.207 333.898 444.213 333.903 447.219C333.911 451.732 334.146 456.159 334.273 460.646C334.291 461.289 334.1 463.907 334.349 464.355C334.54 464.698 334.937 464.876 335.23 465.137L336.204 464.807L336.752 465.142L337.08 464.976L338.248 464.437L338.94 464.707L339.545 463.996L340.127 464.392L340.745 464.035L341.252 464.392L341.58 464.226L342.748 463.687L343.502 464.017L344.12 463.66L344.565 463.937L344.985 463.256L345.752 463.642L346.37 463.285L346.877 463.642L347.495 463.285L348.002 463.642L348.621 463.285C349.172 463.699 349.076 463.765 349.815 463.744L350.38 464.135L350.768 464.063C352.19 463.986 354.919 465.319 356.437 465.751C356.399 463.556 356.794 461.533 356.829 459.404C356.915 454.295 356.131 448.158 357.06 443.196L357.836 562.12C357.768 563.366 357.946 565.393 357.597 566.531C357.396 567.185 357.168 566.863 357.237 567.709L357.281 570.656L356.625 570.766L355.832 571.455L354.931 571.319L354.729 570.953C354.396 570.407 354.543 570.596 353.94 570.242L353.415 569.058L352.641 568.96L352.21 568.278L351.488 568.193L351.114 567.492L350.46 567.349L350.083 566.37L349.688 566.384C348.82 566.385 348.589 566.233 347.947 565.671L347.619 565.392L346.938 565.604C346.336 565.438 345.824 565.247 345.245 565.023C344.403 564.698 344.467 564.583 343.563 564.854L343.031 564.7L342.438 564.815L342.068 564.219L341.331 564.082L340.943 563.469L340.205 563.372C339.193 563.158 338.959 562.459 337.956 562.207L337.494 561.602L337.147 561.355C336.629 560.976 336.867 561.198 336.45 560.478L335.72 560.777L335.155 560.487L334.583 560.561C334.548 561.726 334.658 563.192 334.169 564.24C333.45 565.78 334.059 569.555 334.074 571.409C334.136 578.765 334.258 586.153 334.104 593.507C333.444 595.8 333.721 598.918 333.699 601.312L333.375 601.312L333.375 588.938C333.77 587.425 333.604 589.071 333.709 587.701L333.75 587.062C334.365 582.046 333.898 576.493 333.882 571.413C333.851 561.572 333.834 551.732 333.809 541.892C333.716 505.572 333.239 469.223 333.482 432.907Z"/>
	<defs>
		<linearGradient id="gradient_1" gradientUnits="userSpaceOnUse" x1="351.69601" y1="466.26001" x2="338.06299" y2="354.50699">
			<stop offset="0" stop-color="#0864B7"/>
			<stop offset="1" stop-color="#24A8E7"/>
		</linearGradient>
	</defs>
	<path fill="url(#gradient_1)" transform="scale(0.666667 0.666667)" d="M356.422 354.472C356.973 358.644 356.77 363.099 356.819 367.309C356.917 375.583 356.926 383.859 356.946 392.134C356.973 402.912 356.99 413.69 357.044 424.468C357.075 430.69 357.315 436.985 357.06 443.196C356.131 448.158 356.915 454.295 356.829 459.404C356.794 461.533 356.399 463.556 356.437 465.751C354.919 465.319 352.19 463.986 350.768 464.063L350.38 464.135L349.815 463.744C349.076 463.765 349.172 463.699 348.621 463.285L348.002 463.642L347.495 463.285L346.877 463.642L346.37 463.285L345.752 463.642L344.985 463.256L344.565 463.937L344.12 463.66L343.502 464.017L342.748 463.687L341.58 464.226L341.252 464.392L340.745 464.035L340.127 464.392L339.545 463.996L338.94 464.707L338.248 464.437L337.08 464.976L336.752 465.142L336.204 464.807L335.23 465.137C334.937 464.876 334.54 464.698 334.349 464.355C334.1 463.907 334.291 461.289 334.273 460.646C334.146 456.159 333.911 451.732 333.903 447.219C333.898 444.213 333.896 441.207 333.883 438.202C333.876 436.718 334.018 435.066 333.668 433.617L333.482 432.907C333.28 431.473 333.465 429.693 333.461 428.225C333.451 424.985 333.441 421.745 333.43 418.505C333.395 407.211 333.36 395.918 333.266 384.624L325.572 384.667L324.403 381.646C326.821 380.131 329.636 379.282 332.364 378.518L332.175 354.702C337.863 354.721 343.551 354.737 349.239 354.741C351.308 354.742 353.96 355.09 355.939 354.601L356.422 354.472Z"/>
	<path fill="#FE7F2D" transform="scale(0.666667 0.666667)" d="M66.3548 564.744C75.1227 564.775 83.8865 564.853 92.6534 564.982C96.1439 565.033 100.044 564.69 103.49 565.191C105.674 565.508 108.661 567.122 110.202 568.665L110.185 628.984L66.244 629.063L66.3548 564.744Z"/>
	<path fill="#F7E5DA" transform="scale(0.666667 0.666667)" d="M588.69 143.368C589.323 145.045 589.509 146.934 590.279 148.506L590.379 188.99L547.312 189.193C546.687 190.131 547.022 191.906 547.065 193.064L546.99 208.909C543.431 209.551 538.887 209.039 535.228 209.027C526.537 208.999 517.846 208.958 509.156 208.918C506.307 208.906 502.18 208.359 499.541 209.311L498.416 209.625L498.27 217.871L498.14 258.853L456.235 258.968L456.376 279.096L454.485 278.882C454.836 277.121 454.229 273.415 453.508 271.767C452.937 271.262 452.577 270.952 451.81 270.789C448.963 270.184 444.765 270.686 441.782 270.674C432.746 270.638 423.699 270.54 414.664 270.703L588.69 143.368Z"/>
	<defs>
		<linearGradient id="gradient_2" gradientUnits="userSpaceOnUse" x1="490.97299" y1="415.64001" x2="468.595" y2="257.87299">
			<stop offset="0" stop-color="#075AAB"/>
			<stop offset="1" stop-color="#129BE4"/>
		</linearGradient>
	</defs>
	<path fill="url(#gradient_2)" transform="scale(0.666667 0.666667)" d="M498.27 217.871L497.825 562.123C497.154 560.261 497.613 556.963 497.612 554.879C497.61 548.612 497.611 542.346 497.611 536.079C497.612 525.442 497.971 415.926 497.625 415.312C497.472 415.04 497.125 414.938 496.875 414.75L496.312 414.934L495.75 414.559L495.002 414.373L494.849 413.857C494.637 413.22 494.469 413.005 494.066 412.5L493.725 412.053C493.133 411.314 492.54 410.551 491.627 410.248L491.438 409.5L490.316 408.938L490.312 408.375L489.191 407.812L489.188 407.25L488.066 406.312L488.062 405.934L487.688 405.375L487.127 405.373L486.938 404.625L486.557 404.472C486.051 404.246 485.868 403.938 485.438 403.684L484.969 403.498L484.312 402.934L483.938 403.309L483.658 402.75C483.153 402.409 483.551 402.635 482.719 402.373L481.969 402.094L481.594 402.373L480.844 402.094L480.469 402.373L480 402.092C479.319 402.516 479.454 402.587 478.594 402.469L478.125 402.934L477.375 402.938L477 403.309L476.434 403.5C476.046 403.716 475.749 404.005 475.309 404.25C474.911 404.472 474.641 404.749 474.184 405L473.625 405.559L473.296 405.618C472.765 405.752 472.546 405.992 472.125 406.309L471.842 406.5L471.562 407.059C470.709 407.062 470.924 407.005 470.25 407.434L469.594 407.719L469.312 408.184L468.75 408.188L468.188 408.934L467.344 408.844L467.062 409.309L466.5 409.217L465.844 409.873L465.375 409.5L464.812 410.059L464.25 409.967L463.688 410.434L463.125 410.059L462.377 409.873L461.719 409.594L461.625 447.188L461.42 447.188L461.446 279.314L456.376 279.096L456.235 258.968L498.14 258.853L498.27 217.871Z"/>
	<path fill="#FE7F2D" transform="scale(0.666667 0.666667)" d="M119.24 500.98C122.861 500.234 127.289 500.671 131.016 500.673C135.986 500.676 140.956 500.685 145.926 500.705C148.92 500.717 153.127 500.234 155.751 501.879C158.123 503.367 160.615 505.778 162.671 507.698C162.961 510.438 162.843 513.546 163.394 516.2L163.505 560.74L163.562 629.175L118.781 629.219L119.14 505.089L119.137 501.418L119.24 500.98Z"/>
	<path fill="#FCCA46" transform="scale(0.666667 0.666667)" d="M119.24 500.98C122.861 500.234 127.289 500.671 131.016 500.673C135.986 500.676 140.956 500.685 145.926 500.705C148.92 500.717 153.127 500.234 155.751 501.879C158.123 503.367 160.615 505.778 162.671 507.698C162.961 510.438 162.843 513.546 163.394 516.2L163.505 560.74C162.646 557.314 163.268 553.522 162.453 550.046C161.599 546.403 162.571 541.921 162.283 538.125L162.191 537.375C162.126 536.478 161.7 536.206 161.138 535.513L160.686 535.399L160.017 535.101C158.879 534.767 157.615 534.174 156.474 533.942C154.509 533.542 152.869 532.921 151.066 532.08L150.36 532.272C149.157 531.658 148.311 532.138 147.094 531.304C145.177 531.502 143.386 530.31 141.464 530.138C140.916 530.089 140.544 530.042 140.002 529.892L139.503 529.751C136.034 529.259 132.465 527.361 129.004 527.169C128.349 527.133 127.817 527.107 127.187 526.894C125.607 526.357 122.7 525.695 121.261 526.97C120.422 527.713 121.026 527.985 119.707 528.355C119.72 532.205 120.021 536.504 119.435 540.294L119.14 505.089L119.137 501.418L119.24 500.98Z"/>
	<defs>
		<linearGradient id="gradient_3" gradientUnits="userSpaceOnUse" x1="258.673" y1="561.75403" x2="355.90399" y2="400.642">
			<stop offset="0" stop-color="#D0582E"/>
			<stop offset="1" stop-color="#FF9930"/>
		</linearGradient>
	</defs>
	<path fill="url(#gradient_3)" transform="scale(0.666667 0.666667)" d="M281.636 381.34C282.23 380.108 282.873 378.439 284.242 377.925C285.337 377.515 286.779 377.718 287.93 377.745C291.141 377.821 294.351 377.929 297.562 377.977C302.476 378.052 307.391 378.066 312.305 378.106C314.908 378.127 317.615 377.984 320.196 378.332L324.403 381.646L325.572 384.667C325.581 404.312 325.635 423.956 325.636 443.601C325.636 449.086 325.631 454.571 325.625 460.055C325.622 462.117 325.919 464.7 325.591 466.712L324.938 594.375L324.189 594.11L323.864 592.772C323.109 592.446 322.668 592.521 321.866 592.64L321.675 592.278L320.704 590.749L320.041 590.813L319.48 590.414L318.83 590.342L318.373 590.062L317.755 590.402L317.23 590.039L316.58 589.967L316.049 589.639C314.568 588.805 313.227 588.488 311.639 588.048L310.259 587.494C309.741 587.298 309.284 587.213 308.74 587.137C308.059 587.041 308.412 587.126 307.816 586.854C307.225 586.583 306.783 586.614 306.146 586.618L305.821 586.313C303.046 583.749 300.548 582.739 297.352 581.014C296.571 580.593 295.808 580.697 294.952 580.704C294.38 580.708 294.124 580.519 293.607 580.432L293.023 580.404C292.334 580.365 291.922 580.221 291.281 579.987C290.681 579.769 290.131 579.643 289.522 579.466L288.877 579.229L287.676 579.407L286.832 578.395L286.255 578.693L286.16 586.56L285.742 586.751C285.447 585.162 285.646 583.234 285.639 581.611C285.624 578.049 285.611 574.488 285.602 570.926C285.564 556.751 285.612 542.575 285.663 528.399C285.777 496.507 286.028 464.619 286.305 432.729C286.441 417.071 285.954 401.228 286.724 385.597L281.636 381.34Z"/>
	<path fill="#0891DC" transform="scale(0.666667 0.666667)" d="M212.381 453.468C212.812 457.759 212.169 462.539 212.979 466.696L213.036 628.824L171.412 628.949C168.845 629.344 166.156 629.19 163.562 629.175L163.505 560.74L163.394 516.2L163.083 492.545C162.568 489.063 162.852 485.098 162.829 481.564C162.781 474.113 162.775 466.676 162.968 459.227L163.138 453.911L212.381 453.468Z"/>
	<path fill="#065CB0" transform="scale(0.666667 0.666667)" d="M163.083 492.545L163.125 492.103L163.699 459.494C166.59 459.504 169.387 459.532 172.246 459.986L171.412 628.949C168.845 629.344 166.156 629.19 163.562 629.175L163.505 560.74L163.394 516.2L163.083 492.545Z"/>
	<path fill="#FE7F2D" transform="scale(0.666667 0.666667)" d="M218.325 423.355C220.181 422.165 248.582 423.284 253.308 423.281L255.936 446.591C260.058 446.596 264.18 446.609 268.302 446.626C270.046 446.633 272.44 446.239 273.767 447.517C274.549 448.269 274.863 449.317 275.203 450.314C275.651 451.626 276.263 452.102 277.473 452.725C276.952 453.991 277.205 455.95 277.208 457.33C277.215 461.602 277.688 466.397 277.234 470.612L277.392 628.633C273.35 628.617 269.308 628.604 265.266 628.598C262.603 628.594 259.841 628.42 257.202 628.819C253.1 629.394 248.492 628.981 244.312 629.001C235.49 629.042 226.667 629.113 217.845 629.144C217.072 626.724 217.693 622.428 217.703 619.799C217.735 611.224 217.736 602.648 217.753 594.072C217.842 547.244 218.476 500.403 218.267 453.577L218.676 426.137L218.325 423.355Z"/>
	<path fill="#CC512F" transform="scale(0.666667 0.666667)" d="M277.234 470.612L277.392 628.633C273.35 628.617 269.308 628.604 265.266 628.598C262.603 628.594 259.841 628.42 257.202 628.819L257.151 559.617L257.477 519.401C257.851 523.17 257.755 527.034 257.771 530.82C257.777 532.329 257.485 534.718 258.046 536.088L258.673 534.775L260.615 534.124L261.361 534.519C262.086 534.262 262.27 534.284 263.039 534.501L263.813 534.735C264.592 534.855 264.882 534.767 265.622 535.153C266.268 535.49 266.837 535.758 267.512 536.029C268.271 535.502 268.669 535.257 269.599 535.196L270.301 535.997C270.872 536.691 271.231 537.036 272.02 537.493C272.592 537.521 274.661 537.64 274.995 537.208C275.409 536.672 274.73 536.409 275.553 535.675C275.9 536.411 275.884 536.858 276.656 537.189C276.359 534.646 276.356 530.98 276.607 528.421C276.675 527.73 276.664 528.255 276.664 527.449L276.658 526.875L276.612 525.117L276.566 524.625C277.713 522.91 276.938 477.06 277.234 470.612Z"/>
	<defs>
		<linearGradient id="gradient_4" gradientUnits="userSpaceOnUse" x1="395.95001" y1="629.01703" x2="375.02301" y2="308.069">
			<stop offset="0" stop-color="#E71500"/>
			<stop offset="1" stop-color="#44C0F4"/>
		</linearGradient>
	</defs>
	<path fill="url(#gradient_4)" transform="scale(0.666667 0.666667)" d="M360.737 309.237L405.763 309.075L405.277 417.429L405.209 434.412L404.873 505.65L404.667 628.774L365.467 629.004L365.256 512.854L364.741 436.878L364.548 417.571L363.971 314.478C361.5 313.777 359.027 313.827 356.602 313.192L355.9 312.997C357.093 311.377 358.981 310.174 360.737 309.237Z"/>
	<path fill="#FE7F2D" transform="scale(0.666667 0.666667)" d="M414.664 270.703C423.699 270.54 432.746 270.638 441.782 270.674C444.765 270.686 448.963 270.184 451.81 270.789C452.577 270.952 452.937 271.262 453.508 271.767C454.229 273.415 454.836 277.121 454.485 278.882L454.191 628.986L411.665 628.951C411.403 618.024 411.653 607.043 411.684 596.109C411.744 575.261 411.834 554.414 411.945 533.567C412.225 481.099 412.253 428.641 412.206 376.172C412.185 353.319 412.434 330.467 412.493 307.613C412.51 300.862 412.524 294.111 412.516 287.359C412.511 283.961 412.757 280.305 412.462 276.938C412.31 275.213 411.055 274.213 410.881 272.584C412.234 272.264 413.47 271.396 414.664 270.703Z"/>
	<path fill="#FE7F2D" transform="scale(0.666667 0.666667)" d="M547.065 193.064C548.462 195.365 547.682 202.139 547.685 205.066C547.686 206.131 547.462 207.226 548.059 208.125C548.075 256.089 548.469 304.087 548.057 352.046C548.024 355.884 547.373 359.842 547.336 363.754C547.267 370.985 547.31 378.221 547.311 385.452C547.311 387.283 547.825 391.698 547.001 393.188C546.863 432.853 546.962 472.521 546.961 512.186C546.961 513.057 546.584 513.601 546.567 514.371C546.411 521.268 546.559 528.205 546.557 535.106C546.551 550.875 546.572 566.645 546.566 582.414C546.565 585.176 546.563 587.938 546.563 590.7C546.563 591.187 546.728 592.642 546.562 593.066C546.481 593.275 546.315 593.439 546.191 593.625C546.191 601.87 546.191 610.116 546.199 618.361C546.202 621.419 545.71 625.533 546.369 628.472C544.961 629.383 508.77 628.998 504.481 629.074C503.958 627.954 504.265 625.919 504.268 624.623C504.277 620.528 504.288 616.433 504.295 612.338C504.323 594.648 504.347 576.957 504.342 559.267C504.33 514.134 503.993 469.001 504.132 423.868C504.35 353.227 505.033 282.524 504.5 211.889C502.734 211.136 501.176 210.328 499.541 209.311C502.18 208.359 506.307 208.906 509.156 208.918C517.846 208.958 526.537 208.999 535.228 209.027C538.887 209.039 543.431 209.551 546.99 208.909L547.065 193.064Z"/>
	<defs>
		<linearGradient id="gradient_5" gradientUnits="userSpaceOnUse" x1="657.89301" y1="594.95099" x2="479.40601" y2="222.765">
			<stop offset="0" stop-color="#E2491F"/>
			<stop offset="1" stop-color="#FB951F"/>
		</linearGradient>
	</defs>
	<path fill="url(#gradient_5)" transform="scale(0.666667 0.666667)" d="M547.065 193.064C547.022 191.906 546.687 190.131 547.312 189.193L590.379 188.99L590.578 628.952L547.102 628.923L546.901 625.502C546.741 626.384 546.532 627.255 546.59 628.155L546.369 628.472C545.71 625.533 546.202 621.419 546.199 618.361C546.191 610.116 546.191 601.87 546.191 593.625C546.315 593.439 546.481 593.275 546.562 593.066C546.728 592.642 546.563 591.187 546.563 590.7C546.563 587.938 546.565 585.176 546.566 582.414C546.572 566.645 546.551 550.875 546.557 535.106C546.559 528.205 546.411 521.268 546.567 514.371C546.584 513.601 546.961 513.057 546.961 512.186C546.962 472.521 546.863 432.853 547.001 393.188C547.825 391.698 547.311 387.283 547.311 385.452C547.31 378.221 547.267 370.985 547.336 363.754C547.373 359.842 548.024 355.884 548.057 352.046C548.469 304.087 548.075 256.089 548.059 208.125C547.462 207.226 547.686 206.131 547.685 205.066C547.682 202.139 548.462 195.365 547.065 193.064Z"/>
	<defs>
		<linearGradient id="gradient_6" gradientUnits="userSpaceOnUse" x1="789.01599" y1="488.23801" x2="546.40802" y2="313.44299">
			<stop offset="0" stop-color="#0A2753"/>
			<stop offset="1" stop-color="#063F9F"/>
		</linearGradient>
	</defs>
	<path fill="url(#gradient_6)" transform="scale(0.666667 0.666667)" d="M642.178 173.356L688.816 173.305L689.292 628.29L694.232 628.313L693.856 628.589C692.654 629.224 689.997 628.981 688.691 628.688L688.684 627.938C687.701 627.612 687.611 627.552 686.63 627.844C687.144 628.362 686.932 628.055 687.237 628.781L686.438 628.875C685.361 629.011 684.139 629.019 683.062 628.875C682.435 628.791 682.247 628.64 681.598 628.77L681.188 628.875C679.526 627.935 674.477 628.354 672.444 628.344C663.984 628.306 655.519 628.26 647.059 628.396L646.032 173.812C644.784 173.478 643.463 173.449 642.178 173.356Z"/>
	<path fill="#065CB0" transform="scale(0.666667 0.666667)" d="M590.279 148.506C591.931 147.512 635.08 148.061 640.54 148.179L640.078 172.677L640.908 173.345L639.947 173.666C638.754 175.762 639.406 182.087 639.399 184.587C639.37 195.089 639.352 205.59 639.337 216.091C639.267 267.302 639.511 318.512 639.55 369.723C639.611 450.607 639.537 531.493 639.566 612.375C638.425 614.087 639.456 619.648 639.241 621.844C639.047 623.819 639.185 625.953 639.191 627.941L621.562 627.941L621.188 627.566L599.831 628.355C599.197 623.638 599.772 618.036 599.765 613.237C599.748 602.199 599.701 591.161 599.651 580.124C599.472 540.43 599.269 500.754 599.47 461.058C599.614 432.635 599.343 404.21 599.285 375.787C599.131 300.027 598.728 224.272 598.412 148.513L590.279 148.506Z"/>
</svg>
