<?xml version="1.0" encoding="utf-8" ?>
<svg xmlns="http://www.w3.org/2000/svg" xmlns:xlink="http://www.w3.org/1999/xlink" width="512" height="512">
	<path fill="#F1F1EF" transform="scale(0.666667 0.666667)" d="M-0 -0L768 0L768 768L-0 768L0 -0Z"/>
	<path fill="#089E7B" transform="scale(0.666667 0.666667)" d="M257.291 225.625L259.818 224.897L259.818 224.354C247.28 217.217 234.176 211.028 221.628 203.885C216.551 200.995 211.296 198.134 206.612 194.639C210.128 195.771 213.457 197.679 216.772 199.301C222.825 202.261 228.865 205.249 234.915 208.216C246.262 213.78 257.727 219.197 268.855 225.192C285.999 234.429 302.705 244.499 319.522 254.308C329.598 260.186 339.843 265.755 349.79 271.855C357.123 276.351 364.534 280.763 371.787 285.386C379.004 289.988 386.914 296.283 394.975 299.108L395.438 299.489C394.034 301.213 392.136 302.759 390.37 304.099C387.331 301.58 383.485 299.693 380.133 297.592C369.364 290.843 358.355 284.486 347.351 278.129C325.479 265.496 303.914 252.382 281.918 239.95C276.273 236.76 270.5 233.791 264.822 230.658C262.911 229.604 260.102 228.599 258.653 226.974L257.291 225.625Z"/>
	<path fill="#22577A" transform="scale(0.666667 0.666667)" d="M62.5426 456.082L69.097 449.342C68.3921 452.656 67.8816 456.243 68.9389 459.539C70.2177 463.525 73.1575 466.032 76.4154 468.415C81.5642 472.181 87.1797 475.492 92.526 478.989C104.251 486.656 116.043 494.229 127.749 501.924C143.457 512.25 158.969 522.875 174.691 533.175C198.974 549.082 223.474 564.667 247.786 580.53C271.163 595.783 294.979 610.429 318.246 625.831C328.013 632.296 337.725 638.844 347.471 645.34C354.45 649.992 361.547 654.957 369.008 658.792C377.299 663.054 384.72 664.331 393.703 661.293C400.611 658.957 406.947 653.929 412.753 649.585C418.715 645.124 424.668 640.622 430.739 636.311C466.659 610.807 502.135 584.699 537.75 558.771C578.409 529.171 619.386 500.007 659.668 469.888C669.29 462.693 679.314 455.989 688.778 448.587C692.226 445.89 696.302 442.749 698.114 438.651C700.341 433.614 696.47 426.853 694.682 422.16C703.598 424.077 709.371 427.874 714.678 435.276C713.559 440.983 710.78 444.117 706.461 447.77C697.213 455.592 686.536 462.076 676.686 469.126C656.902 483.287 637.14 497.596 617.628 512.128C571.81 546.254 525.144 579.224 478.875 612.734C465.93 622.11 453.005 631.65 440.209 641.226C430.603 648.415 421.102 655.811 411.141 662.506C400.732 669.501 389.069 674.074 376.397 671.548C370.748 670.422 365.676 668.154 360.718 665.271C354.844 661.855 349.196 657.919 343.517 654.188C334.942 648.553 326.336 642.965 317.736 637.369C292.682 621.067 267.47 604.977 242.342 588.786C203.908 564.021 165.749 538.848 127.375 513.998C115.728 506.456 104.028 498.997 92.2892 491.599C86.2993 487.823 80.1099 484.258 74.27 480.257C69.9406 477.292 64.7877 474.029 61.7832 469.628C60.1816 467.282 59.8591 465.066 60.4342 462.294C60.874 460.174 61.7578 458.099 62.5426 456.082Z"/>
	<path fill="#BBC4B3" transform="scale(0.666667 0.666667)" d="M681.063 372.334C681.898 373.113 682.639 373.167 683.622 373.602C685.038 374.23 686.404 375.124 687.676 376.002C692.071 379.037 696.335 382.413 700.536 385.713C701.657 386.593 703.729 388.739 704.96 389.162L706.297 390.562C705.878 392.058 703.537 393.662 702.394 394.688C697.821 398.787 693.074 402.698 688.155 406.375C688.745 407.771 689.781 408.14 691.198 408.691C693.192 409.467 694.152 407.855 696.234 409.875C695.144 412.98 689.715 417.774 687.18 419.819C677.694 427.472 667.448 434.2 657.503 441.228C646.87 448.741 636.39 456.577 625.875 464.262C592.102 488.946 558.493 513.845 524.728 538.539C518.717 542.934 512.85 547.533 506.812 551.892C500.653 556.34 494.178 560.365 488.004 564.803C478.634 571.536 469.415 578.469 460.054 585.207C451.45 591.4 442.686 597.313 434.2 603.684C427.403 608.787 420.45 613.661 413.622 618.719C405.238 624.929 397.137 631.304 387.951 636.323C384.435 634.61 381.246 632.295 377.961 630.188C371.555 626.08 365.222 621.885 358.875 617.687C346.042 609.199 332.967 601.09 320.123 592.614C308.249 584.777 296.523 576.716 284.625 568.913C278.557 564.934 272.33 561.197 266.25 557.237C256.535 550.91 246.993 544.273 237.355 537.826C231.767 534.089 226 530.615 220.409 526.886C215.758 523.784 211.333 520.377 206.736 517.201C202.321 514.15 197.769 511.302 193.35 508.263C167.567 490.53 142.027 472.627 115.688 455.713C104.78 448.708 94.1787 441.427 82.6759 435.398C85.9105 433.303 88.6077 429.859 91.9543 428.228C117.518 445.328 143.439 461.901 169.093 478.869C174.726 482.595 180.569 486.012 186.145 489.817C188.324 491.304 190.507 492.877 192.366 494.761C194.08 496.499 195.455 498.561 197.143 500.334C198.527 501.787 200.195 502.936 201.824 504.093C229.577 523.796 258.84 541.516 287.472 559.898C300.338 568.159 313.123 576.547 325.986 584.816C331.109 588.109 336.226 591.411 341.367 594.676C346.16 597.72 351.759 601.513 357.363 602.769C363.358 604.111 370.296 601.061 375.36 598.112C386.193 591.804 396.213 583.588 406.287 576.136C413.611 570.719 421.099 565.52 428.405 560.084C438.571 552.52 448.56 544.725 458.713 537.147C517.814 493.033 576.087 447.82 636.021 404.829C645.532 398.007 655.034 391.176 664.503 384.296C670.013 380.293 675.401 376.124 681.063 372.334Z"/>
	<path fill="#089E7B" transform="scale(0.666667 0.666667)" d="M704.96 389.162L706.297 390.562C705.878 392.058 703.537 393.662 702.394 394.688C697.821 398.787 693.074 402.698 688.155 406.375C684.38 408.413 680.736 411.316 677.211 413.771C670.126 418.706 663.077 423.684 656.089 428.757C638.989 441.172 621.729 453.365 604.64 465.801C574.11 488.019 543.973 510.774 513.484 533.049C496.456 545.491 479.129 557.548 462.063 569.937C436.744 588.318 411.723 607.391 385.697 624.757C384.835 624.09 384.014 623.506 383.386 622.597C385.97 620.321 389.142 618.401 391.926 616.349C399.501 610.764 407.163 605.294 414.815 599.815C429.045 589.625 443.063 579.139 457.261 568.907C463.428 564.462 469.766 560.253 475.934 555.813C485.077 549.229 494.02 542.397 503.11 535.749C510.462 530.372 517.968 525.227 525.309 519.837C560.715 493.842 595.822 467.477 631.477 441.815C647.079 430.585 662.767 419.432 678.498 408.382C683.336 404.984 688.147 401.542 692.999 398.166C696.911 395.444 701.084 392.778 704.572 389.527L704.96 389.162Z"/>
	<path fill="#38A3A5" transform="scale(0.666667 0.666667)" d="M714.678 435.276C719.825 440.575 721.996 447.614 721.924 454.922C721.821 465.509 716.829 473.411 709.43 480.628C704.374 485.559 698.693 489.689 693.01 493.852C686.313 498.758 679.561 503.586 672.857 508.482C649.752 525.355 626.559 542.114 603.371 558.875C594.739 565.115 586.298 571.613 577.687 577.877C560.393 590.456 542.907 602.772 525.513 615.212C507.689 627.961 489.959 640.792 471.938 653.257C461.26 660.643 450.58 668.037 439.799 675.272C432.321 680.291 424.856 685.439 416.894 689.674C405.757 695.599 393.205 698.747 380.57 698.58C368.54 698.421 356.037 694.618 345.336 689.205C336.493 684.732 328.35 679.292 319.875 674.198C298.183 661.161 277.008 647.491 255.755 633.757C239.032 622.95 221.988 612.668 205.138 602.066C186.363 590.252 167.781 578.111 149.081 566.177C134.766 557.04 120.551 547.691 106.119 538.747C99.3791 534.571 92.6645 530.356 85.8728 526.265C75.7461 520.165 64.9301 514.308 56.6516 505.718C50.6435 499.484 46.976 490.325 47.2276 481.692C47.4816 472.981 53.0612 464.432 59.287 458.672L62.5426 456.082C61.7578 458.099 60.874 460.174 60.4342 462.294C59.8591 465.066 60.1816 467.282 61.7832 469.628C64.7877 474.029 69.9406 477.292 74.27 480.257C80.1099 484.258 86.2993 487.823 92.2892 491.599C104.028 498.997 115.728 506.456 127.375 513.998C165.749 538.848 203.908 564.021 242.342 588.786C267.47 604.977 292.682 621.067 317.736 637.369C326.336 642.965 334.942 648.553 343.517 654.188C349.196 657.919 354.844 661.855 360.718 665.271C365.676 668.154 370.748 670.422 376.397 671.548C389.069 674.074 400.732 669.501 411.141 662.506C421.102 655.811 430.603 648.415 440.209 641.226C453.005 631.65 465.93 622.11 478.875 612.734C525.144 579.224 571.81 546.254 617.628 512.128C637.14 497.596 656.902 483.287 676.686 469.126C686.536 462.076 697.213 455.592 706.461 447.77C710.78 444.117 713.559 440.983 714.678 435.276Z"/>
	<path fill="#57CC99" transform="scale(0.666667 0.666667)" d="M86.5893 365.465C89.7999 364.147 92.5472 361.697 95.1861 359.502C98.324 356.891 101.466 354.288 104.625 351.702C118.791 340.108 132.675 328.181 146.812 316.56C171.957 295.892 197.198 275.343 222.281 254.604C233.978 244.934 245.967 235.759 257.291 225.625L258.653 226.974C260.102 228.599 262.911 229.604 264.822 230.658C270.5 233.791 276.273 236.76 281.918 239.95C303.914 252.382 325.479 265.496 347.351 278.129C358.355 284.486 369.364 290.843 380.133 297.592C383.485 299.693 387.331 301.58 390.37 304.099C383.984 307.602 378.557 311.654 372.747 316C363.598 322.843 354.886 330.1 346.125 337.428C323.671 356.21 301.623 375.473 281.05 396.329C271.925 405.581 262.902 414.917 254.971 425.237C246.59 436.141 238.918 449.009 235.091 462.292C234.367 464.808 234.014 467.303 233.988 469.919C217.312 451.759 197.824 438.063 177.589 424.234C172.865 421.006 168.323 417.53 163.567 414.34C145.942 402.522 127.922 391.237 110.025 379.833C102.302 374.912 94.2079 370.518 86.5893 365.465Z"/>
	<path fill="#57CC99" transform="scale(0.666667 0.666667)" d="M394.975 299.108C398.116 298.556 399.976 300.068 402.45 301.794L417.477 313.683C419.072 314.947 420.705 316.189 422.22 317.547C422.729 318.003 423.762 319.291 424.312 319.497C424.784 319.673 425.76 319.616 426.293 319.66C431.422 319.679 436.428 321.553 441.075 323.564C456.51 330.245 471.107 339.522 485.625 347.964C508.959 361.532 532.203 375.259 555.459 388.956C559.662 391.431 563.799 394.031 567.866 396.725C570.071 398.186 572.537 400.397 574.964 401.307C574.299 402.851 573.478 404.035 572.465 405.368L549.297 391.641C539.042 399.811 529.425 408.792 519.586 417.457C500.188 434.54 480.946 451.801 461.553 468.89C450.802 478.363 439.783 487.465 428.887 496.762C417.544 506.442 406.345 516.292 395.056 526.035C388.666 531.55 382.253 537.029 375.961 542.655C373.856 544.538 370.382 546.883 369.062 549.374C368.506 550.088 367.617 550.691 366.923 551.282L257.203 478.214L255.035 477.058C251.612 474.89 248.415 474.214 244.476 473.723L239.596 477.497L236.208 472.848L233.988 469.919C234.014 467.303 234.367 464.808 235.091 462.292C238.918 449.009 246.59 436.141 254.971 425.237C262.902 414.917 271.925 405.581 281.05 396.329C301.623 375.473 323.671 356.21 346.125 337.428C354.886 330.1 363.598 322.843 372.747 316C378.557 311.654 383.984 307.602 390.37 304.099C392.136 302.759 394.034 301.213 395.438 299.489L394.975 299.108Z"/>
	<path fill="#089E7B" transform="scale(0.666667 0.666667)" d="M426.293 319.66C431.422 319.679 436.428 321.553 441.075 323.564C456.51 330.245 471.107 339.522 485.625 347.964C508.959 361.532 532.203 375.259 555.459 388.956C559.662 391.431 563.799 394.031 567.866 396.725C570.071 398.186 572.537 400.397 574.964 401.307C574.299 402.851 573.478 404.035 572.465 405.368L549.297 391.641L431.354 323.85C428.877 326.894 426.774 330.14 424.103 333.035C416.893 340.851 408.17 347.696 400.28 354.845C384.317 369.308 367.956 383.227 351.495 397.11C333.598 412.203 315.425 427.054 297.701 442.334C285.716 452.666 274.226 463.485 262.427 474.007C260.751 475.502 258.869 476.74 257.203 478.214L255.035 477.058C251.612 474.89 248.415 474.214 244.476 473.723C250.807 468.432 256.585 462.585 262.659 457.014C271.604 448.811 280.775 440.827 290.015 432.961C303.626 421.374 317.712 410.397 331.563 399.109C342.816 389.938 353.904 380.435 364.851 370.9C378.547 358.972 392.052 346.826 405.732 334.876C410.647 330.582 415.36 325.627 420.532 321.704C422.592 320.141 423.749 319.888 426.293 319.66Z"/>
	<path fill="#80ED99" transform="scale(0.666667 0.666667)" d="M394.975 299.108C398.116 298.556 399.976 300.068 402.45 301.794L417.477 313.683C419.072 314.947 420.705 316.189 422.22 317.547C422.729 318.003 423.762 319.291 424.312 319.497C424.784 319.673 425.76 319.616 426.293 319.66C423.749 319.888 422.592 320.141 420.532 321.704C415.36 325.627 410.647 330.582 405.732 334.876C392.052 346.826 378.547 358.972 364.851 370.9C353.904 380.435 342.816 389.938 331.563 399.109C317.712 410.397 303.626 421.374 290.015 432.961C280.775 440.827 271.604 448.811 262.659 457.014C256.585 462.585 250.807 468.432 244.476 473.723L239.596 477.497L236.208 472.848L233.988 469.919C234.014 467.303 234.367 464.808 235.091 462.292C238.918 449.009 246.59 436.141 254.971 425.237C262.902 414.917 271.925 405.581 281.05 396.329C301.623 375.473 323.671 356.21 346.125 337.428C354.886 330.1 363.598 322.843 372.747 316C378.557 311.654 383.984 307.602 390.37 304.099C392.136 302.759 394.034 301.213 395.438 299.489L394.975 299.108Z"/>
	<path fill="#22577A" transform="scale(0.666667 0.666667)" d="M413.626 93.1352C416.301 90.3134 419.742 85.182 423.784 84.9866C426.755 84.8431 429.735 85.6715 432.351 87.038C439.669 90.861 446.667 96.0542 453.521 100.645C461.545 106.019 469.723 111.172 477.786 116.491C496.018 128.518 514.485 140.125 532.82 151.984C541.468 157.577 549.964 163.406 558.623 168.984C597.537 194.05 636.574 218.907 675.75 243.566C686.739 250.483 697.826 257.25 708.819 264.162C713.787 267.286 720.324 270.596 724.503 274.721L724.778 275.003C722.07 281.89 718.538 288.202 715.015 294.684C710.373 303.225 705.613 311.798 700.491 320.062C700.863 320.488 701.07 320.675 701.564 320.985C706.744 322.886 711.972 327.152 714.387 332.171C716.214 335.968 716.176 340.249 714.635 344.147C711.273 352.653 701.396 358.341 694.181 363.208C689.767 366.185 685.394 369.238 681.063 372.334C675.401 376.124 670.013 380.293 664.503 384.296C655.034 391.176 645.532 398.007 636.021 404.829C576.087 447.82 517.814 493.033 458.713 537.147C448.56 544.725 438.571 552.52 428.405 560.084C421.099 565.52 413.611 570.719 406.287 576.136C396.213 583.588 386.193 591.804 375.36 598.112C370.296 601.061 363.358 604.111 357.363 602.769C351.759 601.513 346.16 597.72 341.367 594.676C336.226 591.411 331.109 588.109 325.986 584.816C313.123 576.547 300.338 568.159 287.472 559.898C258.84 541.516 229.577 523.796 201.824 504.093C200.195 502.936 198.527 501.787 197.143 500.334C195.455 498.561 194.08 496.499 192.366 494.761C190.507 492.877 188.324 491.304 186.145 489.817C180.569 486.012 174.726 482.595 169.093 478.869C143.439 461.901 117.518 445.328 91.9543 428.228C86.8121 424.92 81.6284 421.704 76.4274 418.491C70.1838 414.633 62.8341 410.705 58.7455 404.392C56.5415 400.988 55.7393 397.264 56.7282 393.281C57.3952 390.595 59.4511 388.113 61.3012 386.134C66.632 380.431 73.6234 375.657 79.7842 370.843C82.0507 369.072 84.1396 366.974 86.5893 365.465C94.2079 370.518 102.302 374.912 110.025 379.833C127.922 391.237 145.942 402.522 163.567 414.34C168.323 417.53 172.865 421.006 177.589 424.234C197.824 438.063 217.312 451.759 233.988 469.919L236.208 472.848L239.596 477.497L244.476 473.723C248.415 474.214 251.612 474.89 255.035 477.058L257.203 478.214L366.923 551.282C367.617 550.691 368.506 550.088 369.062 549.374C370.382 546.883 373.856 544.538 375.961 542.655C382.253 537.029 388.666 531.55 395.056 526.035C406.345 516.292 417.544 506.442 428.887 496.762C439.783 487.465 450.802 478.363 461.553 468.89C480.946 451.801 500.188 434.54 519.586 417.457C529.425 408.792 539.042 399.811 549.297 391.641L572.465 405.368C573.478 404.035 574.299 402.851 574.964 401.307L616.53 400.117C616.018 398.547 613.848 397.205 612.56 396.173C608.371 392.816 604.067 389.771 599.55 386.879C601.951 384.42 604.769 382.387 607.204 379.934C616.706 370.364 626.35 361.035 635.984 351.61C642.402 345.332 648.701 338.891 655.269 332.772C664.269 324.387 673.131 315.927 681.884 307.284C685.911 303.309 690.748 299.2 694.066 294.614L710.709 278.483C705.688 274.309 699.817 270.832 694.313 267.329C684.556 261.12 674.663 255.124 664.921 248.906C631.964 227.87 598.884 207.002 565.875 186.043C561.012 182.955 555.989 180.124 551.133 177.024C521.773 158.276 492.9 138.636 463.767 119.524C455.793 114.294 447.787 109.104 439.747 103.975C433.962 100.284 427.509 95.7293 421.082 93.3651L420.569 93.1875C418.323 92.3902 415.943 92.8698 413.626 93.1352Z"/>
	<path fill="#38A3A5" transform="scale(0.666667 0.666667)" d="M549.297 391.641L572.465 405.368C568.993 410.038 564.475 413.77 560.234 417.72C551.552 425.806 542.539 433.51 533.625 441.339C509.463 462.563 484.648 483.008 460.312 504.027C451.031 512.044 442.089 520.437 432.771 528.421C420.388 539.03 407.862 549.42 395.762 560.355C391.183 564.492 386.155 568.435 382.139 573.133C383.108 565.737 382.951 560.343 378.299 554.113C376.95 552.307 374.858 549.971 372.562 549.481C371.489 549.251 370.159 549.357 369.062 549.374C370.382 546.883 373.856 544.538 375.961 542.655C382.253 537.029 388.666 531.55 395.056 526.035C406.345 516.292 417.544 506.442 428.887 496.762C439.783 487.465 450.802 478.363 461.553 468.89C480.946 451.801 500.188 434.54 519.586 417.457C529.425 408.792 539.042 399.811 549.297 391.641Z"/>
	<path fill="#9DC46D" transform="scale(0.666667 0.666667)" d="M84.6179 381.188L85.8759 380.987C90.0325 382.618 94.0722 385.45 97.875 387.802C107.618 393.829 117.071 400.315 126.588 406.688C145.455 419.321 164.607 431.646 183.073 444.853C193.435 452.265 204.395 459.851 213.088 469.229C216.493 472.902 219.162 476.814 221.351 481.313C223.466 485.66 224.975 490.305 227.358 494.525C228.49 496.529 230.098 498.977 232.5 499.492C237.58 500.58 245.683 494.124 249.803 491.474C250.18 491.582 250.231 491.584 250.643 491.776C254.832 493.734 258.94 497.151 262.764 499.813C268.695 503.942 274.66 507.98 280.72 511.917C298.074 523.192 315.572 534.256 332.93 545.53C340.723 550.592 349.625 555.389 356.668 561.397C360.519 564.682 363.123 568.269 364.588 573.147C365.828 577.277 366.111 582.1 363.895 585.965C362.156 588.998 359.803 590.509 356.472 591.327C355.384 591.205 354.361 590.998 353.326 590.627C349.689 589.322 346.366 587.017 343.125 584.959C337.533 581.409 332.102 577.61 326.575 573.958C316.726 567.45 306.677 561.192 296.739 554.813C276.663 541.926 256.739 528.698 236.534 516.031C227.725 510.509 218.803 505.139 209.947 499.691C207.508 498.19 204.884 496.907 202.504 495.339C200.157 493.794 198.245 490.793 196.218 488.776C192.585 485.16 188.711 482.005 184.584 478.974C165.369 464.864 145.472 451.756 125.486 438.775C118.187 434.035 111.086 428.99 103.674 424.424C98.1642 421.03 92.7917 417.449 87.347 413.955C81.4388 410.164 71.4792 405.468 68.5234 398.891C67.7356 397.138 67.6982 395.044 68.4291 393.269C70.6887 387.781 79.4035 383.288 84.6179 381.188Z"/>
	<path fill="#38A3A5" transform="scale(0.666667 0.666667)" d="M413.626 93.1352C415.943 92.8698 418.323 92.3902 420.569 93.1875L421.082 93.3651C427.509 95.7293 433.962 100.284 439.747 103.975C447.787 109.104 455.793 114.294 463.767 119.524C492.9 138.636 521.773 158.276 551.133 177.024C555.989 180.124 561.012 182.955 565.875 186.043C598.884 207.002 631.964 227.87 664.921 248.906C674.663 255.124 684.556 261.12 694.313 267.329C699.817 270.832 705.688 274.309 710.709 278.483L694.066 294.614C690.748 299.2 685.911 303.309 681.884 307.284C673.131 315.927 664.269 324.387 655.269 332.772C648.701 338.891 642.402 345.332 635.984 351.61C626.35 361.035 616.706 370.364 607.204 379.934C604.769 382.387 601.951 384.42 599.55 386.879C561.413 363.315 522.54 340.592 482.375 320.657C472.927 315.967 463.528 311.483 453.711 307.607C448.266 305.458 442.42 303.148 436.605 302.296L435.938 302.202C434.019 301.922 431.346 302.299 429.614 301.882C428.91 301.712 427.761 300.45 427.24 299.958C425.008 297.853 422.83 295.694 420.633 293.551C412.687 285.8 403.86 278.687 394.674 272.451C357.899 247.486 318.213 226.732 278.833 206.256L400.395 103.672L413.626 93.1352Z"/>
</svg>
