<svg width="26" height="17" viewBox="0 0 26 17" fill="none" xmlns="http://www.w3.org/2000/svg">
<path d="M22.2617 16.34C21.4751 16.34 20.8329 16.0992 20.3353 15.6176C19.8537 15.12 19.6129 14.4618 19.6129 13.643V3.19232H16.627V0.688004H19.6129H22.647H25.9218V3.19232H22.647V13.1133C22.647 13.5949 22.8717 13.8357 23.3212 13.8357H25.6329V16.34H22.2617Z" fill="#16A18C"/>
<path d="M16.8782 16.34V0.660004H14.1342L14.011 2.8328V16.34H16.8782Z" fill="#16A18C"/>
<path d="M0.0782471 0.660004V16.34H2.94545V2.8328H3.34865L6.03665 16.34H10.9198L13.6078 2.8328H14.011L14.1342 0.660004H11.3902L8.67985 14.324H8.27665L5.56625 0.660004H0.0782471Z" fill="black"/>
</svg>

