<svg width="35" height="35" viewBox="0 0 35 35" fill="none" xmlns="http://www.w3.org/2000/svg">
<path d="M16.9682 1.50244C16.9544 1.46829 17.272 1.12 17.6723 0.737561C18.0727 0.348293 18.411 0.0341463 18.4317 0.0341463C18.4524 0.0341463 18.7769 0.341463 19.1566 0.717073C19.5363 1.09268 19.8745 1.4 19.9159 1.4C19.9574 1.4 20.3094 1.08585 21.4347 0L22.1388 0.717073C22.5323 1.11317 22.8499 1.46146 22.8499 1.50244C22.8499 1.54341 22.4288 1.98732 20.986 3.41463V6.18049H18.8459V3.41463L17.914 2.49268C17.4031 1.98732 16.9751 1.54341 16.9682 1.50244Z" fill="#2453B3"/>
<path d="M25.611 27.119C25.9355 27.0166 26.4463 26.8936 26.7501 26.839C27.0538 26.7912 27.4956 26.7502 28.1653 26.7366V28.8536H27.8408C27.6544 28.8536 27.2264 28.9151 26.8881 28.9834C26.5499 29.0517 26.0321 29.2019 25.7491 29.318C25.466 29.441 24.9966 29.6868 24.7136 29.8712C24.4305 30.0556 23.9335 30.479 23.609 30.8136C23.2708 31.1688 22.898 31.64 22.7323 31.9336C22.5735 32.2136 22.3457 32.719 22.2353 33.0536C22.1179 33.3883 21.9868 33.9688 21.8487 35H19.7432V34.8156C19.7432 34.7063 19.7777 34.3649 19.8122 34.0439C19.8536 33.7229 19.9641 33.1697 20.0607 32.8146C20.1574 32.4595 20.3783 31.8585 20.5578 31.4829C20.7442 31.1073 21.0203 30.6156 21.1722 30.3902C21.324 30.1649 21.614 29.7961 21.8142 29.5707C22.0144 29.3454 22.3664 28.9971 22.6012 28.7922C22.8359 28.5941 23.2708 28.2663 23.5745 28.0683C23.8783 27.8634 24.327 27.6107 24.5755 27.5015C24.824 27.3922 25.2866 27.2215 25.611 27.119Z" fill="#9DE1F7"/>
<path d="M12.4951 21.6146V10.879V0.136597L16.361 3.96099L14.8768 5.42928L14.2555 4.81465C13.9172 4.48001 13.6135 4.20001 13.5858 4.20001C13.5513 4.20001 13.5306 8.12001 13.5306 21.6146H12.4951Z" fill="#2453B3"/>
<path d="M12.4951 35V29.3385V23.6634H13.5306V35H12.4951Z" fill="#2453B3"/>
<path d="M29.6845 20.2829L30.4231 19.5522V19.5454C30.8304 19.1424 31.1825 18.8146 31.2032 18.8146C31.2239 18.8146 32.0868 19.6478 33.1154 20.6722C34.1509 21.6966 35 22.5844 35 22.639C35 22.6937 34.144 23.5883 31.2032 26.4976L29.6845 24.9951L30.9271 23.7317H22.4912C17.8452 23.7317 13.6963 23.7112 12.4951 23.6293V21.6146L13.5513 21.5805C14.1243 21.56 17.1825 21.5463 20.3304 21.5532C23.4784 21.56 27.1647 21.5668 30.9616 21.5463L29.6845 20.2829Z" fill="#16A18C"/>
<path d="M13.5312 11.3707V10.3122V9.25366H15.6644L15.6368 11.3366L13.5312 11.3707Z" fill="#E9E4F0"/>
<path d="M13.5312 17.5171V16.4585V15.4H15.6713V17.5171H13.5312Z" fill="#E9E4F0"/>
<path d="M17.6733 21.6146V20.5561V19.4976H19.8133V21.6146H17.6733Z" fill="#E9E4F0"/>
<path d="M23.8725 20.6039C23.8656 20.0439 23.8932 19.5659 23.9208 19.5385C23.9553 19.5181 24.4524 19.5044 26.0608 19.5317L26.0954 21.6146H23.8863L23.8725 20.6039Z" fill="#E9E4F0"/>
<path d="M6.08185 8.40001C6.15089 8.06538 6.21302 7.64196 6.21302 7.4644V7.1366H8.35306V7.47806C8.35306 7.66928 8.31854 8.05855 8.27712 8.35221C8.2357 8.63904 8.12525 9.13757 8.0286 9.45855C7.93886 9.77952 7.75247 10.2849 7.6213 10.5854C7.49014 10.8859 7.18639 11.4254 6.94477 11.7805C6.70316 12.1356 6.26134 12.6683 5.9645 12.9688C5.66075 13.2624 5.21893 13.6585 4.97041 13.8361C4.72189 14.0205 4.22485 14.321 3.86588 14.5054C3.5069 14.6898 2.93392 14.9356 2.58876 15.0449C2.24359 15.161 1.643 15.2976 1.2426 15.359C0.842209 15.4205 0.400394 15.4683 0 15.4683V13.3512L0.462525 13.3103C0.724852 13.2898 1.13215 13.2283 1.38067 13.1737C1.62919 13.119 2.00197 13.0098 2.20907 12.9346C2.41617 12.8595 2.77515 12.6956 3.00296 12.5659C3.23077 12.4429 3.52761 12.2585 3.65878 12.1561C3.78994 12.0605 4.1144 11.7737 4.36982 11.521C4.63215 11.2683 4.99112 10.8449 5.17061 10.5854C5.3501 10.3259 5.59862 9.86147 5.72288 9.56099C5.85404 9.2605 6.01282 8.73465 6.08185 8.40001Z" fill="#9DE1F7"/>
<path d="M0 23.7317V22.639V21.5463H5.46745C8.47732 21.5463 11.2939 21.5668 12.4951 21.6488V23.6293L11.7219 23.6771C11.2939 23.7112 8.47732 23.7317 0 23.7317Z" fill="#16A18C"/>
<path d="M8.62891 3.96099L10.5411 2.06928C11.5973 1.0244 12.4672 0.170746 12.4741 0.170746C12.4879 0.170746 12.4948 4.99904 12.4948 21.6146H11.4593V12.9073C11.4593 7.40294 11.4317 4.20001 11.3902 4.20001C11.3557 4.20001 11.052 4.48001 10.1131 5.42928L8.62891 3.96099Z" fill="#192B80"/>
<path d="M11.4593 35V29.3317V23.6634H12.4948V35H11.4593Z" fill="#192B80"/>
<path d="M28.1306 12.8049L28.8554 12.0878C29.2489 11.6917 29.6079 11.3707 29.6493 11.3707C29.6838 11.3707 30.0083 11.6576 30.9955 12.6341L31.6375 12.0058C31.9896 11.6576 32.3071 11.3707 32.3485 11.3707C32.3831 11.3707 32.7282 11.6849 33.1148 12.0673C33.5083 12.4566 33.8259 12.798 33.8259 12.839C33.8259 12.88 33.5359 13.1941 32.5487 14.1707L33.2874 14.9083C33.7016 15.3112 34.033 15.6663 34.033 15.7073C34.033 15.7483 33.7085 16.0966 32.5833 17.2098L31.03 15.6732L30.2706 16.4244C29.8495 16.841 29.4836 17.1756 29.4422 17.1756C29.4008 17.1756 29.0556 16.8615 28.6691 16.479C28.2756 16.0898 27.958 15.7483 27.958 15.7073C27.958 15.6663 28.2963 15.3044 29.4767 14.1366L28.1306 12.8049Z" fill="#16A18C"/>
</svg>
