<svg width="35" height="35" viewBox="0 0 35 35" fill="none" xmlns="http://www.w3.org/2000/svg">
<path d="M17.5 17.5V8.75V0H35V17.5H17.5V35H0V17.5H17.5Z" fill="#B7EBE3"/>
<path d="M0 17.5V8.75V0H17.5V17.5H35V35H17.5V17.5H0Z" fill="#E8FCF9"/>
<path d="M7.65625 7.65625V5.81055V3.96484H9.84375V7.65625H13.5352V9.84375H9.84375V13.5352H7.65625V9.84375H3.96484V7.65625H7.65625Z" fill="#16A18C"/>
<path d="M21.4648 9.84375V8.75V7.65625H31.0352V9.84375H21.4648Z" fill="#16A18C"/>
<path d="M4.58008 23.6182L5.3457 22.8525L6.11816 22.0801L8.75 24.7119L11.3818 22.0801L12.9199 23.6182L10.2881 26.25L12.9199 28.8818L11.3818 30.4199L8.75 27.7881L6.11816 30.4199L4.58008 28.8818L7.21191 26.25L4.58008 23.6182Z" fill="#16A18C"/>
<path d="M21.458 25.5732V24.4795V23.3857H31.0283V25.5732H21.458Z" fill="#16A18C"/>
<path d="M21.458 29.1279V28.0342V26.9404H31.0283V29.1279H21.458Z" fill="#16A18C"/>
</svg>
