<svg width="35" height="35" viewBox="0 0 35 35" fill="none" xmlns="http://www.w3.org/2000/svg">
<path d="M18.6391 16.8478C19.0484 16.6634 19.5124 16.4449 19.6829 16.3561C19.8535 16.2673 19.9968 16.1922 20.0036 16.1854C20.0172 16.1854 20.0241 19.2722 20.0241 29.9122H17.9091V17.1756L18.6391 16.8478Z" fill="#B5F0E7"/>
<path d="M13.2356 18.6098C13.4948 18.5551 13.8632 18.4663 14.0543 18.4117C14.2385 18.3571 14.4636 18.3093 14.7024 18.3024V29.9122H9.34668L9.38079 19.1561L10.2132 19.0741C10.6771 19.0263 11.373 18.9376 11.7687 18.8761C12.1644 18.8146 12.5465 18.7532 12.6215 18.7395C12.6966 18.719 12.9763 18.6644 13.2356 18.6098Z" fill="#B5F0E7"/>
<path d="M15.6376 17.9746C16.1561 17.8107 16.8384 17.5717 17.159 17.4488C17.4797 17.319 17.7799 17.2166 17.8208 17.2166C17.8891 17.2097 17.9095 18.521 17.9095 29.9122H14.7029V18.2683L15.6376 17.9746Z" fill="#1CCEB3"/>
<path d="M5.08301 29.9122V24.5512V19.1902H7.19802C9.01965 19.1902 9.31985 19.2039 9.34714 19.2927C9.36761 19.3473 9.38125 21.7171 9.38125 24.5512C9.38125 27.3854 9.36761 29.7551 9.34714 29.8098C9.31985 29.8985 9.01965 29.9122 5.08301 29.9122Z" fill="#1CCEB3"/>
<path d="M0 3.96098L1.97856 1.98049C3.06335 0.894634 3.97076 0 3.99123 0C4.0117 0 4.91228 0.887805 7.98246 3.96098L6.44737 5.49756L5.08285 4.13171V29.9122H17.9094L17.9435 32.0976L2.93372 32.0634L2.89961 4.13171L1.53509 5.49756L0 3.96098Z" fill="#2C3136"/>
<path d="M28.0885 6.39902C28.416 5.94146 28.9345 5.14244 29.2415 4.63024L29.801 3.68781L30.6606 4.14537C31.1314 4.39122 31.5612 4.63024 31.609 4.67122C31.6567 4.7122 31.6977 4.76 31.6977 4.78049C31.6977 4.80098 31.4316 5.25854 31.1041 5.80488C30.7766 6.35122 30.2718 7.13659 29.9852 7.54634C29.6918 7.9561 29.2347 8.57073 28.9618 8.9122C28.6957 9.24683 28.109 9.92293 27.6655 10.4146C27.222 10.9063 26.7103 11.4254 26.533 11.5756C26.3556 11.7259 26.0076 12.0263 25.762 12.2517C25.5164 12.4702 24.9911 12.9141 24.5953 13.2283C24.1996 13.5424 23.3536 14.1502 22.7191 14.5805C22.0778 15.0039 21.1295 15.5912 20.6041 15.8712C20.0788 16.158 19.2737 16.561 18.8098 16.7659C18.3526 16.9707 17.9638 17.1415 17.9433 17.1415C17.9228 17.1415 17.9092 16.602 17.9092 14.7512L18.2981 14.601C18.5164 14.5122 19.1372 14.198 19.6831 13.8976C20.2289 13.5902 21.0066 13.119 21.4228 12.839C21.8322 12.5659 22.4189 12.1561 22.7191 11.9307C23.0193 11.7054 23.5719 11.2546 23.9472 10.9337C24.3224 10.6195 24.9979 9.98439 25.4482 9.52683C25.8985 9.0761 26.5398 8.37268 26.8809 7.96976C27.2152 7.56 27.761 6.85659 28.0885 6.39902Z" fill="#16A18C"/>
<path d="M24.5956 13.2283C24.9913 12.9073 25.5576 12.4293 25.8577 12.1629C26.1511 11.8966 26.424 11.678 26.4513 11.678C26.4786 11.678 26.5059 15.7824 26.5059 29.9122H20.0244V16.1854L20.8568 15.7278C21.3207 15.4751 22.1872 14.9424 22.7876 14.5395C23.388 14.1297 24.1999 13.5424 24.5956 13.2283Z" fill="#B5F0E7"/>
<path d="M15.4875 15.7278C16.0128 15.5571 16.7497 15.2839 17.1249 15.12C17.5002 14.9629 17.8276 14.8264 17.8549 14.8264C17.8891 14.8195 17.9095 15.3522 17.9095 17.1756L17.1386 17.4556C16.7224 17.6127 15.9787 17.8654 15.4875 18.0156C14.9963 18.1727 14.5119 18.3093 14.3959 18.3298C14.2799 18.3503 13.8705 18.4459 13.4748 18.5415C13.0791 18.6303 12.39 18.7737 11.9397 18.8488C11.4894 18.9239 10.6707 19.0264 10.1181 19.0878C9.4563 19.1561 8.40562 19.1903 5.08301 19.1903V17.1073L7.10932 17.0595C8.22823 17.0254 9.58593 16.9571 10.1317 16.8956C10.6775 16.841 11.5372 16.7181 12.0421 16.6225C12.5469 16.5268 13.3179 16.3629 13.7477 16.2537C14.1775 16.1376 14.9622 15.9054 15.4875 15.7278Z" fill="#0ECAAE"/>
<path d="M29.4735 28.5464L30.224 27.7951C30.6334 27.3785 30.9881 27.0439 31.0086 27.0439C31.0291 27.0439 31.9365 27.9317 34.9998 31.0049L31.0086 35L29.4735 33.4634L30.8039 32.0976L17.9433 32.0634L17.9092 29.9122H30.838L29.4735 28.5464Z" fill="#111213"/>
</svg>
