<svg width="35" height="23" viewBox="0 0 35 23" fill="none" xmlns="http://www.w3.org/2000/svg">
<path fill-rule="evenodd" clip-rule="evenodd" d="M17.5208 2.03528L17.7127 2.16542C17.8154 2.23392 18.158 2.49421 18.4732 2.7408C18.7816 2.98739 19.2818 3.45318 19.5764 3.76827C19.8642 4.08336 20.3027 4.62449 20.5494 4.96012C20.7892 5.30261 21.1592 5.89854 21.3579 6.29583C21.5635 6.69311 21.8444 7.31644 21.9814 7.68633C22.1185 8.04936 22.2281 8.36445 22.2281 8.385C22.2281 8.40555 21.1661 8.41925 17.5002 8.41925V10.4742H22.6392V12.5291H17.5002V14.6525L22.2144 14.6868L22.0226 15.2348C21.9198 15.5361 21.7211 16.0293 21.584 16.3307C21.447 16.6321 21.1866 17.1116 21.0085 17.3924C20.8372 17.6733 20.522 18.1391 20.3096 18.4199C20.0971 18.7007 19.6586 19.1939 19.3434 19.5159C19.0282 19.8378 18.4869 20.3104 17.5345 21.0228L17.5002 14.6525H12.7724L12.7038 14.3991C12.6696 14.2552 12.6079 13.9881 12.5668 13.7963C12.5257 13.6114 12.4709 13.2483 12.3955 12.5291H17.5002V10.4742H12.3955L12.4435 10.0495C12.4709 9.80975 12.5257 9.46726 12.5668 9.27547C12.6079 9.09053 12.6696 8.81654 12.7724 8.41925H17.5002L17.5208 2.03528Z" fill="#3377FF"/>
<path d="M17.5 10.4742V9.44671V8.41925H22.2279L22.2964 8.67269C22.3307 8.81654 22.3923 9.08368 22.4334 9.27547C22.4677 9.46041 22.5225 9.80975 22.6047 10.4742H17.5Z" fill="#6594F1"/>
<path d="M17.5 14.6525V13.5908V12.5291H22.6047L22.5568 12.9949C22.5294 13.2483 22.4677 13.6114 22.4266 13.7963C22.3855 13.9813 22.3238 14.2552 22.2279 14.6525H17.5Z" fill="#6594F1"/>
<path d="M21.3029 0.41188C21.6797 0.329683 22.2484 0.233786 22.5705 0.206387C22.8925 0.172139 23.3379 0.14474 23.564 0.13789C23.7901 0.13104 24.2972 0.158439 24.6946 0.199538C25.092 0.240636 25.6607 0.322833 25.9622 0.377631C26.2637 0.439279 26.8324 0.596823 27.2298 0.726969C27.6272 0.850264 28.2439 1.09686 28.6002 1.2681C28.9565 1.43934 29.5869 1.80238 30.0049 2.07637C30.4229 2.35721 31.0669 2.87094 31.437 3.22028C31.807 3.57647 32.2935 4.08335 32.5059 4.34364C32.7183 4.61078 33.0609 5.06971 33.2596 5.3711C33.4514 5.67249 33.7461 6.19992 33.9105 6.53556C34.075 6.8712 34.3216 7.47398 34.4587 7.87126C34.5957 8.26855 34.7739 8.89873 34.8561 9.27546C34.9794 9.87139 35 10.1728 35 11.5359C35 12.9058 34.9794 13.2004 34.8424 13.7963C34.7602 14.173 34.5889 14.7895 34.4655 15.1663C34.3353 15.543 34.075 16.1732 33.8763 16.5705C33.6776 16.9677 33.3624 17.5226 33.1705 17.8034C32.9855 18.0843 32.6909 18.4884 32.5196 18.6939C32.3483 18.8994 32.0536 19.235 31.8618 19.4337C31.6699 19.6391 31.2794 19.9953 30.9984 20.2282C30.7175 20.468 30.2516 20.8173 29.9706 21.0022C29.6897 21.194 29.1347 21.5091 28.7373 21.7078C28.3399 21.9064 27.7095 22.1667 27.3326 22.2969C26.9558 22.4201 26.3391 22.5914 25.9622 22.6736C25.462 22.7832 24.9413 22.8311 24.0437 22.8517C23.1255 22.8791 22.6184 22.8585 22.0566 22.7763C21.6386 22.7215 20.9945 22.5777 20.6177 22.4749C20.2408 22.3653 19.6515 22.1599 19.3158 22.0229C18.98 21.879 18.4867 21.6461 18.2195 21.5023C17.9522 21.3516 17.685 21.194 17.6165 21.1461C17.5 21.0639 17.548 21.0159 18.1304 20.5776C18.4798 20.3173 19.028 19.8378 19.3432 19.5159C19.6584 19.1939 20.0969 18.7007 20.3093 18.4199C20.5217 18.139 20.8369 17.6733 21.0151 17.3924C21.1864 17.1116 21.4536 16.6184 21.5975 16.2965C21.7482 15.9745 21.9675 15.4197 22.084 15.0635C22.2005 14.7073 22.3649 14.1045 22.4471 13.7278C22.5773 13.1387 22.5979 12.8305 22.5979 11.5359C22.5979 10.2207 22.5842 9.93989 22.4471 9.30971C22.3581 8.91243 22.1936 8.30965 22.084 7.97401C21.9744 7.63837 21.6797 6.9534 21.4399 6.46706C21.1932 5.98073 20.789 5.28206 20.5354 4.92587C20.2751 4.56968 19.7338 3.9395 19.3158 3.52167C18.8978 3.10383 18.3222 2.59695 18.0345 2.39146C17.7124 2.15857 17.5274 1.98732 17.5617 1.94623C17.5959 1.90513 17.9865 1.68593 18.4319 1.45304C18.8841 1.22015 19.5556 0.925612 19.9325 0.795466C20.3093 0.665321 20.926 0.494077 21.3029 0.41188Z" fill="#BDF9F0"/>
<path fill-rule="evenodd" clip-rule="evenodd" d="M17.5 2C17.5137 2 17.5003 3.48055 17.5003 8.41922H12.7724L12.8136 8.26853C12.8341 8.17948 12.978 7.80274 13.1219 7.42601C13.2726 7.04927 13.533 6.47389 13.718 6.13826C13.8962 5.80947 14.2388 5.25464 14.4854 4.91215C14.7321 4.56281 15.2392 3.96688 15.616 3.58329C15.9929 3.20656 16.5616 2.69968 16.8768 2.47363C17.1851 2.24074 17.4863 2 17.5 2ZM12.3613 10.4741H17.5003V12.5291H12.3613V10.4741ZM12.793 14.6525H17.5003V21.0228L17.1714 20.8036C16.9933 20.6803 16.6644 20.4268 16.4383 20.2419C16.2121 20.057 15.8147 19.6871 15.5544 19.4199C15.294 19.1528 14.9103 18.7007 14.691 18.4199C14.4786 18.139 14.1771 17.7075 14.0264 17.4609C13.8756 17.2143 13.6495 16.817 13.5262 16.5704C13.4028 16.3238 13.2247 15.9266 13.1356 15.68C13.0397 15.4334 12.9232 15.1046 12.8752 14.947L12.793 14.6525Z" fill="#6DECD8"/>
<path d="M9.03778 0.37762C9.33926 0.315972 9.84631 0.240625 10.1684 0.206376C10.4904 0.178977 10.9358 0.144728 11.1619 0.137878C11.388 0.137878 11.9088 0.165277 12.3267 0.199526C12.7447 0.240625 13.3751 0.336521 13.7314 0.418718C14.0877 0.494066 14.6907 0.66531 15.0675 0.795455C15.4444 0.9256 16.1159 1.22014 16.5681 1.45303C17.0135 1.68592 17.4041 1.90512 17.4383 1.94621C17.4726 1.98731 17.2944 2.15856 16.9655 2.39145C16.6777 2.59694 16.1022 3.10382 15.6842 3.52166C15.2731 3.93949 14.7249 4.56967 14.4646 4.92586C14.211 5.28205 13.8068 5.98072 13.5601 6.46705C13.3203 6.95339 13.0256 7.63836 12.916 7.974C12.8064 8.30964 12.6419 8.91242 12.5528 9.3097C12.4158 9.93988 12.4021 10.2207 12.4021 11.5359C12.4021 12.8236 12.4227 13.1456 12.5528 13.7278C12.6351 14.1045 12.7927 14.7073 12.916 15.0635C13.0325 15.4197 13.2586 15.9951 13.4162 16.3307C13.5806 16.6663 13.841 17.1595 14.0055 17.4267C14.1631 17.6938 14.4851 18.1527 14.7181 18.4541C14.951 18.7555 15.3827 19.2487 15.6842 19.5501C15.9857 19.8515 16.5202 20.3104 17.5068 21.057L17.3492 21.1735C17.2602 21.242 16.8216 21.4749 16.3694 21.7009C15.9172 21.927 15.2525 22.2009 14.8962 22.3242C14.5399 22.4407 13.9369 22.5982 13.5601 22.6804C12.964 22.8174 12.6693 22.8311 11.2989 22.8311C9.92168 22.8311 9.6339 22.8106 9.03778 22.6804C8.66092 22.5914 8.04424 22.4201 7.66738 22.2968C7.29052 22.1667 6.66014 21.9064 6.26272 21.7078C5.8653 21.5091 5.31029 21.194 5.02936 21.0022C4.74843 20.8173 4.28249 20.468 4.00156 20.2282C3.72063 19.9953 3.33007 19.6391 3.13821 19.4336C2.94636 19.235 2.65172 18.8994 2.48042 18.6939C2.30912 18.4884 2.01449 18.0842 1.82948 17.8034C1.63763 17.5226 1.32243 16.9677 1.12373 16.5704C0.925019 16.1732 0.664643 15.543 0.534455 15.1662C0.41112 14.7895 0.23982 14.173 0.150744 13.7963C0.020556 13.2004 0 12.9127 0 11.5359C0 10.1659 0.020556 9.87138 0.143892 9.27545C0.226116 8.89872 0.37686 8.34389 0.479639 8.0425C0.582419 7.74111 0.774275 7.23423 0.911315 6.91229C1.04835 6.59035 1.30873 6.08347 1.48688 5.78208C1.66503 5.48069 1.97337 5.0149 2.16523 4.75461C2.35708 4.49432 2.89154 3.90524 3.34377 3.44631C3.93989 2.85723 4.39898 2.47365 4.96084 2.09691C5.39252 1.80922 6.04346 1.43933 6.39976 1.26809C6.75606 1.09684 7.37274 0.850253 7.77016 0.726957C8.16757 0.596812 8.73629 0.439268 9.03778 0.37762Z" fill="#BDF9F0"/>
</svg>
