<svg width="35" height="35" viewBox="0 0 35 35" fill="none" xmlns="http://www.w3.org/2000/svg">
<path d="M4.375 5.74219V4.68262V3.62305H7.65625L7.55371 3.94434C7.49902 4.12891 7.45117 4.45703 7.45117 4.68262C7.45117 4.9082 7.49902 5.23633 7.65625 5.74219H4.375Z" fill="#F1F6F7"/>
<path d="M13.0019 4.27246C12.9609 4.04687 12.9062 3.80762 12.8789 3.73926V3.74609C12.831 3.62988 12.9062 3.62305 13.8633 3.62305C14.8203 3.62305 14.9023 3.62988 14.8613 3.74609C14.8408 3.80762 14.7861 4.04687 14.7451 4.27246C14.6904 4.57324 14.6904 4.79199 14.7451 5.09277C14.7861 5.31836 14.8408 5.55762 14.8613 5.62598C14.9023 5.73535 14.8203 5.74219 13.8769 5.74219C12.9336 5.74219 12.8516 5.73535 12.8857 5.62598C12.9062 5.55762 12.9609 5.31836 13.0019 5.09277C13.0566 4.79883 13.0566 4.56641 13.0019 4.27246Z" fill="#F1F6F7"/>
<path d="M4.375 15.1006V14.041V12.9814H7.82715C11.0879 12.9814 11.2793 12.9883 11.2383 13.1045C11.2178 13.166 11.1631 13.4053 11.1221 13.6309C11.0674 13.9316 11.0674 14.1504 11.1221 14.4512C11.1631 14.6768 11.2178 14.916 11.2383 14.9844C11.2793 15.0937 11.0879 15.1006 4.375 15.1006Z" fill="#F1F6F7"/>
<path d="M16.6182 13.5283C16.5908 13.3984 16.543 13.2207 16.5156 13.1387C16.4609 12.9814 16.4746 12.9814 17.5342 12.9814V15.1006H16.5088L16.5976 14.7383C16.6387 14.5469 16.6797 14.2461 16.6797 14.0752C16.6797 13.9043 16.6523 13.6582 16.6182 13.5283Z" fill="#F1F6F7"/>
<path d="M4.375 24.7392V23.7139V22.6885H17.6709L17.582 23.0508C17.541 23.2422 17.5 23.543 17.5 23.7139C17.5 23.8848 17.541 24.1855 17.6709 24.7392H4.375Z" fill="#F1F6F7"/>
<path d="M20.2546 4.27246C20.2136 4.04687 20.1521 3.80762 20.1247 3.74609C20.0769 3.62988 20.3503 3.62305 30.6247 3.62305V5.74219H25.3611C20.3777 5.74219 20.0974 5.73535 20.1384 5.62597C20.1589 5.55762 20.2136 5.31836 20.2546 5.09277C20.3093 4.79199 20.3093 4.57324 20.2546 4.27246Z" fill="#DCEAEC"/>
<path d="M17.5203 14.1162C17.5134 13.5967 17.5203 13.125 17.5339 13.0771C17.5613 13.0088 18.0261 12.9883 22.0115 12.9883L21.9705 13.1797C21.9499 13.2822 21.9021 13.5351 21.8679 13.7402C21.8337 13.9658 21.8337 14.2666 21.8679 14.4922C21.9021 14.6973 21.9499 14.9228 21.9705 14.9912C22.0115 15.1006 21.8816 15.1074 17.5339 15.0732L17.5203 14.1162Z" fill="#DCEAEC"/>
<path d="M27.3777 14.082C27.3777 13.7607 27.3503 13.3984 27.323 13.2822L27.2615 13.0566H30.6247V15.1758H27.2751L27.3298 14.9228C27.3572 14.7793 27.3777 14.4033 27.3777 14.082Z" fill="#DCEAEC"/>
<path d="M23.1121 23.7275C23.1121 23.5566 23.071 23.2558 23.0163 23.0576L22.9275 22.7021H30.6316V24.7529L22.9412 24.7461L23.0232 24.3906C23.071 24.1924 23.1121 23.8916 23.1121 23.7275Z" fill="#DCEAEC"/>
<path d="M17.4867 4.69629C17.4798 3.17871 17.5003 1.91406 17.5345 1.89355C17.5687 1.86621 17.6371 1.8457 17.6986 1.8457C17.7601 1.8457 17.9447 1.87988 18.1156 1.9209C18.2865 1.96191 18.5736 2.07129 18.765 2.16016C18.9496 2.24902 19.2435 2.4541 19.4076 2.61816C19.5716 2.77539 19.7835 3.01465 19.8724 3.14453C19.9613 3.27441 20.0912 3.61621 20.1663 3.89648C20.2415 4.17676 20.3031 4.53222 20.3031 4.68262C20.3031 4.83301 20.2484 5.1748 20.18 5.43457C20.1117 5.69433 19.9954 6.02246 19.9134 6.15234C19.8314 6.28222 19.6195 6.53515 19.4349 6.70605C19.2572 6.87695 18.9564 7.0957 18.765 7.1914C18.5804 7.28711 18.2454 7.40332 18.0335 7.44433C17.8148 7.48535 17.6097 7.50586 17.5687 7.48535C17.5277 7.46484 17.4935 6.45312 17.4867 4.69629Z" fill="#3377FF"/>
<path d="M23.2494 11.6621C23.4544 11.5527 23.7552 11.4228 23.9261 11.3682C24.097 11.3203 24.4593 11.293 24.7464 11.3066C25.0745 11.3203 25.4095 11.3887 25.6693 11.4912C25.8949 11.5801 26.223 11.7646 26.4007 11.9082C26.5853 12.0518 26.8382 12.332 26.9681 12.5303C27.098 12.7217 27.2552 13.0566 27.3099 13.2617C27.3646 13.4668 27.4124 13.8359 27.4124 14.082C27.4124 14.3281 27.3714 14.6836 27.3167 14.8682C27.2689 15.0596 27.1595 15.3467 27.0706 15.5176C26.9818 15.6885 26.7699 15.9619 26.5921 16.1328C26.4212 16.3037 26.1068 16.5224 25.9017 16.625C25.6966 16.7275 25.3206 16.8437 25.054 16.8916C24.6507 16.9599 24.4935 16.9531 24.0628 16.8574C23.721 16.7891 23.4134 16.666 23.14 16.4883C22.9144 16.3447 22.6204 16.0918 22.4837 15.9209C22.347 15.7568 22.1966 15.5449 22.1488 15.4492C22.1009 15.3535 22.0326 15.1894 21.9984 15.0732C21.9642 14.9639 21.9095 14.6973 21.8753 14.4922C21.8343 14.2461 21.8343 13.959 21.8822 13.6719C21.9163 13.4258 22.0257 13.0635 22.1214 12.8721C22.2103 12.6738 22.4222 12.3662 22.5863 12.1885C22.7503 12.0039 23.0511 11.7715 23.2494 11.6621Z" fill="#3377FF"/>
<path d="M0 30.6933V15.3467V0H4.375V30.6933H0Z" fill="#0FA8DC"/>
<path d="M18.7305 21.376C18.9014 21.2598 19.1885 21.1094 19.3799 21.041C19.5918 20.9658 19.9267 20.9248 20.2685 20.918C20.6445 20.918 20.9453 20.959 21.2256 21.0547C21.4512 21.1299 21.7861 21.3076 21.9775 21.4512C22.1621 21.5879 22.4287 21.8613 22.5722 22.0459C22.7158 22.2373 22.8799 22.5586 22.9414 22.7637C23.0029 22.9687 23.0713 23.3105 23.0918 23.5156C23.1123 23.7549 23.0849 24.0762 23.0097 24.4043C22.9414 24.6914 22.791 25.0605 22.6748 25.2519C22.5517 25.4365 22.3193 25.7099 22.1484 25.8535C21.9775 26.0039 21.6699 26.2021 21.4648 26.3047C21.123 26.4756 21.0137 26.4892 20.3027 26.4892C19.5849 26.4892 19.4824 26.4756 19.1406 26.3047C18.9355 26.2021 18.6279 26.0039 18.4639 25.8603C18.2998 25.7168 18.0674 25.4638 17.9512 25.2929C17.8418 25.1221 17.6914 24.7734 17.623 24.5068C17.5547 24.2402 17.5 23.8916 17.5 23.7207C17.5 23.5498 17.5547 23.2012 17.623 22.9346C17.6914 22.668 17.8213 22.3467 17.9101 22.2168C17.999 22.0869 18.1494 21.8887 18.2451 21.7861C18.3408 21.6767 18.5596 21.4922 18.7305 21.376Z" fill="#0FA8DC"/>
<path d="M30.625 30.6933V15.3467V0H35V30.6933H30.625Z" fill="#0D90BC"/>
<path d="M8.85254 2.21482C9.00293 2.12596 9.29687 2.00975 9.50195 1.95506C9.70703 1.90037 10.0283 1.85252 10.2197 1.85252C10.4043 1.84568 10.7461 1.89353 10.9717 1.95506C11.1973 2.00975 11.4912 2.12596 11.6279 2.20799C11.7646 2.29002 11.9629 2.43357 12.0723 2.52928C12.1885 2.62498 12.3867 2.83689 12.5166 3.00779C12.6465 3.17869 12.8105 3.48631 12.8721 3.69138C12.9336 3.89646 13.0019 4.21775 13.0293 4.40916C13.0612 4.63702 13.0361 4.93325 12.9541 5.29783C12.8926 5.59861 12.7695 5.96775 12.6807 6.11814C12.5986 6.26853 12.373 6.53513 12.1953 6.70603C12.0107 6.87693 11.71 7.09568 11.5186 7.19138C11.334 7.28709 10.9922 7.4033 10.7666 7.45115C10.5137 7.499 10.1992 7.51951 9.94629 7.48533C9.7207 7.45798 9.38574 7.38279 9.19433 7.30759C9.00976 7.2324 8.70215 7.05466 8.51074 6.91795C8.32617 6.77439 8.06641 6.50095 7.94336 6.31638C7.82031 6.13181 7.65625 5.78318 7.58105 5.53709C7.50586 5.29099 7.45117 4.90818 7.45117 4.6826C7.45117 4.45701 7.50586 4.0742 7.57422 3.8281C7.64258 3.58201 7.79297 3.24705 7.90918 3.07615C8.01855 2.90525 8.2168 2.67967 8.34668 2.57029C8.47656 2.46092 8.70215 2.30369 8.85254 2.21482Z" fill="#6FBE6B"/>
<path d="M16.0645 2.23535C16.2354 2.13965 16.543 2.00977 16.748 1.95508C16.9531 1.90039 17.2129 1.85254 17.5342 1.8457V4.68262C17.5342 7.34179 17.5273 7.51953 17.4111 7.51953C17.3496 7.51953 17.1309 7.48535 16.9395 7.44433C16.7412 7.40332 16.4062 7.28027 16.2012 7.17773C15.9961 7.07519 15.7021 6.87011 15.5586 6.72656C15.4082 6.57617 15.2168 6.35058 15.1279 6.2207C15.0391 6.09082 14.9092 5.74902 14.834 5.46875C14.7588 5.18847 14.6973 4.83301 14.6973 4.68262C14.6973 4.53222 14.7451 4.21094 14.8066 3.96484C14.8682 3.71875 14.9775 3.4043 15.0459 3.26074C15.1211 3.12402 15.3057 2.87793 15.4629 2.71387C15.627 2.5498 15.8936 2.33789 16.0645 2.23535Z" fill="#97BAFF"/>
<path d="M12.6807 11.5117C12.8652 11.4229 13.1934 11.3271 13.3984 11.293C13.6035 11.252 13.8018 11.2246 13.8428 11.2178C13.8838 11.2178 14.0957 11.2451 14.3213 11.2793C14.5469 11.3203 14.8955 11.4229 15.0869 11.5186C15.2852 11.6143 15.6064 11.833 15.7978 12.0176C15.9893 12.1953 16.208 12.4482 16.29 12.5781C16.3721 12.708 16.4883 13.0361 16.5566 13.2959C16.625 13.5625 16.6797 13.9111 16.6797 14.082C16.6797 14.2529 16.625 14.6084 16.5566 14.8682C16.4883 15.1348 16.3379 15.4834 16.2217 15.6543C16.1123 15.8252 15.8936 16.0645 15.75 16.1943C15.6064 16.3242 15.2852 16.5225 15.0391 16.6387C14.6289 16.8301 14.5332 16.8506 13.877 16.8506C13.207 16.8506 13.125 16.8369 12.6943 16.6318C12.4414 16.5088 12.0859 16.2627 11.9082 16.085C11.7236 15.9004 11.5117 15.6338 11.4365 15.4834C11.3613 15.333 11.2451 15.0117 11.1836 14.7656C11.1221 14.5195 11.0742 14.1982 11.0742 14.0478C11.0742 13.8975 11.1289 13.5625 11.1973 13.2959C11.2656 13.0361 11.416 12.6807 11.5254 12.5098C11.6416 12.3389 11.874 12.0859 12.0381 11.9355C12.2021 11.792 12.4893 11.6006 12.6807 11.5117Z" fill="#6FBE6B"/>
<path d="M0 35V32.8467V30.6934H17.5342L17.5 35H0Z" fill="#3F4A4A"/>
<path d="M17.4867 32.8945C17.4798 31.7324 17.5003 30.7617 17.5345 30.7412C17.5687 30.7139 21.5062 30.6934 35.0003 30.6934V35H17.5003L17.4867 32.8945Z" fill="#1C2828"/>
</svg>
