<svg width="35" height="35" viewBox="0 0 35 35" fill="none" xmlns="http://www.w3.org/2000/svg">
<path d="M26.8673 6.59668L28.9997 4.46387C30.1752 3.28809 31.1526 2.32422 31.1731 2.32422C31.1936 2.32422 31.3713 2.48145 31.9249 3.04199L27.6191 7.34863L26.8673 6.59668Z" fill="#16A18C"/>
<path d="M8.24296 25.3135L16.7862 16.7275C21.4816 11.9971 25.3568 8.13477 25.3978 8.13477C25.432 8.13477 25.6234 8.28516 26.1496 8.81836L17.2988 17.6846C12.4326 22.5654 8.40699 26.5781 8.36598 26.6055C8.31814 26.6396 8.2908 26.6875 8.3113 26.7285C8.33181 26.7695 8.3113 26.7969 8.27713 26.7969C8.23612 26.7969 8.21562 26.5166 8.24296 25.3135Z" fill="#16A18C"/>
<path d="M11.3527 35V32.4365V29.873H13.4031V35H11.3527Z" fill="#16A18C"/>
<path d="M19.5542 35V32.4365V29.873H21.6046V35H19.5542Z" fill="#16A18C"/>
<path d="M27.8241 35V32.4365V29.873H29.8745V35H27.8241Z" fill="#16A18C"/>
<path d="M7.18359 35V32.9492V30.8984H9.30232V35H7.18359Z" fill="#16A18C"/>
<path d="M15.4535 35V32.9492V30.8984H17.5039V35H15.4535Z" fill="#16A18C"/>
<path d="M23.655 35V32.9492V30.8984H25.7054V35H23.655Z" fill="#16A18C"/>
<path d="M8.21521 26.8037L8.91234 26.7832C9.29507 26.7695 15.3232 26.7559 35 26.7285V35H29.8741V29.873H27.8237V35H25.705V30.8984H23.6546V35H21.6042V29.873H19.5538V35H17.5034V30.8984H15.4531V35H13.4027V29.873H11.3523V35H9.30191V30.8984H7.18318V35H0.0341797L8.21521 26.8037Z" fill="#BDF9F0"/>
<path d="M27.7003 7.34863C27.7072 7.30762 28.6572 6.33008 29.8054 5.1748C30.9536 4.01953 31.9173 3.07617 31.9515 3.07617C31.9788 3.07617 32.1633 3.24707 32.7101 3.82812L28.4043 8.13477L28.0421 7.77246C27.8439 7.58105 27.6935 7.38281 27.7003 7.34863Z" fill="#1A1D24"/>
<path d="M8.33106 26.7148C8.32423 26.6738 12.3293 22.627 17.2297 17.7256L26.1421 8.81836L26.5043 9.17383C26.7025 9.37207 26.8665 9.56348 26.8665 9.60449C26.8665 9.64551 23.005 13.5146 9.69115 26.7627L9.01452 26.7764C8.54977 26.79 8.3379 26.7695 8.33106 26.7148Z" fill="#1A1D24"/>
<path d="M0.00683461 5.12695V2.56348V0H8.25621L8.18786 26.7627L7.66159 27.3438C7.36771 27.665 5.61121 29.4355 3.7522 31.2744C1.90002 33.1133 0.293888 34.6992 0 34.9658L0.00683461 27.8223H4.1076V25.7031H0.00683461V23.6523H5.13279V21.6016H0.00683461V19.5508H4.1076V17.5H0.00683461V15.4492H5.13279V13.3984H0.00683461V11.3477H4.1076V9.29688H0.00683461V7.17773H5.13279V5.12695H0.00683461Z" fill="#BDF9F0"/>
<path d="M0.00683594 7.17773V6.15234V5.12695H5.13279V7.17773H0.00683594Z" fill="#16A18C"/>
<path d="M0.00683594 11.3477V10.3223V9.29688H4.1076V11.3477H0.00683594Z" fill="#16A18C"/>
<path d="M0.00683594 15.4492V14.4238V13.3984H5.13279V15.4492H0.00683594Z" fill="#16A18C"/>
<path d="M0.00683594 19.5508V18.5254V17.5H4.1076V19.5508H0.00683594Z" fill="#16A18C"/>
<path d="M0.00683594 23.6523V22.627V21.6016H5.13279V23.6523H0.00683594Z" fill="#16A18C"/>
<path d="M0.00683594 27.8223V26.7627V25.7031H4.1076V27.8223H0.00683594Z" fill="#16A18C"/>
<path d="M14.4893 3.52051L16.2184 1.79785C17.1684 0.847656 17.9612 0.0683594 17.9817 0.0683594C18.0022 0.0683594 18.3371 0.389648 19.4512 1.50391L18.8702 2.08496C18.3235 2.625 18.303 2.65918 18.4602 2.69336C18.5558 2.70703 18.9659 2.78906 19.3828 2.87109C19.7997 2.95312 20.6131 3.17871 21.194 3.37012C21.8501 3.58203 22.6566 3.91699 23.3127 4.24512C23.8937 4.53906 24.6797 4.9834 25.0556 5.23633C25.4315 5.48926 25.9987 5.89941 26.32 6.15918C26.6412 6.41211 27.0581 6.78125 27.6117 7.34863L26.1491 8.8252L25.8074 8.49023C25.6228 8.30566 25.2538 7.98438 24.9872 7.7793C24.7207 7.56738 24.2149 7.20508 23.8595 6.97266C23.5041 6.74023 22.8548 6.37109 22.4242 6.15234C21.9937 5.93359 21.3307 5.64648 20.9548 5.50293C20.5789 5.36621 19.9023 5.16113 19.4512 5.04492C19.0001 4.93555 18.6105 4.85352 18.5764 4.86719C18.549 4.88086 18.7404 5.13379 19.0069 5.43457C19.2666 5.73535 19.4717 5.98828 19.4649 5.98828C19.458 5.99512 19.1163 6.2959 18.6994 6.6582C18.2825 7.02051 17.9339 7.32129 17.9134 7.32129C17.8929 7.32129 17.1137 6.4668 14.4893 3.52051Z" fill="#75A3FF"/>
<path d="M26.1494 8.81836L26.8602 8.10059C27.2566 7.7041 27.5915 7.38281 27.612 7.38281C27.6325 7.38281 27.8581 7.58789 28.1041 7.84082C28.3502 8.09375 28.7466 8.55176 28.9858 8.85254C29.225 9.15332 29.6214 9.70703 29.8606 10.083C30.1067 10.459 30.4826 11.1016 30.7013 11.5186C30.9131 11.9355 31.2344 12.6396 31.4121 13.0908C31.5898 13.542 31.8358 14.2803 31.9588 14.7314C32.0819 15.1826 32.2185 15.7842 32.2664 16.0645C32.3142 16.3447 32.3621 16.625 32.3757 16.6797C32.3962 16.748 32.5808 16.6045 33.5308 15.6543L35.0002 17.124L31.5488 20.5693L29.6692 18.8945C28.6372 17.9717 27.7897 17.1924 27.7897 17.1582C27.7897 17.1172 28.0768 16.7686 28.4253 16.3721C28.7671 15.9756 29.0746 15.6543 29.1088 15.6543C29.1361 15.6543 29.3822 15.8525 29.6556 16.0986C29.9221 16.3447 30.1682 16.5293 30.2023 16.5088C30.2297 16.4883 30.175 16.1738 30.0861 15.8047C29.9973 15.4424 29.8059 14.7861 29.6556 14.3555C29.5052 13.9248 29.2318 13.2617 29.0541 12.8857C28.8696 12.5098 28.5825 11.9697 28.4185 11.6895C28.2476 11.4092 27.8786 10.8623 27.5915 10.4795C27.3045 10.0898 26.867 9.55664 26.1494 8.81836Z" fill="#3377FF"/>
<path d="M8.20801 17.9648C8.20801 13.9658 8.22851 10.5957 8.25585 10.4658L8.31053 10.2334L9.06233 10.2812C9.47924 10.3086 10.1217 10.3701 10.4976 10.4248C10.8735 10.4795 11.4886 10.582 11.8645 10.6641C12.2404 10.7461 12.9649 10.9512 13.4707 11.1152C13.9764 11.2861 14.8854 11.6621 15.4869 11.9561C16.0883 12.25 16.9221 12.7217 17.3322 12.9951C17.7491 13.2754 18.3232 13.6992 19.157 14.3896L13.7304 19.8105C10.7505 22.7842 8.29002 25.2246 8.25585 25.2246C8.22851 25.2246 8.20801 21.957 8.20801 17.9648Z" fill="#F0F0F0"/>
<path d="M9.76666 26.749C9.75299 26.7148 12.1929 24.2539 15.1797 21.2803C18.1664 18.2998 20.62 15.8594 20.6269 15.8594C20.6405 15.8594 20.8387 16.0986 21.0779 16.3857C21.3103 16.6797 21.7272 17.2539 22.0074 17.6709C22.2808 18.0811 22.7319 18.8809 23.0053 19.4482C23.2855 20.0088 23.6204 20.7812 23.7571 21.1572C23.8938 21.5332 24.0988 22.1758 24.2014 22.5928C24.3039 23.0029 24.4406 23.6387 24.5021 23.9941C24.5636 24.3496 24.6524 25.0947 24.7003 25.6484C24.7413 26.2021 24.755 26.6738 24.7276 26.708C24.6934 26.7354 21.3171 26.7695 17.2232 26.7764C13.1293 26.79 9.77349 26.7764 9.76666 26.749Z" fill="#F0F0F0"/>
</svg>
