<svg width="35" height="35" viewBox="0 0 35 35" fill="none" xmlns="http://www.w3.org/2000/svg">
<path d="M1.8457 2.05078V1.02539V0H3.89648V31.1035H20.8496V33.1543H20.5078V35H18.3887V33.1543H7.99805V35H5.94727V33.1543H1.8457V29.0527H0V27.002H1.8457V16.6113H0V14.4922H1.8457V4.10156H0V2.05078H1.8457Z" fill="#2C3941"/>
<path d="M6.8291 5.70801C6.7334 4.82617 6.67871 3.70508 6.65137 2.20801L6.61035 0H8.64746L8.69531 0.970703C8.72949 1.51074 8.75 2.24902 8.75 2.61816C8.75 2.98047 8.79785 3.85547 8.85254 4.55957C8.91406 5.27051 9.03711 6.38477 9.13281 7.04102C9.22168 7.69727 9.41309 8.72949 9.54297 9.33105C9.67969 9.93262 9.89844 10.7939 10.0283 11.2451C10.1582 11.6963 10.418 12.4824 10.6025 12.9883C10.7939 13.4941 11.2178 14.4648 11.5527 15.1416C11.8877 15.8184 12.4004 16.7412 12.7012 17.1924C12.9951 17.6436 13.4941 18.334 13.8086 18.7305C14.123 19.127 14.7109 19.7764 15.1074 20.1729C15.5039 20.5693 16.1465 21.1504 16.543 21.4648C16.9395 21.7793 17.6299 22.2783 18.0811 22.5723C18.5322 22.8662 19.3389 23.3311 20.8496 24.0967V25.2451C20.8496 25.9629 20.8223 26.3867 20.7812 26.3867C20.7402 26.3867 20.7129 26.3662 20.7129 26.3389C20.7129 26.3047 20.5352 26.209 20.3232 26.1201C20.1045 26.0244 19.4072 25.6963 18.7646 25.3818C18.1221 25.0674 17.2197 24.5547 16.748 24.2402C16.2764 23.9258 15.5381 23.3857 15.1074 23.0303C14.6768 22.6816 13.9795 22.0527 13.5693 21.6357C13.1523 21.2256 12.5439 20.5488 12.2158 20.1318C11.8809 19.7148 11.3545 18.9971 11.04 18.5254C10.7324 18.0537 10.2949 17.3359 10.0625 16.9189C9.83691 16.502 9.46777 15.75 9.24219 15.2441C9.0166 14.7383 8.69531 13.9385 8.52441 13.4668C8.35352 12.9951 8.11426 12.2773 7.99805 11.8604C7.875 11.4434 7.67676 10.6641 7.55371 10.1172C7.43066 9.57031 7.24609 8.64746 7.15039 8.06641C7.04785 7.48535 6.9043 6.42578 6.8291 5.70801Z" fill="#99BBFF"/>
<path d="M32.9082 1.87988C32.9287 1.27832 32.9424 0.608398 32.9492 0.396484V0H34.9863L34.959 2.20117C34.9453 3.54102 34.8975 4.8125 34.8291 5.43457C34.7676 5.99512 34.6582 6.89062 34.583 7.41699C34.5078 7.94336 34.3506 8.83203 34.2344 9.39941C34.125 9.95996 33.9131 10.8555 33.7627 11.3818C33.6191 11.9082 33.3799 12.6943 33.2295 13.125C33.0859 13.5557 32.8193 14.2461 32.6416 14.6631C32.4639 15.0801 32.1768 15.709 32.0059 16.0645C31.835 16.4199 31.4932 17.0488 31.2539 17.4658C31.0078 17.8828 30.6113 18.5117 30.3652 18.8672C30.1191 19.2227 29.791 19.667 29.6475 19.8584C29.4971 20.043 29.21 20.3984 28.998 20.6445C28.7861 20.8906 28.3076 21.3965 27.9248 21.7656C27.5488 22.1416 26.9814 22.6611 26.6602 22.9277C26.3389 23.1943 25.8193 23.6045 25.498 23.8301C25.1768 24.0557 24.6025 24.4316 23.5156 25.0879L23.0508 24.9443C22.7979 24.8623 22.2031 24.6504 21.7246 24.4658C21.2393 24.2812 20.8496 24.1172 20.8496 24.0967C20.8496 24.0762 21.1982 23.8916 21.6152 23.6797C22.0391 23.4678 22.6953 23.1055 23.0713 22.8799C23.4473 22.6543 23.9668 22.3193 24.2334 22.1279C24.5 21.9365 24.9443 21.5947 25.2246 21.3691C25.5049 21.1367 26.0449 20.6445 26.4277 20.2686C26.8105 19.8926 27.3779 19.2773 27.6924 18.9014C28.0068 18.5254 28.5332 17.8008 28.8682 17.2949C29.1963 16.7891 29.6953 15.9277 29.9756 15.3809C30.249 14.834 30.5566 14.1914 30.6592 13.9453C30.7617 13.6992 30.9805 13.1182 31.1445 12.6465C31.3154 12.1748 31.5547 11.4229 31.6846 10.9717C31.8076 10.5205 31.9922 9.7959 32.0879 9.36523C32.1836 8.93457 32.3203 8.20996 32.3955 7.75879C32.4707 7.30762 32.5801 6.54199 32.6348 6.0498C32.6963 5.55762 32.7715 4.66895 32.8057 4.06738C32.8467 3.46582 32.8945 2.48145 32.9082 1.87988Z" fill="#16A18C"/>
<path d="M20.8496 26.3867L20.8633 25.2519C20.8701 24.2402 20.8838 24.124 20.9795 24.165C21.041 24.1924 21.4922 24.3701 21.9775 24.5547C22.4629 24.7461 23.3105 25.0195 23.8574 25.1631C24.4043 25.3134 25.2041 25.5049 25.6348 25.5937C26.0654 25.6894 26.8379 25.8261 27.3438 25.9013C27.8496 25.9765 28.8408 26.0859 29.5518 26.1474C30.3242 26.209 31.6504 26.25 35 26.25V28.3691H32.9355C31.7939 28.3691 30.4336 28.3349 29.9072 28.3007C29.3809 28.2597 28.4512 28.1709 27.8428 28.0957C27.2275 28.0205 26.3184 27.8838 25.8262 27.7812C25.3271 27.6855 24.459 27.4873 23.8916 27.3437C23.3311 27.2002 22.6201 26.9951 22.3193 26.8994C22.0186 26.7968 21.5674 26.6465 20.8496 26.3867Z" fill="#3377FF"/>
<path d="M14.9023 25.7988C15.4834 25.7031 16.4062 25.5049 16.9531 25.3613C17.5 25.2246 17.999 25.1016 18.0674 25.0947C18.1289 25.0947 18.5732 25.2861 19.0518 25.5186C19.5371 25.7578 20.1045 26.0312 20.3232 26.1201C20.5352 26.209 20.7129 26.3047 20.7129 26.332C20.7129 26.3662 20.6582 26.4141 20.5967 26.4482C20.5283 26.4824 20.0566 26.6533 19.5508 26.8174C19.0449 26.9883 18.1973 27.2344 17.6709 27.3711C17.1445 27.501 16.4814 27.6582 16.2012 27.7129C15.9209 27.7676 15.3057 27.877 14.834 27.9521C14.3623 28.0273 13.5352 28.1436 12.9883 28.2051C12.3047 28.2803 11.1631 28.3213 6.63086 28.3691V26.25L9.31055 26.2227C11.1152 26.2021 12.2979 26.1543 12.9199 26.0859C13.4258 26.0244 14.3213 25.9014 14.9023 25.7988Z" fill="#3AE4CA"/>
<path d="M20.8496 33.1543V32.1289V31.1035H35V33.1543H32.9492V35H30.8984V33.1543H20.8496Z" fill="#171E22"/>
</svg>
