<svg width="35" height="35" viewBox="0 0 35 35" fill="none" xmlns="http://www.w3.org/2000/svg">
<path d="M8.38867 26.7485L10.1677 24.9607C11.1462 23.9774 11.9537 23.1729 11.9605 23.1729C11.9742 23.1729 11.981 23.9774 11.981 26.7485H8.38867Z" fill="#A6DED5"/>
<path d="M9.86035 35V33.0403V31.0806H11.9131V35H9.86035Z" fill="#192B80"/>
<path d="M28.7186 34.9656L28.7117 33.0197V31.0806H30.7987V35L28.7186 34.9656Z" fill="#192B80"/>
<path d="M11.9743 23.1523C11.9743 23.1454 12.4464 22.664 13.0212 22.0933C13.596 21.5157 14.075 21.0413 14.0887 21.0413C14.0955 21.0413 14.1024 22.8016 14.1024 28.8802H10.2363C8.10823 28.8802 6.36336 28.8595 6.35652 28.832C6.34968 28.8045 6.80129 28.3232 8.37509 26.7485H11.9811V24.9607C11.9811 23.9774 11.9811 23.166 11.9743 23.1523Z" fill="#107565"/>
<path d="M0.896484 23.276V14.8389V6.39488H3.01769V23.276H0.896484Z" fill="#3377FF"/>
<path d="M14.1366 20.9725L17.4211 17.6719L20.7055 14.3713L27.8697 21.5707C31.8111 25.5383 35.0202 28.7976 34.9997 28.832C34.986 28.8595 30.2783 28.8801 14.1024 28.8801V21.0069L12.0154 23.1041H8.35461V26.7829L7.34874 27.8006C6.78765 28.3576 6.31551 28.7908 6.2813 28.7633C6.25393 28.7357 6.2334 26.9686 6.2334 20.9725H14.1366Z" fill="#16A18C"/>
<path d="M6.30176 20.9725V10.4862C6.30176 4.71709 6.32229 0 6.34966 0C6.38387 0 9.62042 3.23183 20.7054 14.3713L14.1365 20.9725H6.30176Z" fill="#A6DED5"/>
<path d="M0.00684261 6.39488V5.36345V4.33202H3.90713V6.39488H0.00684261Z" fill="#2453B3"/>
<path d="M0.00684261 25.3733V24.3075L0 23.2485H3.90029L3.90713 25.3733H0.00684261Z" fill="#2453B3"/>
<path d="M11.9198 34.0992V33.0196V31.9332H28.7526V34.0992H11.9198Z" fill="#2453B3"/>
<path d="M8.35449 26.7829V24.947V23.1041H10.2157C11.2352 23.1041 12.0563 23.111 12.0427 23.1179C12.0221 23.1316 11.1873 23.9568 8.35449 26.7829Z" fill="#D6F5F0"/>
<path d="M28.3008 18.7859L29.6351 17.4037C30.3672 16.6473 30.9831 16.0285 31.0036 16.0216C31.0241 16.0216 31.3526 16.3379 31.7426 16.7299C32.1258 17.1149 32.4406 17.4587 32.4406 17.5C32.4406 17.5413 31.8384 18.1739 29.7719 20.2505L28.3008 18.7859Z" fill="#192B80"/>
<path d="M17.0107 6.25049L17.7634 5.50098L18.5161 4.7446L24.4692 10.7269L22.9638 12.2397L17.0107 6.25049Z" fill="#3377FF"/>
<path d="M28.1984 17.4725C28.1779 17.4725 27.4252 16.7299 26.522 15.8222C25.6187 14.9145 24.9003 14.1719 24.9345 14.1719C24.9619 14.1719 25.7145 14.9145 26.6109 15.8222C27.5005 16.7299 28.2189 17.4725 28.1984 17.4725Z" fill="#3377FF"/>
<path d="M14.9104 5.39783C14.8967 5.36345 15.5057 4.71709 16.2584 3.97445L17.6269 2.61296L19.1323 4.12573L16.361 6.9106L15.6425 6.1886C15.2457 5.78978 14.9172 5.43909 14.9104 5.39783Z" fill="#2453B3"/>
<path d="M22.9641 12.2397L23.7031 11.4902L24.449 10.7407L24.8458 11.0982C25.0648 11.2908 26.4128 12.6179 30.4226 16.6405L28.9172 18.1464L22.9641 12.2397Z" fill="#2453B3"/>
</svg>
