<svg width="35" height="19" viewBox="0 0 35 19" fill="none" xmlns="http://www.w3.org/2000/svg">
<path d="M14.6836 8.76411C14.6904 6.36641 14.7178 4.36257 14.7383 4.3142C14.7656 4.23819 14.8955 4.23128 15.2988 4.26583C15.5859 4.28656 16.1191 4.35566 16.4746 4.41785C16.8301 4.47313 17.3838 4.5975 17.7051 4.69424C18.0264 4.78407 18.5186 4.95681 18.7988 5.06737C19.0791 5.18483 19.5439 5.39904 19.8242 5.55796C20.1045 5.70998 20.5352 5.97255 20.7812 6.13839C21.0273 6.30422 21.3281 6.52533 21.6768 6.82245L15.3467 13.2002L14.6631 13.1311L14.6836 8.76411Z" fill="#BDF9F0"/>
<path d="M17.2744 14.2712C17.2471 14.2436 18.5391 12.8892 20.1455 11.2585V11.2654C21.752 9.63474 23.0918 8.30806 23.1191 8.30806C23.1533 8.30806 23.3721 8.59827 23.625 8.94376C23.8711 9.29616 24.2197 9.88349 24.4043 10.2428C24.5889 10.6021 24.835 11.1618 24.9512 11.4866C25.0674 11.8113 25.2383 12.371 25.3271 12.7303C25.4092 13.0896 25.498 13.594 25.5664 14.3196H21.4512C19.1816 14.3196 17.3018 14.2988 17.2744 14.2712Z" fill="#BDF9F0"/>
<path d="M0 4.92227V2.71113V0.5H4.375V2.64203H3.58887L14.0479 13.2002L13.7061 13.3729C13.5146 13.4697 13.2344 13.6839 13.0703 13.8635C12.9131 14.0363 12.7354 14.2919 12.6807 14.4232C12.626 14.5545 12.5576 14.6651 12.5303 14.6651C12.4961 14.6651 10.1309 12.295 2.05078 4.12764V4.92227H0Z" fill="#16A18C"/>
<path d="M24.6777 2.9184V1.84738V0.776367H29.0527V5.26773L26.9678 5.23318L26.8994 4.50765L16.7822 14.6512L16.6387 14.3679C16.5566 14.209 16.4062 13.9741 16.2969 13.8428C16.1875 13.7115 15.9346 13.518 15.3809 13.214L25.4229 2.95295L24.6777 2.9184Z" fill="#1A1D24"/>
<path d="M12.3389 4.51456C12.7148 4.43165 13.2686 4.34182 13.5693 4.30727C13.8701 4.27272 14.2529 4.24508 14.7314 4.23126L14.6973 8.66735L14.6969 8.71368C14.6631 13.0486 14.6626 13.1104 14.5264 13.1173C14.4512 13.1242 14.3145 13.1518 14.2188 13.1725C14.0615 13.214 13.7334 12.903 7.69043 6.78097L7.86133 6.64278C7.95703 6.56677 8.30566 6.31802 8.64746 6.08309C8.98242 5.85506 9.54297 5.53721 9.87793 5.37138C10.2129 5.20554 10.7529 4.98443 11.0742 4.86696C11.3955 4.75641 11.9629 4.59748 12.3389 4.51456Z" fill="#DFFBF7"/>
<path d="M30.4199 13.6632L31.1514 12.9238V12.9169C31.5547 12.5092 31.9033 12.1776 31.9238 12.1776C31.9443 12.1776 32.6416 12.8685 33.4824 13.7184C34.3164 14.5614 35 15.28 35 15.3215C35 15.363 34.3096 16.0885 31.9238 18.5L30.4199 16.9799L31.001 16.3925H16.6113L16.707 16.1645C16.7617 16.047 16.8232 15.7845 16.8506 15.5979C16.8779 15.4044 16.8643 15.128 16.8301 14.976C16.7686 14.7204 16.7754 14.6858 17.124 14.3127L19.585 14.3196C20.9385 14.3265 24.0557 14.2989 30.9668 14.2159L30.4199 13.6632Z" fill="#16A18C"/>
<path d="M13.6377 13.4006C13.7881 13.3246 13.9863 13.2347 14.082 13.2071C14.1777 13.1794 14.3555 13.1518 14.6973 13.1449V17.5672L14.376 17.5257C14.1914 17.505 13.8975 17.4151 13.7061 17.3253C13.5215 17.2355 13.2412 17.0282 13.0977 16.8624C12.9473 16.7034 12.749 16.3925 12.6602 16.1852C12.5371 15.9226 12.4893 15.6808 12.4893 15.3906C12.4893 15.1626 12.5371 14.824 12.5986 14.6305C12.6602 14.4232 12.8379 14.133 13.0361 13.9119C13.2139 13.7115 13.4873 13.4766 13.6377 13.4006Z" fill="#454B6A"/>
<path d="M14.6973 17.6017L14.7041 15.363L14.7178 13.1242L15.0664 13.1726C15.2578 13.1933 15.5654 13.3039 15.75 13.4075C15.9346 13.5112 16.1738 13.7046 16.29 13.8359C16.4062 13.9672 16.5771 14.2505 16.6729 14.4578C16.8096 14.7618 16.8438 14.9484 16.8438 15.3561C16.8438 15.743 16.8027 15.9572 16.6934 16.1991C16.6113 16.3856 16.4062 16.6758 16.2422 16.8555C16.0781 17.0421 15.7979 17.2563 15.6133 17.3392C15.4287 17.4221 15.1484 17.5119 14.6973 17.6017Z" fill="#1A1D24"/>
</svg>
