                <svg width="373" height="371" viewBox="0 0 373 371" fill="none" xmlns="http://www.w3.org/2000/svg">
<g clip-path="url(#clip0_50_2302)">
<path d="M126.286 3.21147H80.3567V385H126.286V3.21147Z" fill="#16A18C"/>
<g opacity="0.6">
<path d="M126.286 3.21147H80.3567V385H126.286V3.21147Z" fill="black"/>
</g>
<path d="M214.406 200.744H236.408V162.83H214.406V200.744Z" fill="#16A18C"/>
<path d="M153.031 201.342H170.402V154.003H153.031V201.342Z" fill="#455A64"/>
<path d="M152.829 157.429C155.777 157.168 158.738 157.08 161.697 157.165C164.655 157.08 167.616 157.168 170.564 157.429C167.616 157.69 164.655 157.778 161.697 157.692C158.738 157.778 155.777 157.69 152.829 157.429Z" fill="#FAFAFA"/>
<path d="M153.792 159.679C156.58 159.412 159.383 159.324 162.183 159.415C164.983 159.323 167.786 159.411 170.575 159.679C167.786 159.94 164.983 160.028 162.183 159.942C159.383 160.028 156.581 159.94 153.792 159.679Z" fill="#FAFAFA"/>
<path d="M161.221 192.008C161.069 192.008 160.957 185.745 160.957 178.012C160.957 170.279 161.069 164.006 161.221 164.006C161.373 164.006 161.484 170.269 161.484 178.012C161.484 185.755 161.362 192.008 161.221 192.008Z" fill="#FAFAFA"/>
<path d="M153.021 196.345C155.85 196.072 158.694 195.98 161.534 196.072C164.372 195.98 167.212 196.072 170.037 196.345C167.211 196.606 164.372 196.694 161.534 196.609C158.694 196.694 155.851 196.606 153.021 196.345Z" fill="#FAFAFA"/>
<path d="M153.021 198.372C155.922 198.112 158.836 198.024 161.747 198.109C164.655 198.023 167.566 198.111 170.463 198.372C167.566 198.633 164.655 198.721 161.747 198.636C158.836 198.721 155.922 198.633 153.021 198.372Z" fill="#FAFAFA"/>
<path d="M170.382 201.342H184.337V148.885H170.382V201.342Z" fill="#16A18C"/>
<path d="M170.301 172.965C171.07 173.386 171.794 173.885 172.46 174.455L177.527 178.276L182.594 182.106C183.321 182.603 183.999 183.166 184.621 183.789C183.829 183.408 183.078 182.946 182.381 182.41C181.044 181.498 179.23 180.191 177.253 178.701C175.277 177.211 173.544 175.793 172.308 174.749C171.576 174.228 170.903 173.63 170.301 172.965Z" fill="#FAFAFA"/>
<path d="M170.24 164.766C172.73 166.553 175.116 168.482 177.385 170.543C179.767 172.466 182.034 174.527 184.175 176.715C181.703 174.925 179.334 172.996 177.081 170.938C174.683 169.015 172.399 166.954 170.24 164.766Z" fill="#FAFAFA"/>
<path d="M109.727 201.382H116.406V151.419H109.727V201.382Z" fill="#16A18C"/>
<path d="M110.01 158.219C112.074 158.638 114.2 158.638 116.263 158.219C114.2 157.801 112.074 157.801 110.01 158.219Z" fill="#FAFAFA"/>
<path d="M113 157.449C114.729 157.449 116.131 157.308 116.131 157.135C116.131 156.961 114.729 156.821 113 156.821C111.27 156.821 109.868 156.961 109.868 157.135C109.868 157.308 111.27 157.449 113 157.449Z" fill="#FAFAFA"/>
<path d="M110.01 197.521C112.074 197.94 114.2 197.94 116.263 197.521C114.2 197.102 112.074 197.102 110.01 197.521Z" fill="#FAFAFA"/>
<path d="M109.878 196.427C111.942 196.845 114.068 196.845 116.131 196.427C114.068 196.008 111.942 196.008 109.878 196.427Z" fill="#FAFAFA"/>
<path d="M113.253 189.9C113.426 189.9 113.568 184.184 113.568 177.12C113.568 170.056 113.426 164.341 113.253 164.341C113.081 164.341 112.939 170.056 112.939 177.12C112.939 184.184 113.101 189.9 113.253 189.9Z" fill="#FAFAFA"/>
<path d="M139.654 201.058H153.001V151.095H139.654V201.058Z" fill="#263238"/>
<path d="M149.241 201.697C149.241 201.697 149.302 201.615 149.403 201.433C149.505 201.251 149.626 200.967 149.778 200.602C150.25 199.515 150.59 198.375 150.792 197.207C151.13 195.34 150.856 193.413 150.012 191.714C149.443 190.664 148.629 189.767 147.64 189.099C146.517 188.33 145.147 188.008 143.799 188.197C143.052 188.307 142.35 188.622 141.772 189.109C141.46 189.363 141.21 189.685 141.043 190.05C140.876 190.416 140.796 190.816 140.809 191.217C140.846 191.63 140.966 192.03 141.163 192.395C141.36 192.759 141.63 193.079 141.955 193.336C142.595 193.896 143.39 194.25 144.235 194.349C145.099 194.415 145.968 194.296 146.783 193.998C147.597 193.701 148.339 193.233 148.958 192.626C150.299 191.364 151.135 189.656 151.309 187.822C151.499 185.936 151.263 184.031 150.62 182.248C150.024 180.34 148.887 178.647 147.346 177.374C146.515 176.721 145.511 176.327 144.458 176.239C143.904 176.18 143.344 176.246 142.818 176.43C142.293 176.614 141.814 176.912 141.417 177.303C141.007 177.722 140.766 178.278 140.738 178.863C140.721 179.444 140.88 180.017 141.194 180.505C141.821 181.443 142.788 182.101 143.89 182.34C144.956 182.546 146.058 182.473 147.088 182.129C148.117 181.784 149.041 181.18 149.768 180.373C151.108 178.784 151.909 176.812 152.059 174.739C152.287 172.777 152.09 170.79 151.481 168.911C150.898 167.068 149.676 165.494 148.035 164.472C147.256 163.973 146.371 163.662 145.451 163.566C144.531 163.469 143.601 163.589 142.735 163.915C142.302 164.082 141.917 164.356 141.616 164.71C141.315 165.064 141.108 165.487 141.012 165.942C140.934 166.38 140.947 166.83 141.052 167.262C141.157 167.695 141.35 168.101 141.62 168.455C142.165 169.077 142.884 169.523 143.684 169.734C144.484 169.945 145.328 169.913 146.11 169.641C147.511 169.16 148.745 168.288 149.667 167.128C151.283 165.199 152.217 162.791 152.322 160.277C152.389 158.389 151.963 156.517 151.086 154.845C150.546 153.793 149.838 152.838 148.988 152.017C148.771 151.804 148.54 151.604 148.299 151.419C148.137 151.287 148.045 151.226 148.035 151.237C149.205 152.288 150.168 153.55 150.873 154.956C151.818 156.867 152.175 159.016 151.899 161.13C151.623 163.244 150.726 165.229 149.322 166.834C148.452 167.916 147.292 168.727 145.978 169.175C145.295 169.417 144.555 169.449 143.852 169.269C143.15 169.088 142.518 168.703 142.036 168.161C141.811 167.865 141.651 167.526 141.566 167.165C141.48 166.804 141.471 166.428 141.539 166.063C141.618 165.692 141.789 165.347 142.037 165.06C142.286 164.773 142.602 164.554 142.958 164.422C143.743 164.134 144.584 164.033 145.415 164.128C146.245 164.223 147.042 164.511 147.741 164.969C149.263 165.919 150.39 167.388 150.913 169.104C151.485 170.903 151.668 172.803 151.451 174.678C151.305 176.614 150.557 178.457 149.312 179.948C148.658 180.672 147.829 181.216 146.905 181.528C145.98 181.84 144.991 181.91 144.032 181.731C143.094 181.525 142.27 180.967 141.732 180.171C141.469 179.81 141.339 179.37 141.365 178.924C141.391 178.479 141.57 178.056 141.873 177.728C142.203 177.411 142.598 177.169 143.03 177.019C143.462 176.868 143.921 176.813 144.377 176.857C145.309 176.935 146.198 177.288 146.931 177.87C148.364 179.068 149.42 180.656 149.971 182.441C150.589 184.139 150.821 185.953 150.65 187.751C150.495 189.451 149.732 191.038 148.501 192.221C147.942 192.78 147.268 193.212 146.527 193.488C145.786 193.765 144.994 193.878 144.204 193.822C143.479 193.802 142.782 193.536 142.229 193.066C141.676 192.596 141.3 191.951 141.164 191.238C141.153 190.908 141.217 190.581 141.352 190.28C141.488 189.98 141.69 189.714 141.944 189.505C142.441 189.071 143.048 188.783 143.698 188.674C144.942 188.49 146.21 188.775 147.255 189.474C148.196 190.099 148.974 190.94 149.525 191.927C150.362 193.556 150.66 195.408 150.376 197.217C150.219 198.37 149.933 199.502 149.525 200.592C149.383 201.342 149.221 201.686 149.241 201.697Z" fill="#FAFAFA"/>
<path d="M116.294 201.088H139.461V155.584H116.294V201.088Z" fill="#16A18C"/>
<g opacity="0.2">
<path d="M116.294 201.088H139.461V155.584H116.294V201.088Z" fill="black"/>
</g>
<path d="M117.094 163.135C117.094 163.307 122.162 163.449 128.303 163.449C134.445 163.449 139.522 163.307 139.522 163.135C139.522 162.962 134.455 162.82 128.303 162.82C122.152 162.82 117.094 162.962 117.094 163.135Z" fill="#E0E0E0"/>
<path d="M116.811 166.59C116.811 166.763 121.766 166.905 127.877 166.905C133.989 166.905 138.944 166.763 138.944 166.59C138.944 166.418 133.989 166.276 127.877 166.276C121.766 166.276 116.811 166.418 116.811 166.59Z" fill="#E0E0E0"/>
<path d="M116.061 195.94C116.061 196.112 121.28 196.254 127.716 196.254C134.151 196.254 139.37 196.112 139.37 195.94C139.37 195.768 134.161 195.626 127.716 195.626C121.27 195.626 116.061 195.768 116.061 195.94Z" fill="#E0E0E0"/>
<path d="M116.375 191.886C116.375 192.059 121.442 192.2 127.736 192.2C134.029 192.2 139.087 192.059 139.087 191.886C139.087 191.714 134.019 191.572 127.736 191.572C121.452 191.572 116.375 191.714 116.375 191.886Z" fill="#E0E0E0"/>
<path d="M184.337 200.744H197.684V150.781H184.337V200.744Z" fill="#455A64"/>
<path d="M193.924 201.342C193.991 201.259 194.046 201.166 194.087 201.068C194.178 200.886 194.31 200.612 194.462 200.237C194.938 199.155 195.279 198.018 195.475 196.852C195.813 194.982 195.539 193.052 194.695 191.349C194.128 190.3 193.314 189.406 192.323 188.745C191.202 187.971 189.831 187.646 188.482 187.832C187.734 187.945 187.032 188.264 186.455 188.755C186.146 189.01 185.899 189.333 185.732 189.698C185.565 190.063 185.483 190.461 185.492 190.863C185.529 191.275 185.65 191.676 185.846 192.04C186.043 192.404 186.313 192.724 186.638 192.981C187.277 193.542 188.073 193.895 188.918 193.994C189.784 194.062 190.655 193.943 191.471 193.646C192.288 193.349 193.031 192.88 193.651 192.271C194.988 191.007 195.82 189.3 195.992 187.468C196.181 185.581 195.946 183.677 195.303 181.894C194.709 179.988 193.571 178.297 192.029 177.029C191.205 176.371 190.203 175.975 189.151 175.894C188.601 175.826 188.042 175.881 187.516 176.056C186.99 176.232 186.51 176.522 186.111 176.907C185.699 177.331 185.455 177.889 185.422 178.478C185.405 179.056 185.564 179.625 185.878 180.11C186.501 181.051 187.469 181.71 188.573 181.944C189.64 182.155 190.742 182.084 191.773 181.739C192.803 181.395 193.726 180.788 194.451 179.978C195.791 178.393 196.593 176.423 196.742 174.353C196.968 172.389 196.775 170.4 196.174 168.516C195.594 166.671 194.367 165.098 192.718 164.087C191.941 163.583 191.056 163.27 190.135 163.173C189.214 163.076 188.283 163.199 187.418 163.53C186.985 163.697 186.6 163.97 186.299 164.324C185.998 164.678 185.791 165.102 185.695 165.557C185.616 165.995 185.629 166.445 185.733 166.878C185.838 167.311 186.032 167.717 186.303 168.07C186.85 168.694 187.57 169.14 188.371 169.353C189.172 169.566 190.019 169.536 190.803 169.266C192.199 168.775 193.428 167.9 194.35 166.742C195.975 164.819 196.91 162.407 197.005 159.891C197.055 158.371 196.789 156.856 196.224 155.443C195.659 154.03 194.807 152.749 193.722 151.682C193.501 151.469 193.268 151.269 193.022 151.085C192.945 151.017 192.86 150.96 192.769 150.912C193.932 151.964 194.89 153.222 195.597 154.621C196.409 156.266 196.789 158.09 196.701 159.922C196.563 162.349 195.63 164.664 194.046 166.509C193.175 167.59 192.015 168.402 190.702 168.85C190.018 169.087 189.279 169.117 188.578 168.937C187.877 168.756 187.245 168.374 186.759 167.837C186.537 167.54 186.378 167.2 186.293 166.84C186.208 166.479 186.197 166.104 186.263 165.739C186.341 165.369 186.513 165.025 186.761 164.74C187.009 164.454 187.326 164.237 187.682 164.107C188.466 163.819 189.308 163.719 190.138 163.814C190.969 163.909 191.766 164.197 192.465 164.655C193.989 165.605 195.119 167.073 195.647 168.79C196.211 170.587 196.391 172.482 196.174 174.353C196.037 176.292 195.288 178.137 194.036 179.623C193.384 180.35 192.555 180.896 191.63 181.208C190.705 181.52 189.715 181.589 188.756 181.407C187.814 181.209 186.988 180.648 186.455 179.846C186.192 179.487 186.064 179.047 186.092 178.603C186.119 178.158 186.302 177.738 186.607 177.414C186.931 177.091 187.323 176.844 187.754 176.693C188.186 176.543 188.646 176.491 189.1 176.543C190.034 176.615 190.924 176.969 191.654 177.556C193.085 178.756 194.141 180.343 194.695 182.127C195.313 183.824 195.545 185.639 195.374 187.437C195.226 189.139 194.462 190.728 193.225 191.906C192.665 192.466 191.992 192.9 191.251 193.178C190.51 193.456 189.718 193.572 188.928 193.518C188.202 193.496 187.504 193.227 186.952 192.755C186.399 192.284 186.024 191.637 185.888 190.923C185.878 190.594 185.943 190.267 186.078 189.967C186.213 189.667 186.415 189.401 186.668 189.19C187.167 188.761 187.773 188.474 188.421 188.359C189.666 188.183 190.933 188.472 191.979 189.17C192.922 189.791 193.704 190.628 194.259 191.613C195.088 193.244 195.383 195.095 195.1 196.903C194.945 198.055 194.663 199.187 194.259 200.278C194.076 200.987 193.904 201.342 193.924 201.342Z" fill="#FAFAFA"/>
<path d="M91.1805 200.744H109.737V148.257H91.1805V200.744Z" fill="#16A18C"/>
<g opacity="0.3">
<path d="M91.1802 200.744H109.737V148.257H91.1802V200.744Z" fill="white"/>
</g>
<path d="M197.684 200.734H215.035V154.003H197.684V200.734Z" fill="#263238"/>
<path d="M215.47 177.313C216.31 178.073 217.235 178.733 218.227 179.279C219.317 179.836 220.504 180.18 221.723 180.292C223.206 180.407 224.693 180.15 226.051 179.542C227.51 178.914 228.858 178.113 230.216 177.647C231.414 177.159 232.73 177.039 233.996 177.303C234.854 177.495 235.626 177.961 236.195 178.63C236.418 178.858 236.566 179.148 236.621 179.461C236.621 179.461 236.449 179.178 236.033 178.762C235.453 178.193 234.715 177.812 233.915 177.667C232.722 177.47 231.497 177.622 230.388 178.103C229.091 178.569 227.774 179.38 226.253 180.029C224.817 180.67 223.239 180.928 221.673 180.779C220.403 180.653 219.172 180.271 218.055 179.654C217.3 179.253 216.616 178.733 216.028 178.113C215.792 177.885 215.602 177.613 215.47 177.313Z" fill="#FAFAFA"/>
<path d="M215.085 181.944C215.922 182.705 216.847 183.362 217.842 183.9C218.928 184.459 220.112 184.803 221.328 184.914C222.814 185.021 224.304 184.76 225.666 184.154C227.125 183.535 228.473 182.725 229.831 182.258C231.03 181.774 232.345 181.654 233.611 181.914C234.465 182.108 235.233 182.574 235.8 183.241C236.185 183.728 236.256 184.073 236.226 184.073C236.195 184.073 236.054 183.789 235.648 183.373C235.065 182.808 234.328 182.428 233.53 182.279C232.334 182.086 231.107 182.238 229.993 182.714C228.696 183.191 227.378 183.991 225.868 184.64C224.432 185.281 222.854 185.539 221.288 185.39C220.018 185.269 218.787 184.89 217.669 184.275C216.917 183.867 216.233 183.344 215.643 182.725C215.227 182.248 215.055 181.954 215.085 181.944Z" fill="#FAFAFA"/>
<path d="M215.369 166.976C218.92 166.708 222.481 166.62 226.041 166.712C229.597 166.62 233.155 166.708 236.702 166.976C236.702 167.117 231.929 167.239 226.041 167.239C220.153 167.239 215.369 167.117 215.369 166.976Z" fill="#FAFAFA"/>
<path d="M207.505 161.543C207.028 161.341 206.499 161.295 205.995 161.412C205.738 161.486 205.499 161.615 205.297 161.79C205.094 161.965 204.931 162.182 204.819 162.425C204.714 162.719 204.701 163.038 204.781 163.34C204.86 163.642 205.029 163.913 205.265 164.118C205.48 164.345 205.758 164.503 206.063 164.572C206.368 164.64 206.686 164.616 206.978 164.503C207.211 164.379 207.415 164.206 207.576 163.996C207.737 163.786 207.851 163.544 207.91 163.287C208.003 162.779 207.936 162.255 207.718 161.787C207.718 161.787 207.89 161.847 208.052 162.111C208.266 162.489 208.344 162.929 208.275 163.357C208.228 163.686 208.105 164 207.917 164.274C207.729 164.548 207.48 164.776 207.191 164.938C206.808 165.096 206.388 165.139 205.982 165.062C205.575 164.984 205.2 164.79 204.902 164.503C204.605 164.216 204.397 163.848 204.305 163.445C204.213 163.042 204.24 162.621 204.383 162.233C204.534 161.937 204.75 161.681 205.016 161.482C205.281 161.284 205.588 161.149 205.914 161.087C206.34 161.002 206.783 161.063 207.17 161.26C207.434 161.371 207.505 161.523 207.505 161.543Z" fill="#FAFAFA"/>
<path d="M206.39 196.062C206.238 196.062 206.116 189.515 206.116 181.438C206.116 173.36 206.238 166.803 206.39 166.803C206.542 166.803 206.653 173.35 206.653 181.438C206.653 189.525 206.491 196.062 206.39 196.062Z" fill="#FAFAFA"/>
<path d="M243.229 3.21144L81.2891 2.35001H66.6345V384.99H81.2688V341.969H243.229V384.99H257.863V3.21144H243.229ZM243.229 331.682H81.2891V276.094H243.229V331.682ZM243.229 265.808H81.2891V210.22H243.229V265.808ZM243.229 199.933H81.2891V144.355H243.229V199.933ZM243.229 134.059H81.2891V78.4807H243.229V134.059ZM243.229 68.184H81.2891V13.4575H243.229V68.184Z" fill="#16A18C"/>
<path d="M303.57 3.21147H257.64V385H303.57V3.21147Z" fill="#16A18C"/>
<path d="M190.357 55.3131H146.039V68.0421H190.357V55.3131Z" fill="#455A64"/>
<path d="M150.214 67.1705C149.947 65.2403 149.859 63.2896 149.95 61.3432C149.859 59.3934 149.947 57.4393 150.214 55.5057C150.474 57.4399 150.562 59.3934 150.477 61.3432C150.563 63.2896 150.475 65.2398 150.214 67.1705Z" fill="#263238"/>
<path d="M152.16 67.1705C151.893 65.2403 151.805 63.2896 151.896 61.3432C151.805 59.3934 151.894 57.4393 152.16 55.5057C152.42 57.4399 152.509 59.3934 152.423 61.3432C152.509 63.2896 152.421 65.2398 152.16 67.1705Z" fill="#263238"/>
<path d="M183.465 67.1705C183.199 65.2403 183.11 63.2896 183.202 61.3432C183.111 59.3934 183.199 57.4393 183.465 55.5057C183.726 57.4399 183.814 59.3934 183.729 61.3432C183.814 63.2896 183.726 65.2398 183.465 67.1705Z" fill="#263238"/>
<path d="M185.209 67.1705C184.948 65.2398 184.86 63.2896 184.945 61.3432C184.86 59.3934 184.948 57.4399 185.209 55.5057C185.475 57.4393 185.563 59.3934 185.472 61.3432C185.563 63.2896 185.475 65.2403 185.209 67.1705Z" fill="#263238"/>
<path d="M180.455 61.4851C180.455 61.6269 174.709 61.7486 167.625 61.7486C160.541 61.7486 154.805 61.5965 154.805 61.4851C154.805 61.3736 160.551 61.2216 167.645 61.2216C174.74 61.2216 180.455 61.3026 180.455 61.4851Z" fill="#263238"/>
<path d="M193.975 42.5943H149.657V55.3233H193.975V42.5943Z" fill="#16A18C"/>
<path d="M153.792 54.4517C153.518 52.5187 153.427 50.5643 153.518 48.6142C153.427 46.6675 153.518 44.7164 153.792 42.7868C154.052 44.7176 154.14 46.6678 154.055 48.6142C154.14 50.564 154.052 52.5175 153.792 54.4517Z" fill="#263238"/>
<path d="M155.818 54.4517C155.558 52.5175 155.47 50.564 155.555 48.6142C155.47 46.6678 155.558 44.7176 155.818 42.7868C156.085 44.7171 156.173 46.6678 156.082 48.6142C156.173 50.564 156.085 52.518 155.818 54.4517Z" fill="#263238"/>
<path d="M187.084 54.4517C186.817 52.518 186.729 50.564 186.82 48.6142C186.729 46.6678 186.817 44.7171 187.084 42.7868C187.344 44.7176 187.432 46.6678 187.347 48.6142C187.432 50.564 187.344 52.5175 187.084 54.4517Z" fill="#263238"/>
<path d="M188.826 54.4517C188.566 52.5175 188.478 50.564 188.563 48.6142C188.478 46.6678 188.566 44.7176 188.826 42.7868C189.087 44.7176 189.175 46.6678 189.09 48.6142C189.175 50.564 189.087 52.5175 188.826 54.4517Z" fill="#263238"/>
<path d="M184.074 48.7358C184.074 48.8777 178.327 48.9993 171.233 48.9993C164.139 48.9993 158.403 48.8777 158.403 48.7358C158.403 48.5939 164.149 48.4723 171.233 48.4723C178.317 48.4723 184.074 48.5838 184.074 48.7358Z" fill="#263238"/>
<path d="M143.059 18.393H136.38V68.3563H143.059V18.393Z" fill="#16A18C"/>
<path d="M142.775 25.2034C140.712 25.6222 138.586 25.6222 136.522 25.2034C138.586 24.7846 140.712 24.7846 142.775 25.2034Z" fill="#FAFAFA"/>
<path d="M142.917 24.119C140.851 24.5378 138.721 24.5378 136.654 24.119C138.721 23.7002 140.851 23.7002 142.917 24.119Z" fill="#FAFAFA"/>
<path d="M142.775 64.5254C140.712 64.9442 138.586 64.9442 136.522 64.5254C138.586 64.1067 140.712 64.1067 142.775 64.5254Z" fill="#FAFAFA"/>
<path d="M142.917 63.4106C140.851 63.8294 138.721 63.8294 136.654 63.4106C138.721 62.9919 140.851 62.9919 142.917 63.4106Z" fill="#FAFAFA"/>
<path d="M139.512 56.884C139.34 56.884 139.198 51.1681 139.198 44.1043C139.198 37.0406 139.34 31.3247 139.512 31.3247C139.684 31.3247 139.826 37.0507 139.826 44.1043C139.826 51.158 139.684 56.884 139.512 56.884Z" fill="#FAFAFA"/>
<path d="M113.132 18.0788H99.7847V68.0421H113.132V18.0788Z" fill="#263238"/>
<path d="M103.544 68.6908C103.484 68.6054 103.433 68.5136 103.392 68.4171C103.291 68.2347 103.169 67.9509 103.007 67.5861C102.535 66.4988 102.195 65.359 101.994 64.191C101.656 62.3238 101.93 60.3974 102.774 58.6981C103.343 57.6484 104.156 56.7514 105.146 56.0834C106.268 55.3138 107.639 54.992 108.987 55.1814C109.734 55.2907 110.436 55.6066 111.013 56.0935C111.323 56.3488 111.569 56.6715 111.735 57.0369C111.9 57.4023 111.979 57.8007 111.966 58.2015C111.93 58.6139 111.809 59.0145 111.612 59.3788C111.415 59.743 111.146 60.0631 110.821 60.3196C110.185 60.8801 109.393 61.2336 108.551 61.3331C107.685 61.4007 106.814 61.2819 105.998 60.9847C105.181 60.6875 104.438 60.2188 103.818 59.6102C102.484 58.3423 101.65 56.6376 101.467 54.8064C101.282 52.9203 101.517 51.0167 102.156 49.2324C102.756 47.3265 103.892 45.634 105.429 44.3577C106.262 43.707 107.265 43.3127 108.318 43.2226C108.868 43.1571 109.426 43.214 109.951 43.3892C110.477 43.5644 110.957 43.8536 111.358 44.2361C111.768 44.6555 112.01 45.2109 112.037 45.7968C112.055 46.3776 111.896 46.9502 111.581 47.4386C110.954 48.3766 109.988 49.0344 108.885 49.273C107.819 49.4793 106.718 49.4067 105.688 49.0623C104.658 48.7178 103.735 48.1131 103.007 47.3069C101.67 45.7203 100.868 43.7517 100.717 41.6822C100.488 39.7174 100.685 37.7265 101.294 35.8447C101.877 34.0016 103.099 32.4273 104.74 31.4058C105.519 30.9064 106.404 30.5959 107.324 30.4991C108.245 30.4023 109.175 30.5219 110.041 30.8484C110.474 31.0168 110.86 31.2901 111.162 31.6438C111.464 31.9975 111.675 32.4206 111.774 32.8753C111.849 33.3135 111.835 33.7627 111.73 34.195C111.625 34.6273 111.433 35.0335 111.166 35.3886C110.618 36.0105 109.897 36.4553 109.096 36.6665C108.295 36.8776 107.449 36.8456 106.666 36.5744C105.275 36.1098 104.045 35.2592 103.119 34.1218C101.496 32.1967 100.558 29.7868 100.453 27.2709C100.387 25.3835 100.813 23.5114 101.69 21.8387C102.229 20.7875 102.938 19.8322 103.788 19.0112C104.005 18.798 104.235 18.5984 104.477 18.4133C104.649 18.2815 104.73 18.2207 104.74 18.2309C103.574 19.2856 102.612 20.5465 101.903 21.9502C100.964 23.8632 100.611 26.0102 100.887 28.1229C101.163 30.2355 102.055 32.2199 103.453 33.8279C104.318 34.8976 105.466 35.702 106.767 36.1487C107.452 36.3901 108.194 36.4226 108.897 36.2422C109.601 36.0618 110.235 35.6765 110.72 35.1353C110.95 34.8366 111.114 34.4924 111.201 34.1255C111.289 33.7587 111.297 33.3774 111.226 33.007C111.149 32.6352 110.978 32.2892 110.73 32.0019C110.482 31.7145 110.164 31.4954 109.807 31.3652C109.023 31.0772 108.181 30.9766 107.351 31.0717C106.52 31.1667 105.723 31.4546 105.024 31.9125C103.508 32.8686 102.383 34.335 101.852 36.0474C101.28 37.8464 101.097 39.7463 101.315 41.6214C101.459 43.5601 102.211 45.404 103.463 46.8913C104.115 47.6161 104.942 48.1609 105.865 48.4733C106.788 48.7857 107.776 48.8551 108.733 48.675C109.673 48.4707 110.497 47.9116 111.034 47.1143C111.297 46.7538 111.426 46.3132 111.401 45.8677C111.375 45.4222 111.195 44.9995 110.892 44.6719C110.562 44.3547 110.168 44.1125 109.736 43.9621C109.304 43.8117 108.844 43.7565 108.389 43.8003C107.456 43.8787 106.567 44.2314 105.835 44.8138C104.4 46.0104 103.343 47.5984 102.794 49.3844C102.17 51.0806 101.934 52.8955 102.105 54.6949C102.26 56.3947 103.023 57.9815 104.254 59.1643C104.814 59.7234 105.487 60.1557 106.228 60.4319C106.97 60.7082 107.762 60.822 108.551 60.7655C109.267 60.7348 109.953 60.4628 110.495 59.9937C111.038 59.5246 111.406 58.8859 111.54 58.1812C111.554 57.8515 111.491 57.5232 111.356 57.2223C111.22 56.9214 111.016 56.6563 110.76 56.4482C110.264 56.0145 109.657 55.7269 109.007 55.6172C107.763 55.4393 106.497 55.7242 105.45 56.4178C104.508 57.0429 103.73 57.8837 103.179 58.8704C102.343 60.4991 102.044 62.3515 102.328 64.1606C102.469 65.3207 102.734 66.4623 103.119 67.5658C103.402 68.2854 103.565 68.6705 103.544 68.6908Z" fill="#FAFAFA"/>
<path d="M136.492 22.5583H113.324V68.0624H136.492V22.5583Z" fill="#16A18C"/>
<g opacity="0.2">
<path d="M136.492 22.5583H113.324V68.0624H136.492V22.5583Z" fill="black"/>
</g>
<path d="M135.691 30.1187C135.691 30.2909 130.675 30.4328 124.482 30.4328C118.29 30.4328 113.253 30.2909 113.253 30.1187C113.253 29.9464 118.27 29.8045 124.462 29.8045C130.654 29.8045 135.691 29.9464 135.691 30.1187Z" fill="#E0E0E0"/>
<path d="M135.975 33.5745C135.975 33.7468 131.019 33.8887 124.908 33.8887C118.797 33.8887 113.841 33.7468 113.841 33.5745C113.841 33.4023 118.797 33.2604 124.908 33.2604C131.019 33.2604 135.975 33.4023 135.975 33.5745Z" fill="#E0E0E0"/>
<path d="M136.725 62.9242C136.725 63.0964 131.505 63.2383 125.07 63.2383C118.635 63.2383 113.415 63.0964 113.415 62.9242C113.415 62.7519 118.635 62.61 125.07 62.61C131.505 62.61 136.725 62.7519 136.725 62.9242Z" fill="#E0E0E0"/>
<path d="M136.411 58.8704C136.411 59.0426 131.343 59.1845 125.06 59.1845C118.777 59.1845 113.699 59.0426 113.699 58.8704C113.699 58.6981 118.766 58.5562 125.06 58.5562C131.354 58.5562 136.411 58.6981 136.411 58.8704Z" fill="#E0E0E0"/>
<path d="M201.971 38.3276H147.092V42.5943H201.971V38.3276Z" fill="#263238"/>
<path d="M151.156 42.3206C151.014 42.3206 150.893 41.4795 150.893 40.4356C150.893 39.3918 151.014 38.5506 151.156 38.5506C151.298 38.5506 151.42 39.3918 151.42 40.4356C151.42 41.4795 151.308 42.3206 151.156 42.3206Z" fill="white"/>
<path d="M198.536 42.3206C198.384 42.3206 198.272 41.4795 198.272 40.4356C198.272 39.3918 198.384 38.5506 198.536 38.5506C198.688 38.5506 198.799 39.3918 198.799 40.4356C198.799 41.4795 198.678 42.3206 198.536 42.3206Z" fill="white"/>
<path d="M196.357 40.4356C196.357 40.5775 186.82 40.6991 175.074 40.6991C163.328 40.6991 153.792 40.5775 153.792 40.4356C153.792 40.2938 163.338 40.1721 175.074 40.1721C186.81 40.1721 196.357 40.2836 196.357 40.4356Z" fill="white"/>
<path d="M225.727 26.6425H218.744V68.184H225.727V26.6425Z" fill="#16A18C"/>
<g opacity="0.3">
<path d="M225.727 26.6425H218.744V68.184H225.727V26.6425Z" fill="black"/>
</g>
<path d="M243.219 20.8456H225.848V68.184H243.219V20.8456Z" fill="#455A64"/>
<path d="M243.421 24.2609C240.474 24.5278 237.512 24.6158 234.554 24.5244C231.595 24.6161 228.634 24.5282 225.686 24.2609C228.634 23.9997 231.595 23.9117 234.554 23.9974C237.512 23.9121 240.473 24 243.421 24.2609Z" fill="#FAFAFA"/>
<path d="M242.469 26.5108C239.68 26.7716 236.877 26.8596 234.077 26.7743C231.278 26.8599 228.475 26.7719 225.686 26.5108C228.475 26.2436 231.278 26.1555 234.077 26.2473C236.877 26.1559 239.68 26.2439 242.469 26.5108Z" fill="#FAFAFA"/>
<path d="M235.03 58.8501C234.888 58.8501 234.767 52.5768 234.767 44.8441C234.767 37.1115 234.888 30.8382 235.03 30.8382C235.172 30.8382 235.304 37.1115 235.304 44.8441C235.304 52.5768 235.182 58.8501 235.03 58.8501Z" fill="#FAFAFA"/>
<path d="M243.229 63.1775C240.399 63.4384 237.556 63.5264 234.716 63.441C231.879 63.5263 229.039 63.4383 226.213 63.1775C229.039 62.9107 231.879 62.8227 234.716 62.914C237.556 62.8225 240.4 62.9105 243.229 63.1775Z" fill="#FAFAFA"/>
<path d="M243.229 65.2044C240.329 65.4713 237.415 65.5593 234.503 65.4679C231.595 65.5595 228.685 65.4714 225.788 65.2044C228.685 64.9435 231.595 64.8555 234.503 64.941C237.415 64.8557 240.328 64.9437 243.229 65.2044Z" fill="#FAFAFA"/>
<path d="M218.855 20.8456H204.9V68.184H218.855V20.8456Z" fill="#16A18C"/>
<path d="M218.947 42.5842C218.366 43.2125 217.717 43.7734 217.011 44.2564C215.764 45.209 214.021 46.486 212.055 47.8339C210.089 49.1818 208.265 50.3574 206.927 51.1783C206.234 51.6634 205.489 52.0712 204.708 52.3944C205.33 51.8172 206.009 51.3045 206.734 50.8641L211.802 47.3981L216.869 43.9523C217.514 43.428 218.21 42.9697 218.947 42.5842Z" fill="#FAFAFA"/>
<path d="M219.007 35.1353C216.849 37.1318 214.575 38.9998 212.197 40.7295C209.938 42.5958 207.569 44.3251 205.103 45.9083C207.261 43.9117 209.535 42.0437 211.913 40.314C214.168 38.4423 216.538 36.7127 219.007 35.1353Z" fill="#FAFAFA"/>
<path d="M146.941 266.193H191.259V253.464H146.941V266.193Z" fill="#455A64"/>
<path d="M187.084 265.311C186.732 261.431 186.732 257.527 187.084 253.646C187.435 257.527 187.435 261.431 187.084 265.311Z" fill="#263238"/>
<path d="M185.138 265.311C184.786 261.431 184.786 257.527 185.138 253.646C185.489 257.527 185.489 261.431 185.138 265.311Z" fill="#263238"/>
<path d="M153.792 265.311C153.44 261.431 153.44 257.527 153.792 253.646C154.143 257.527 154.143 261.431 153.792 265.311Z" fill="#263238"/>
<path d="M152.089 265.311C151.738 261.431 151.738 257.527 152.089 253.646C152.441 257.527 152.441 261.431 152.089 265.311Z" fill="#263238"/>
<path d="M156.832 259.595C156.832 259.453 162.578 259.332 169.662 259.332C176.746 259.332 182.493 259.453 182.493 259.595C182.493 259.737 176.757 259.859 169.662 259.859C162.568 259.859 156.832 259.737 156.832 259.595Z" fill="#263238"/>
<path d="M144.073 254.629H188.391V241.9H144.073V254.629Z" fill="#16A18C"/>
<path d="M184.195 253.758C183.844 249.874 183.844 245.966 184.195 242.083C184.546 245.966 184.546 249.874 184.195 253.758Z" fill="#263238"/>
<path d="M182.28 253.758C181.929 249.874 181.929 245.966 182.28 242.083C182.631 245.966 182.631 249.874 182.28 253.758Z" fill="#263238"/>
<path d="M150.964 253.758C150.613 249.874 150.613 245.966 150.964 242.083C151.315 245.966 151.315 249.874 150.964 253.758Z" fill="#263238"/>
<path d="M149.221 253.758C148.869 249.874 148.869 245.966 149.221 242.083C149.572 245.966 149.572 249.874 149.221 253.758Z" fill="#263238"/>
<path d="M153.974 248.032C153.974 247.89 159.72 247.768 166.804 247.768C173.888 247.768 179.645 247.89 179.645 248.032C179.645 248.174 173.898 248.295 166.804 248.295C159.71 248.295 153.974 248.184 153.974 248.032Z" fill="#263238"/>
<path d="M194.989 266.598H201.667V216.635H194.989V266.598Z" fill="#16A18C"/>
<path d="M195.272 223.445C197.335 223.864 199.462 223.864 201.525 223.445C199.462 223.026 197.335 223.026 195.272 223.445Z" fill="#FAFAFA"/>
<path d="M195.13 222.361C197.194 222.78 199.32 222.78 201.383 222.361C199.32 221.942 197.194 221.942 195.13 222.361Z" fill="#FAFAFA"/>
<path d="M195.272 262.747C197.335 263.166 199.462 263.166 201.525 262.747C199.462 262.328 197.335 262.328 195.272 262.747Z" fill="#FAFAFA"/>
<path d="M195.13 261.652C197.194 262.071 199.32 262.071 201.383 261.652C199.32 261.234 197.194 261.234 195.13 261.652Z" fill="#FAFAFA"/>
<path d="M198.536 255.126C198.708 255.126 198.85 249.41 198.85 242.346C198.85 235.282 198.708 229.567 198.536 229.567C198.364 229.567 198.222 235.293 198.222 242.346C198.222 249.4 198.384 255.126 198.536 255.126Z" fill="#FAFAFA"/>
<path d="M224.906 266.284H238.253V216.321H224.906V266.284Z" fill="#263238"/>
<path d="M234.503 266.933C234.564 266.847 234.615 266.755 234.655 266.659C234.757 266.477 234.878 266.193 235.04 265.828C235.499 264.74 235.822 263.6 236.003 262.433C236.341 260.566 236.067 258.639 235.223 256.94C234.661 255.889 233.85 254.991 232.861 254.325C231.735 253.556 230.361 253.234 229.01 253.423C228.263 253.533 227.561 253.848 226.983 254.335C226.674 254.591 226.427 254.913 226.262 255.279C226.097 255.644 226.018 256.043 226.031 256.443C226.066 256.855 226.185 257.255 226.38 257.619C226.575 257.983 226.843 258.304 227.166 258.561C227.806 259.122 228.601 259.476 229.446 259.575C230.312 259.643 231.183 259.524 231.999 259.227C232.816 258.929 233.559 258.461 234.179 257.852C235.513 256.584 236.347 254.879 236.53 253.048C236.712 251.161 236.473 249.258 235.831 247.474C235.239 245.565 234.101 243.87 232.557 242.6C231.73 241.948 230.729 241.553 229.679 241.464C229.125 241.406 228.565 241.47 228.039 241.654C227.513 241.838 227.035 242.137 226.639 242.529C226.23 242.95 225.985 243.503 225.95 244.089C225.94 244.67 226.103 245.241 226.416 245.731C227.039 246.672 228.007 247.331 229.112 247.565C230.178 247.772 231.279 247.699 232.309 247.355C233.339 247.01 234.262 246.406 234.99 245.599C236.327 244.013 237.129 242.044 237.28 239.975C237.509 238.01 237.312 236.019 236.702 234.137C236.12 232.294 234.898 230.72 233.257 229.698C232.478 229.199 231.593 228.888 230.672 228.792C229.752 228.695 228.822 228.814 227.956 229.141C227.521 229.308 227.135 229.581 226.833 229.935C226.53 230.288 226.321 230.712 226.223 231.168C226.147 231.606 226.162 232.055 226.267 232.487C226.371 232.92 226.564 233.326 226.831 233.681C227.379 234.303 228.099 234.748 228.901 234.959C229.702 235.17 230.548 235.138 231.331 234.867C232.729 234.386 233.96 233.513 234.878 232.354C236.501 230.428 237.439 228.018 237.544 225.503C237.605 223.616 237.179 221.745 236.307 220.07C235.768 219.019 235.059 218.064 234.209 217.243C233.915 216.969 233.682 216.767 233.52 216.645C233.358 216.523 233.267 216.452 233.257 216.463C234.42 217.521 235.381 218.781 236.094 220.182C237.032 222.095 237.386 224.242 237.11 226.355C236.834 228.467 235.941 230.452 234.544 232.06C233.674 233.144 232.514 233.96 231.199 234.411C230.514 234.648 229.773 234.679 229.071 234.498C228.368 234.318 227.734 233.935 227.247 233.397C227.025 233.1 226.866 232.761 226.781 232.4C226.695 232.039 226.685 231.665 226.75 231.3C226.832 230.93 227.004 230.586 227.252 230.299C227.5 230.012 227.815 229.792 228.169 229.658C228.954 229.369 229.795 229.268 230.626 229.363C231.457 229.458 232.253 229.746 232.953 230.205C234.475 231.157 235.604 232.625 236.135 234.34C236.708 236.139 236.887 238.04 236.662 239.914C236.525 241.853 235.776 243.698 234.523 245.184C233.871 245.908 233.044 246.452 232.121 246.764C231.199 247.077 230.211 247.147 229.253 246.968C228.312 246.761 227.486 246.203 226.943 245.407C226.681 245.045 226.553 244.604 226.581 244.158C226.609 243.713 226.79 243.291 227.095 242.964C227.424 242.647 227.818 242.404 228.251 242.254C228.683 242.103 229.143 242.048 229.598 242.093C230.53 242.173 231.418 242.525 232.152 243.106C233.584 244.306 234.64 245.893 235.192 247.677C235.817 249.373 236.053 251.188 235.881 252.987C235.726 254.687 234.963 256.274 233.733 257.457C233.173 258.016 232.5 258.448 231.758 258.724C231.017 259.001 230.225 259.114 229.436 259.058C228.719 259.027 228.034 258.755 227.491 258.286C226.949 257.817 226.58 257.178 226.446 256.474C226.431 256.144 226.493 255.815 226.629 255.514C226.764 255.213 226.969 254.948 227.227 254.741C227.723 254.307 228.33 254.019 228.98 253.91C230.221 253.729 231.484 254.014 232.527 254.71C233.475 255.331 234.257 256.172 234.807 257.163C235.647 258.791 235.942 260.645 235.648 262.453C235.493 263.606 235.211 264.737 234.807 265.828C234.686 266.19 234.585 266.559 234.503 266.933Z" fill="#FAFAFA"/>
<path d="M201.556 266.314H224.723V220.81H201.556V266.314Z" fill="#16A18C"/>
<g opacity="0.2">
<path d="M201.555 266.314H224.723V220.81H201.555V266.314Z" fill="black"/>
</g>
<path d="M202.356 228.361C202.356 228.533 207.373 228.675 213.565 228.675C219.757 228.675 224.774 228.533 224.774 228.361C224.774 228.188 219.707 228.046 213.565 228.046C207.423 228.046 202.356 228.188 202.356 228.361Z" fill="#E0E0E0"/>
<path d="M202.073 231.816C202.073 231.989 207.018 232.131 213.13 232.131C219.241 232.131 224.207 231.989 224.207 231.816C224.207 231.644 219.251 231.502 213.13 231.502C207.008 231.502 202.073 231.644 202.073 231.816Z" fill="#E0E0E0"/>
<path d="M201.323 261.136C201.323 261.308 206.542 261.45 212.977 261.45C219.413 261.45 224.632 261.308 224.632 261.136C224.632 260.963 219.413 260.821 212.977 260.821C206.542 260.821 201.323 260.994 201.323 261.136Z" fill="#E0E0E0"/>
<path d="M201.637 257.082C201.637 257.254 206.704 257.396 212.988 257.396C219.271 257.396 224.348 257.254 224.348 257.082C224.348 256.909 219.281 256.768 212.988 256.768C206.694 256.768 201.637 256.94 201.637 257.082Z" fill="#E0E0E0"/>
<path d="M136.076 241.89H190.955V237.624H136.076V241.89Z" fill="#263238"/>
<path d="M186.891 241.627C186.739 241.627 186.627 240.775 186.627 239.731C186.627 238.688 186.739 237.846 186.891 237.846C187.043 237.846 187.154 238.698 187.154 239.731C187.154 240.765 187.033 241.627 186.891 241.627Z" fill="white"/>
<path d="M139.512 241.627C139.37 241.627 139.248 240.775 139.248 239.731C139.248 238.688 139.37 237.846 139.512 237.846C139.654 237.846 139.775 238.698 139.775 239.731C139.775 240.765 139.664 241.627 139.512 241.627Z" fill="white"/>
<path d="M141.63 239.731C141.63 239.59 151.167 239.468 162.913 239.468C174.659 239.468 184.195 239.59 184.195 239.731C184.195 239.873 174.659 240.005 162.913 240.005C151.167 240.005 141.63 239.853 141.63 239.731Z" fill="white"/>
<path d="M112.311 266.416H119.293V224.874H112.311V266.416Z" fill="#16A18C"/>
<g opacity="0.3">
<path d="M112.311 266.416H119.293V224.874H112.311V266.416Z" fill="black"/>
</g>
<path d="M94.8289 266.416H112.199V219.077H94.8289V266.416Z" fill="#16A18C"/>
<path d="M94.6162 222.503C97.5678 222.242 100.532 222.154 103.494 222.239C106.453 222.154 109.414 222.242 112.362 222.503C109.414 222.77 106.453 222.858 103.494 222.766C100.532 222.858 97.5675 222.77 94.6162 222.503Z" fill="#FAFAFA"/>
<path d="M95.5786 224.753C98.3673 224.486 101.17 224.398 103.97 224.489C106.77 224.397 109.573 224.485 112.361 224.753C109.572 225.014 106.77 225.102 103.97 225.016C101.17 225.101 98.3676 225.013 95.5786 224.753Z" fill="#FAFAFA"/>
<path d="M103.007 257.082C102.866 257.082 102.744 250.808 102.744 243.076C102.744 235.343 102.866 229.07 103.007 229.07C103.149 229.07 103.271 235.343 103.271 243.076C103.271 250.808 103.119 257.082 103.007 257.082Z" fill="#FAFAFA"/>
<path d="M94.8186 261.419C97.6445 261.152 100.484 261.064 103.321 261.156C106.162 261.064 109.005 261.152 111.835 261.419C109.005 261.68 106.162 261.768 103.321 261.683C100.484 261.768 97.6449 261.68 94.8186 261.419Z" fill="#FAFAFA"/>
<path d="M94.8186 263.446C97.716 263.185 100.626 263.097 103.534 263.183C106.446 263.097 109.359 263.185 112.26 263.446C109.36 263.713 106.446 263.801 103.534 263.71C100.626 263.801 97.7157 263.713 94.8186 263.446Z" fill="#FAFAFA"/>
<path d="M119.192 266.416H133.147V219.077H119.192V266.416Z" fill="#16A18C"/>
<path d="M119.101 240.867C119.865 241.236 120.589 241.684 121.26 242.204L126.327 245.64L131.394 249.106C132.12 249.546 132.799 250.059 133.421 250.636C132.636 250.312 131.889 249.904 131.192 249.42C129.864 248.599 128.05 247.393 126.074 246.076C124.097 244.758 122.364 243.451 121.118 242.498C120.38 242.04 119.703 241.492 119.101 240.867Z" fill="#FAFAFA"/>
<path d="M119.04 233.418C121.508 234.998 123.877 236.727 126.134 238.596C128.512 240.326 130.786 242.194 132.945 244.191C130.476 242.612 128.107 240.882 125.85 239.012C123.474 237.281 121.2 235.413 119.04 233.418Z" fill="#FAFAFA"/>
<path d="M120.054 132.143C120.054 132.295 115.138 132.407 109.078 132.407C103.018 132.407 98.1023 132.295 98.1023 132.143C98.1023 131.991 103.018 131.88 109.078 131.88C115.138 131.88 120.054 132.001 120.054 132.143Z" fill="#FAFAFA"/>
<path d="M120.003 96.0844H98.001V133.998H120.003V96.0844Z" fill="#16A18C"/>
<path d="M181.378 87.2775H164.007V134.616H181.378V87.2775Z" fill="#455A64"/>
<path d="M181.58 90.6928C178.632 90.9537 175.671 91.0416 172.713 90.9563C169.751 91.0418 166.786 90.9538 163.835 90.6928C166.786 90.4318 169.751 90.3438 172.713 90.4293C175.671 90.344 178.632 90.432 181.58 90.6928Z" fill="#FAFAFA"/>
<path d="M180.618 92.9021C177.828 93.163 175.026 93.251 172.226 93.1656C169.426 93.251 166.624 93.163 163.835 92.9021C166.623 92.6353 169.426 92.5473 172.226 92.6386C175.026 92.5473 177.829 92.6353 180.618 92.9021Z" fill="#FAFAFA"/>
<path d="M173.189 125.272C173.047 125.272 172.925 119.009 172.925 111.276C172.925 103.543 173.047 97.2702 173.189 97.2702C173.331 97.2702 173.452 103.533 173.452 111.276C173.452 119.019 173.341 125.272 173.189 125.272Z" fill="#FAFAFA"/>
<path d="M181.378 129.609C178.552 129.871 175.712 129.959 172.875 129.873C170.038 129.958 167.198 129.87 164.372 129.609C167.198 129.336 170.038 129.244 172.875 129.336C175.712 129.244 178.552 129.336 181.378 129.609Z" fill="#FAFAFA"/>
<path d="M181.378 131.636C178.48 131.897 175.57 131.985 172.662 131.9C169.754 131.985 166.844 131.897 163.946 131.636C166.844 131.376 169.754 131.288 172.662 131.373C175.57 131.288 178.48 131.376 181.378 131.636Z" fill="#FAFAFA"/>
<path d="M164.018 82.1595H150.062V134.616H164.018V82.1595Z" fill="#16A18C"/>
<path d="M164.108 106.249C163.528 106.907 162.883 107.505 162.183 108.033C160.946 109.046 159.203 110.486 157.227 111.985C155.251 113.485 153.437 114.783 152.099 115.695C151.406 116.231 150.659 116.693 149.869 117.073C150.486 116.444 151.165 115.881 151.896 115.391L156.964 111.56L162.031 107.739C162.671 107.174 163.367 106.675 164.108 106.249Z" fill="#FAFAFA"/>
<path d="M164.169 98.0302C162.023 100.217 159.753 102.277 157.369 104.202C155.102 106.266 152.717 108.195 150.224 109.979C152.37 107.792 154.641 105.732 157.024 103.807C159.291 101.743 161.677 99.8143 164.169 98.0302Z" fill="#FAFAFA"/>
<path d="M224.673 84.6729H217.994V134.636H224.673V84.6729Z" fill="#16A18C"/>
<path d="M224.399 91.4833C222.336 91.9021 220.21 91.9021 218.146 91.4833C220.21 91.0646 222.336 91.0646 224.399 91.4833Z" fill="#FAFAFA"/>
<path d="M224.531 90.399C222.467 90.8177 220.341 90.8177 218.278 90.399C220.341 89.9802 222.467 89.9802 224.531 90.399Z" fill="#FAFAFA"/>
<path d="M224.399 130.785C222.336 131.204 220.21 131.204 218.146 130.785C220.21 130.366 222.336 130.366 224.399 130.785Z" fill="#FAFAFA"/>
<path d="M224.531 129.691C222.467 130.109 220.341 130.109 218.278 129.691C220.341 129.272 222.467 129.272 224.531 129.691Z" fill="#FAFAFA"/>
<path d="M221.136 123.164C220.964 123.164 220.822 117.448 220.822 110.384C220.822 103.32 220.964 97.6046 221.136 97.6046C221.308 97.6046 221.45 103.32 221.45 110.384C221.45 117.448 221.308 123.164 221.136 123.164Z" fill="#FAFAFA"/>
<path d="M194.756 84.3588H181.408V134.322H194.756V84.3588Z" fill="#263238"/>
<path d="M185.209 134.971C185.142 134.887 185.087 134.795 185.046 134.697C184.955 134.515 184.823 134.231 184.671 133.866C184.195 132.78 183.855 131.64 183.658 130.471C183.32 128.604 183.594 126.677 184.438 124.978C185.006 123.931 185.816 123.034 186.8 122.363C187.926 121.594 189.3 121.272 190.651 121.461C191.398 121.571 192.1 121.886 192.678 122.373C192.986 122.63 193.233 122.952 193.4 123.317C193.567 123.682 193.649 124.08 193.64 124.481C193.604 124.894 193.483 125.294 193.286 125.659C193.09 126.023 192.82 126.343 192.495 126.6C191.855 127.16 191.06 127.514 190.215 127.613C189.349 127.681 188.478 127.562 187.662 127.265C186.845 126.967 186.102 126.499 185.482 125.89C184.147 124.624 183.315 122.918 183.141 121.086C182.951 119.2 183.187 117.295 183.83 115.512C184.426 113.604 185.563 111.911 187.104 110.638C187.932 109.987 188.932 109.593 189.982 109.503C190.532 109.437 191.09 109.494 191.615 109.669C192.141 109.844 192.621 110.134 193.022 110.516C193.431 110.937 193.676 111.491 193.711 112.077C193.729 112.658 193.57 113.23 193.255 113.719C192.629 114.657 191.662 115.314 190.56 115.553C189.492 115.76 188.389 115.688 187.357 115.343C186.326 114.999 185.4 114.394 184.671 113.587C183.339 111.994 182.541 110.023 182.391 107.952C182.16 105.991 182.353 104.004 182.959 102.125C183.544 100.28 184.77 98.7054 186.415 97.6857C187.194 97.1863 188.078 96.8758 188.999 96.779C189.919 96.6822 190.849 96.8018 191.715 97.1283C192.148 97.2957 192.533 97.5689 192.834 97.9229C193.135 98.2769 193.342 98.7005 193.438 99.1552C193.516 99.5934 193.502 100.043 193.398 100.476C193.293 100.908 193.1 101.315 192.83 101.669C192.283 102.292 191.562 102.737 190.761 102.948C189.959 103.16 189.113 103.127 188.33 102.854C186.933 102.37 185.703 101.499 184.783 100.341C183.158 98.4176 182.223 96.006 182.128 93.49C182.076 91.9576 182.345 90.4313 182.917 89.009C183.49 87.5866 184.353 86.2996 185.452 85.2303C185.67 85.014 185.903 84.8141 186.151 84.6324C186.227 84.5606 186.312 84.4992 186.404 84.45C185.243 85.5072 184.285 86.7677 183.577 88.1693C182.763 89.8133 182.383 91.6377 182.472 93.4697C182.609 95.8946 183.543 98.2065 185.127 100.047C185.996 101.131 187.156 101.943 188.472 102.388C189.155 102.629 189.895 102.661 190.597 102.48C191.299 102.3 191.931 101.915 192.414 101.375C192.636 101.078 192.795 100.738 192.88 100.377C192.966 100.016 192.976 99.6418 192.911 99.2768C192.832 98.9057 192.66 98.5606 192.412 98.2735C192.164 97.9865 191.848 97.7668 191.492 97.635C190.707 97.3469 189.866 97.2464 189.035 97.3414C188.205 97.4365 187.408 97.7244 186.708 98.1823C185.186 99.1346 184.057 100.602 183.526 102.317C182.958 104.117 182.778 106.017 182.999 107.891C183.136 109.83 183.885 111.675 185.138 113.161C185.791 113.886 186.62 114.431 187.545 114.743C188.469 115.055 189.458 115.125 190.418 114.945C191.355 114.736 192.177 114.178 192.718 113.384C192.98 113.022 193.108 112.581 193.08 112.136C193.052 111.69 192.871 111.268 192.566 110.942C192.238 110.625 191.846 110.383 191.415 110.232C190.985 110.082 190.527 110.026 190.073 110.07C189.14 110.149 188.252 110.501 187.519 111.084C186.086 112.282 185.03 113.869 184.479 115.654C183.863 117.353 183.628 119.165 183.79 120.965C183.948 122.666 184.714 124.253 185.948 125.434C186.507 125.995 187.18 126.428 187.922 126.705C188.663 126.981 189.456 127.094 190.245 127.035C190.971 127.016 191.668 126.749 192.221 126.279C192.774 125.809 193.15 125.164 193.286 124.451C193.297 124.122 193.233 123.794 193.098 123.494C192.962 123.193 192.76 122.928 192.505 122.718C192.009 122.284 191.402 121.997 190.752 121.887C189.508 121.703 188.24 121.989 187.195 122.688C186.252 123.314 185.47 124.154 184.915 125.14C184.085 126.771 183.791 128.622 184.073 130.43C184.229 131.583 184.511 132.715 184.915 133.805C185.016 134.565 185.209 134.95 185.209 134.971Z" fill="#FAFAFA"/>
<path d="M218.106 88.8382H194.938V134.342H218.106V88.8382Z" fill="#16A18C"/>
<g opacity="0.2">
<path d="M218.106 88.8382H194.938V134.342H218.106V88.8382Z" fill="black"/>
</g>
<path d="M217.305 96.3986C217.305 96.5709 212.288 96.7127 206.096 96.7127C199.904 96.7127 194.887 96.5709 194.887 96.3986C194.887 96.2263 199.904 96.0844 206.096 96.0844C212.288 96.0844 217.305 96.2263 217.305 96.3986Z" fill="#E0E0E0"/>
<path d="M217.639 99.8544C217.639 100.027 212.683 100.169 206.572 100.169C200.461 100.169 195.505 100.027 195.505 99.8544C195.505 99.6821 200.461 99.5403 206.572 99.5403C212.683 99.5403 217.639 99.6821 217.639 99.8544Z" fill="#E0E0E0"/>
<path d="M218.339 129.204C218.339 129.376 213.119 129.518 206.684 129.518C200.248 129.518 195.029 129.376 195.029 129.204C195.029 129.032 200.248 128.89 206.684 128.89C213.119 128.89 218.339 129.032 218.339 129.204Z" fill="#E0E0E0"/>
<path d="M218.024 125.15C218.024 125.323 212.957 125.464 206.674 125.464C200.39 125.464 195.343 125.333 195.343 125.15C195.343 124.968 200.411 124.836 206.694 124.836C212.977 124.836 218.024 124.978 218.024 125.15Z" fill="#E0E0E0"/>
<path d="M150.072 84.0344H136.725V133.998H150.072V84.0344Z" fill="#455A64"/>
<path d="M140.475 134.646C140.414 134.561 140.363 134.469 140.323 134.373C140.232 134.19 140.1 133.917 139.938 133.542C139.462 132.459 139.121 131.323 138.924 130.157C138.586 128.286 138.86 126.357 139.705 124.654C140.264 123.603 141.075 122.708 142.066 122.049C143.191 121.276 144.565 120.951 145.917 121.137C146.666 121.249 147.368 121.569 147.944 122.059C148.254 122.314 148.501 122.637 148.666 123.002C148.831 123.368 148.91 123.766 148.897 124.167C148.861 124.579 148.742 124.979 148.547 125.343C148.352 125.707 148.085 126.028 147.762 126.285C147.116 126.828 146.321 127.164 145.481 127.248C144.615 127.316 143.744 127.197 142.928 126.9C142.112 126.603 141.368 126.134 140.748 125.525C139.412 124.259 138.578 122.553 138.397 120.722C138.216 118.835 138.455 116.931 139.096 115.148C139.684 113.239 140.823 111.546 142.37 110.283C143.194 109.625 144.197 109.229 145.248 109.148C145.798 109.079 146.357 109.135 146.883 109.31C147.409 109.486 147.889 109.776 148.289 110.161C148.696 110.587 148.94 111.144 148.978 111.732C148.996 112.311 148.833 112.882 148.511 113.364C147.89 114.302 146.926 114.96 145.826 115.198C144.758 115.407 143.654 115.336 142.622 114.992C141.59 114.647 140.665 114.041 139.938 113.232C138.598 111.647 137.797 109.677 137.647 107.607C137.424 105.643 137.621 103.653 138.225 101.77C138.801 99.9259 140.025 98.3527 141.671 97.3411C142.45 96.8371 143.336 96.5239 144.259 96.4271C145.182 96.3302 146.115 96.4524 146.981 96.7837C147.414 96.9528 147.797 97.2264 148.098 97.5801C148.399 97.9339 148.607 98.3567 148.704 98.8106C148.781 99.2488 148.767 99.6983 148.662 100.131C148.558 100.563 148.365 100.969 148.096 101.324C147.549 101.948 146.83 102.394 146.028 102.607C145.227 102.82 144.38 102.79 143.596 102.52C142.199 102.031 140.969 101.156 140.049 99.9964C138.426 98.0712 137.488 95.6613 137.384 93.1454C137.33 91.2592 137.755 89.3902 138.62 87.7133C139.16 86.662 139.868 85.7067 140.718 84.8858C140.939 84.6724 141.172 84.4727 141.417 84.2878C141.579 84.1662 141.661 84.1054 141.671 84.1155C140.504 85.1642 139.545 86.4224 138.843 87.8248C138.03 89.4723 137.65 91.3 137.738 93.1353C137.875 95.5584 138.805 97.8695 140.384 99.7126C141.26 100.792 142.423 101.603 143.738 102.054C144.422 102.29 145.161 102.32 145.862 102.14C146.563 101.96 147.195 101.577 147.68 101.04C147.903 100.743 148.061 100.404 148.147 100.043C148.232 99.682 148.242 99.3074 148.177 98.9424C148.098 98.5724 147.927 98.2285 147.679 97.943C147.43 97.6576 147.114 97.44 146.758 97.3107C145.974 97.0219 145.132 96.9209 144.301 97.016C143.471 97.111 142.674 97.3994 141.975 97.858C140.451 98.8082 139.321 100.276 138.792 101.993C138.219 103.788 138.039 105.686 138.265 107.557C138.403 109.495 139.151 111.341 140.404 112.827C141.056 113.553 141.885 114.099 142.81 114.411C143.735 114.724 144.725 114.792 145.684 114.61C146.625 114.409 147.45 113.849 147.984 113.05C148.247 112.69 148.376 112.25 148.348 111.806C148.32 111.362 148.138 110.941 147.832 110.617C147.506 110.296 147.112 110.05 146.679 109.9C146.246 109.749 145.785 109.696 145.329 109.746C144.396 109.821 143.506 110.174 142.775 110.759C141.343 111.959 140.288 113.546 139.735 115.33C139.114 117.027 138.878 118.841 139.046 120.64C139.201 122.34 139.964 123.927 141.194 125.11C141.755 125.669 142.428 126.101 143.169 126.379C143.91 126.657 144.702 126.774 145.491 126.721C146.217 126.698 146.914 126.428 147.466 125.956C148.018 125.485 148.394 124.84 148.532 124.127C148.542 123.797 148.476 123.468 148.339 123.168C148.202 122.867 147.997 122.602 147.741 122.394C147.245 121.96 146.638 121.672 145.988 121.563C144.746 121.384 143.482 121.673 142.441 122.373C141.491 122.988 140.708 123.826 140.161 124.816C139.327 126.446 139.032 128.298 139.319 130.106C139.475 131.259 139.757 132.39 140.161 133.481C140.285 133.864 140.39 134.253 140.475 134.646Z" fill="#FAFAFA"/>
<path d="M243.229 81.5109H224.673V133.998H243.229V81.5109Z" fill="#455A64"/>
<path d="M136.725 87.2775H119.375V134.008H136.725V87.2775Z" fill="#263238"/>
<path d="M118.939 110.577C118.798 110.86 118.606 111.114 118.371 111.327C117.781 111.944 117.097 112.464 116.345 112.867C115.224 113.484 113.989 113.867 112.716 113.992C111.15 114.141 109.572 113.883 108.136 113.242C106.626 112.594 105.308 111.783 104.011 111.317C102.902 110.835 101.677 110.684 100.484 110.881C99.6806 111.023 98.9389 111.405 98.3558 111.975C97.9504 112.391 97.8186 112.695 97.7781 112.675C97.8331 112.361 97.9814 112.071 98.2037 111.844C98.7708 111.176 99.5388 110.71 100.393 110.516C101.662 110.252 102.982 110.372 104.183 110.861C105.541 111.327 106.879 112.127 108.348 112.756C109.705 113.364 111.193 113.622 112.676 113.506C113.892 113.395 115.076 113.051 116.162 112.492C117.159 111.964 118.091 111.321 118.939 110.577Z" fill="#FAFAFA"/>
<path d="M119.334 115.198C119.193 115.476 119.004 115.726 118.776 115.938C118.183 116.555 117.5 117.078 116.75 117.489C115.632 118.103 114.401 118.483 113.132 118.603C111.565 118.753 109.987 118.494 108.551 117.853C107.031 117.205 105.713 116.404 104.426 115.928C103.312 115.451 102.086 115.3 100.889 115.492C100.091 115.641 99.3542 116.022 98.7709 116.587C98.3655 117.002 98.2338 117.316 98.1831 117.286C98.2477 116.974 98.3986 116.686 98.6189 116.455C99.186 115.787 99.954 115.322 100.808 115.127C102.074 114.868 103.389 114.988 104.588 115.472C105.946 115.938 107.294 116.749 108.753 117.367C110.115 117.973 111.605 118.234 113.091 118.127C114.307 118.014 115.49 117.67 116.577 117.114C117.565 116.581 118.49 115.938 119.334 115.198Z" fill="#FAFAFA"/>
<path d="M119.04 100.24C119.04 100.381 114.257 100.503 108.368 100.503C102.48 100.503 97.6968 100.381 97.6968 100.24C101.247 99.9726 104.809 99.8846 108.368 99.9761C111.928 99.8846 115.49 99.9726 119.04 100.24Z" fill="#FAFAFA"/>
<path d="M126.894 94.8075C126.894 94.8075 126.965 94.6352 127.239 94.4832C127.626 94.2847 128.069 94.2239 128.495 94.3109C128.821 94.3722 129.128 94.5073 129.394 94.7058C129.659 94.9043 129.875 95.161 130.026 95.4561C130.171 95.8452 130.199 96.2682 130.106 96.673C130.014 97.0778 129.805 97.4467 129.506 97.7343C129.206 98.022 128.829 98.2157 128.421 98.2917C128.013 98.3677 127.591 98.3226 127.208 98.162C126.919 97.9993 126.672 97.7718 126.486 97.4975C126.299 97.2233 126.179 96.9096 126.134 96.581C126.06 96.1522 126.139 95.7109 126.357 95.3345C126.519 95.071 126.671 94.9899 126.681 95.0102C126.475 95.4816 126.412 96.003 126.499 96.5101C126.556 96.7685 126.669 97.0113 126.83 97.2214C126.991 97.4315 127.197 97.6038 127.431 97.7262C127.719 97.8199 128.026 97.8344 128.321 97.7683C128.616 97.7022 128.887 97.5578 129.107 97.3504C129.327 97.143 129.487 96.8803 129.57 96.5897C129.653 96.2992 129.657 95.9916 129.58 95.6993C129.469 95.4551 129.307 95.2379 129.104 95.0629C128.901 94.8879 128.662 94.7592 128.404 94.6858C127.9 94.5688 127.373 94.6113 126.894 94.8075Z" fill="#FAFAFA"/>
<path d="M128.02 129.326C127.878 129.326 127.756 122.779 127.756 114.702C127.756 106.624 127.878 100.067 128.02 100.067C128.161 100.067 128.283 106.614 128.283 114.702C128.283 122.789 128.172 129.326 128.02 129.326Z" fill="#FAFAFA"/>
<path d="M120.003 292.958H98.001V330.871H120.003V292.958Z" fill="#16A18C"/>
<path d="M181.378 284.141H164.007V331.479H181.378V284.141Z" fill="#455A64"/>
<path d="M181.58 287.566C178.632 287.827 175.671 287.915 172.713 287.83C169.751 287.915 166.786 287.827 163.835 287.566C166.786 287.299 169.751 287.211 172.713 287.303C175.671 287.212 178.632 287.3 181.58 287.566Z" fill="#FAFAFA"/>
<path d="M180.618 289.806C177.829 290.073 175.026 290.161 172.226 290.07C169.426 290.161 166.623 290.073 163.835 289.806C166.624 289.545 169.426 289.457 172.226 289.543C175.026 289.457 177.828 289.545 180.618 289.806Z" fill="#FAFAFA"/>
<path d="M173.189 322.146C173.047 322.146 172.925 315.872 172.925 308.14C172.925 300.407 173.047 294.134 173.189 294.134C173.331 294.134 173.452 300.407 173.452 308.14C173.452 315.872 173.341 322.146 173.189 322.146Z" fill="#FAFAFA"/>
<path d="M181.378 326.473C178.552 326.74 175.712 326.828 172.875 326.737C170.038 326.828 167.198 326.74 164.372 326.473C167.198 326.212 170.038 326.124 172.875 326.21C175.712 326.124 178.552 326.212 181.378 326.473Z" fill="#FAFAFA"/>
<path d="M181.378 328.51C178.48 328.771 175.57 328.859 172.662 328.774C169.754 328.859 166.844 328.771 163.946 328.51C166.843 328.243 169.754 328.155 172.662 328.247C175.57 328.155 178.481 328.243 181.378 328.51Z" fill="#FAFAFA"/>
<path d="M164.018 279.023H150.062V331.479H164.018V279.023Z" fill="#16A18C"/>
<path d="M164.108 303.113C163.53 303.776 162.885 304.377 162.183 304.907C160.946 305.92 159.203 307.359 157.227 308.849C155.251 310.339 153.437 311.656 152.099 312.568C151.403 313.101 150.656 313.562 149.869 313.947C150.482 313.314 151.162 312.75 151.896 312.264L156.964 308.434L162.031 304.613C162.676 304.051 163.372 303.549 164.108 303.113Z" fill="#FAFAFA"/>
<path d="M164.169 294.904C162.023 297.09 159.753 299.151 157.369 301.076C155.102 303.14 152.717 305.068 150.224 306.853C152.37 304.666 154.641 302.605 157.024 300.681C159.291 298.617 161.677 296.688 164.169 294.904Z" fill="#FAFAFA"/>
<path d="M224.673 281.547H217.994V331.51H224.673V281.547Z" fill="#455A64"/>
<path d="M224.399 288.357C222.336 288.776 220.21 288.776 218.146 288.357C220.21 287.938 222.336 287.938 224.399 288.357Z" fill="#FAFAFA"/>
<path d="M224.531 287.262C224.531 287.445 223.132 287.577 221.409 287.577C219.686 287.577 218.278 287.445 218.278 287.262C220.341 286.844 222.467 286.844 224.531 287.262Z" fill="#FAFAFA"/>
<path d="M224.399 327.649C222.336 328.067 220.21 328.067 218.146 327.649C220.21 327.23 222.336 327.23 224.399 327.649Z" fill="#FAFAFA"/>
<path d="M224.531 326.564C222.467 326.983 220.341 326.983 218.278 326.564C220.341 326.145 222.467 326.145 224.531 326.564Z" fill="#FAFAFA"/>
<path d="M221.136 320.038C220.964 320.038 220.822 314.312 220.822 307.258C220.822 300.204 220.964 294.478 221.136 294.478C221.308 294.478 221.45 300.194 221.45 307.258C221.45 314.322 221.308 320.038 221.136 320.038Z" fill="#FAFAFA"/>
<path d="M194.756 281.232H181.408V331.196H194.756V281.232Z" fill="#263238"/>
<path d="M185.209 331.834C185.209 331.834 185.138 331.753 185.047 331.561C184.955 331.368 184.824 331.104 184.672 330.73C184.195 329.648 183.854 328.51 183.658 327.345C183.32 325.477 183.593 323.551 184.438 321.852C185.004 320.803 185.814 319.906 186.8 319.237C187.928 318.469 189.299 318.145 190.651 318.325C191.399 318.437 192.102 318.756 192.678 319.247C192.987 319.503 193.235 319.825 193.401 320.19C193.568 320.556 193.65 320.954 193.641 321.355C193.604 321.767 193.484 322.168 193.287 322.532C193.09 322.897 192.82 323.217 192.495 323.473C191.852 324.02 191.056 324.356 190.215 324.436C189.349 324.504 188.478 324.385 187.662 324.088C186.846 323.79 186.102 323.322 185.482 322.713C184.144 321.45 183.312 319.742 183.141 317.909C182.952 316.023 183.188 314.119 183.83 312.335C184.427 310.431 185.564 308.74 187.104 307.471C187.93 306.816 188.932 306.421 189.982 306.336C190.532 306.268 191.091 306.324 191.617 306.499C192.143 306.674 192.623 306.965 193.022 307.349C193.432 307.77 193.676 308.324 193.712 308.91C193.728 309.487 193.569 310.056 193.256 310.541C192.63 311.483 191.663 312.144 190.56 312.386C189.491 312.593 188.387 312.52 187.355 312.173C186.323 311.827 185.399 311.219 184.672 310.41C183.339 308.821 182.541 306.853 182.391 304.785C182.16 302.824 182.353 300.837 182.959 298.958C183.544 297.113 184.77 295.539 186.415 294.519C187.193 294.017 188.078 293.705 188.998 293.609C189.919 293.512 190.85 293.633 191.715 293.961C192.148 294.129 192.533 294.402 192.834 294.756C193.135 295.11 193.342 295.534 193.438 295.988C193.517 296.428 193.504 296.88 193.399 297.314C193.295 297.748 193.101 298.156 192.83 298.512C192.283 299.135 191.563 299.58 190.761 299.792C189.959 300.003 189.113 299.97 188.33 299.698C186.932 299.21 185.702 298.335 184.783 297.174C183.157 295.252 182.222 292.839 182.128 290.323C182.063 288.44 182.486 286.573 183.354 284.901C183.897 283.849 184.605 282.891 185.452 282.063C185.673 281.85 185.906 281.65 186.151 281.465C186.229 281.398 186.314 281.341 186.405 281.293C185.241 282.345 184.283 283.602 183.577 285.002C182.764 286.65 182.383 288.478 182.472 290.313C182.61 292.738 183.543 295.05 185.128 296.89C185.999 297.971 187.158 298.783 188.472 299.231C189.156 299.466 189.894 299.496 190.595 299.316C191.296 299.136 191.928 298.754 192.414 298.218C192.637 297.919 192.796 297.578 192.881 297.215C192.966 296.853 192.977 296.477 192.911 296.11C192.832 295.74 192.661 295.396 192.413 295.111C192.164 294.825 191.848 294.608 191.492 294.478C190.707 294.19 189.866 294.09 189.035 294.185C188.205 294.28 187.408 294.568 186.709 295.026C185.185 295.976 184.055 297.444 183.526 299.16C182.958 300.96 182.778 302.86 182.999 304.734C183.138 306.673 183.886 308.518 185.138 310.004C185.792 310.728 186.621 311.271 187.546 311.582C188.47 311.893 189.46 311.96 190.418 311.778C191.358 311.577 192.184 311.017 192.718 310.217C192.981 309.858 193.11 309.418 193.082 308.974C193.054 308.529 192.872 308.109 192.566 307.785C192.24 307.466 191.847 307.223 191.417 307.072C190.986 306.922 190.527 306.868 190.073 306.913C189.142 306.996 188.254 307.348 187.519 307.927C186.088 309.127 185.033 310.714 184.479 312.497C183.864 314.199 183.629 316.016 183.79 317.818C183.943 319.518 184.71 321.103 185.948 322.277C186.507 322.839 187.179 323.274 187.921 323.552C188.663 323.83 189.456 323.945 190.246 323.889C190.972 323.869 191.671 323.6 192.224 323.128C192.777 322.656 193.152 322.009 193.286 321.294C193.295 320.965 193.23 320.638 193.095 320.338C192.959 320.038 192.758 319.772 192.506 319.561C192.006 319.134 191.4 318.851 190.752 318.74C189.508 318.557 188.24 318.842 187.195 319.541C186.251 320.162 185.47 320.999 184.915 321.983C184.085 323.618 183.791 325.472 184.074 327.284C184.229 328.436 184.511 329.568 184.915 330.659C185.016 331.439 185.209 331.824 185.209 331.834Z" fill="#FAFAFA"/>
<path d="M218.106 285.712H194.938V331.216H218.106V285.712Z" fill="#16A18C"/>
<g opacity="0.2">
<path d="M218.106 285.712H194.938V331.216H218.106V285.712Z" fill="black"/>
</g>
<path d="M217.305 293.272C217.305 293.445 212.288 293.586 206.096 293.586C199.904 293.586 194.887 293.445 194.887 293.272C194.887 293.1 199.904 292.958 206.096 292.958C212.288 292.958 217.305 293.1 217.305 293.272Z" fill="#E0E0E0"/>
<path d="M217.639 296.718C217.639 296.89 212.683 297.032 206.572 297.032C200.461 297.032 195.505 296.89 195.505 296.718C195.505 296.546 200.461 296.404 206.572 296.404C212.683 296.404 217.639 296.546 217.639 296.718Z" fill="#E0E0E0"/>
<path d="M218.339 326.068C218.339 326.25 213.119 326.392 206.684 326.392C200.248 326.392 195.029 326.25 195.029 326.068C195.029 325.885 200.248 325.753 206.684 325.753C213.119 325.753 218.339 325.895 218.339 326.068Z" fill="#E0E0E0"/>
<path d="M218.024 322.014C218.024 322.196 212.957 322.328 206.673 322.328C200.39 322.328 195.323 322.196 195.323 322.014C195.323 321.831 200.39 321.7 206.673 321.7C212.957 321.7 218.024 321.842 218.024 322.014Z" fill="#E0E0E0"/>
<path d="M150.072 280.908H136.725V330.871H150.072V280.908Z" fill="#455A64"/>
<path d="M140.475 331.52C140.414 331.435 140.363 331.343 140.323 331.246C140.232 331.064 140.1 330.78 139.938 330.415C139.462 329.33 139.122 328.189 138.924 327.02C138.586 325.153 138.86 323.227 139.705 321.527C140.266 320.476 141.077 319.578 142.066 318.913C143.193 318.143 144.566 317.822 145.917 318.011C146.664 318.12 147.366 318.436 147.944 318.923C148.253 319.178 148.5 319.501 148.665 319.866C148.83 320.232 148.909 320.63 148.897 321.031C148.861 321.442 148.742 321.843 148.547 322.207C148.352 322.571 148.085 322.892 147.762 323.149C147.121 323.71 146.326 324.063 145.481 324.162C144.615 324.23 143.744 324.111 142.928 323.814C142.112 323.517 141.368 323.048 140.748 322.44C139.415 321.172 138.58 319.467 138.397 317.636C138.216 315.749 138.455 313.845 139.096 312.062C139.688 310.152 140.826 308.457 142.37 307.187C143.198 306.537 144.199 306.142 145.248 306.052C145.802 305.993 146.362 306.058 146.888 306.242C147.414 306.426 147.892 306.725 148.289 307.116C148.698 307.537 148.942 308.091 148.978 308.677C148.997 309.259 148.834 309.833 148.511 310.319C147.89 311.257 146.926 311.915 145.826 312.153C144.758 312.36 143.655 312.288 142.623 311.944C141.592 311.599 140.667 310.994 139.938 310.187C138.6 308.6 137.799 306.632 137.647 304.562C137.424 302.597 137.621 300.608 138.225 298.725C138.808 296.882 140.03 295.307 141.671 294.286C142.451 293.786 143.338 293.476 144.26 293.379C145.182 293.282 146.114 293.402 146.981 293.728C147.414 293.897 147.797 294.171 148.098 294.525C148.399 294.879 148.607 295.301 148.704 295.755C148.78 296.194 148.765 296.643 148.66 297.075C148.556 297.507 148.364 297.914 148.096 298.269C147.548 298.89 146.828 299.335 146.027 299.546C145.225 299.758 144.379 299.726 143.596 299.454C142.198 298.973 140.967 298.101 140.049 296.941C138.426 295.016 137.488 292.606 137.384 290.09C137.33 288.204 137.755 286.335 138.62 284.658C139.16 283.607 139.868 282.651 140.718 281.83C140.939 281.617 141.172 281.417 141.417 281.232C141.579 281.101 141.661 281.04 141.671 281.05C140.509 282.107 139.551 283.368 138.843 284.769C138.03 286.413 137.649 288.238 137.738 290.07C137.871 292.494 138.801 294.806 140.384 296.647C141.257 297.732 142.42 298.547 143.738 298.998C144.422 299.235 145.161 299.265 145.862 299.085C146.563 298.904 147.195 298.522 147.68 297.985C147.903 297.688 148.061 297.348 148.147 296.988C148.232 296.627 148.242 296.252 148.177 295.887C148.097 295.516 147.926 295.172 147.678 294.885C147.43 294.598 147.113 294.378 146.758 294.245C145.974 293.956 145.132 293.855 144.301 293.95C143.471 294.045 142.674 294.334 141.975 294.792C140.453 295.745 139.323 297.212 138.792 298.927C138.219 300.726 138.04 302.627 138.265 304.501C138.403 306.44 139.151 308.285 140.404 309.771C141.063 310.487 141.894 311.022 142.818 311.326C143.742 311.629 144.729 311.69 145.684 311.504C146.621 311.295 147.444 310.737 147.984 309.944C148.246 309.582 148.374 309.141 148.346 308.695C148.319 308.25 148.137 307.828 147.832 307.501C147.503 307.183 147.109 306.941 146.677 306.79C146.244 306.64 145.785 306.585 145.329 306.63C144.397 306.71 143.509 307.062 142.775 307.643C141.343 308.842 140.288 310.429 139.735 312.214C139.114 313.911 138.878 315.725 139.046 317.524C139.201 319.224 139.964 320.811 141.194 321.994C141.754 322.553 142.427 322.985 143.169 323.261C143.91 323.538 144.702 323.651 145.491 323.595C146.216 323.574 146.912 323.306 147.465 322.836C148.018 322.367 148.394 321.723 148.532 321.011C148.544 320.68 148.478 320.351 148.341 320.051C148.204 319.75 147.999 319.485 147.741 319.278C147.247 318.84 146.639 318.552 145.988 318.446C144.747 318.265 143.483 318.551 142.441 319.247C141.493 319.868 140.711 320.709 140.161 321.7C139.327 323.329 139.032 325.182 139.319 326.99C139.475 328.142 139.757 329.274 140.161 330.365C140.287 330.744 140.392 331.129 140.475 331.52Z" fill="#FAFAFA"/>
<path d="M243.229 278.385H224.673V330.871H243.229V278.385Z" fill="#455A64"/>
<path d="M136.725 284.141H119.375V330.871H136.725V284.141Z" fill="#263238"/>
<path d="M118.939 307.45C118.799 307.731 118.607 307.983 118.371 308.19C117.785 308.814 117.1 309.338 116.345 309.741C115.222 310.353 113.988 310.735 112.716 310.866C111.151 311.008 109.574 310.75 108.136 310.116C106.626 309.457 105.308 308.656 104.011 308.18C102.899 307.709 101.677 307.558 100.484 307.744C99.6818 307.897 98.9419 308.281 98.3558 308.849C97.9504 309.254 97.8186 309.569 97.7781 309.548C97.8317 309.231 97.9801 308.938 98.2037 308.707C98.7708 308.04 99.5388 307.574 100.393 307.38C101.663 307.12 102.981 307.24 104.183 307.724C105.541 308.2 106.879 309.001 108.348 309.629C109.707 310.233 111.194 310.491 112.676 310.379C113.892 310.269 115.076 309.925 116.162 309.366C117.16 308.84 118.093 308.197 118.939 307.45Z" fill="#FAFAFA"/>
<path d="M119.334 312.072C119.195 312.354 119.006 312.608 118.776 312.822C118.185 313.438 117.501 313.958 116.75 314.362C115.633 314.981 114.402 315.364 113.132 315.487C111.565 315.636 109.987 315.378 108.551 314.737C107.031 314.089 105.713 313.278 104.426 312.812C103.313 312.33 102.085 312.179 100.889 312.376C100.089 312.52 99.3513 312.902 98.7709 313.47C98.3655 313.886 98.2338 314.19 98.1831 314.17C98.2455 313.857 98.3968 313.568 98.6189 313.339C99.186 312.671 99.954 312.206 100.808 312.011C102.074 311.747 103.39 311.867 104.588 312.356C105.946 312.822 107.294 313.622 108.753 314.251C110.114 314.859 111.605 315.117 113.091 315.001C114.303 314.903 115.486 314.576 116.577 314.038C117.569 313.492 118.494 312.832 119.334 312.072Z" fill="#FAFAFA"/>
<path d="M119.04 297.103C115.49 297.37 111.928 297.458 108.368 297.367C104.809 297.458 101.247 297.37 97.6968 297.103C97.6968 296.961 102.48 296.84 108.368 296.84C114.257 296.84 119.04 296.961 119.04 297.103Z" fill="#FAFAFA"/>
<path d="M126.895 291.671C126.895 291.671 126.966 291.509 127.239 291.357C127.625 291.153 128.07 291.092 128.496 291.185C128.822 291.242 129.13 291.374 129.395 291.571C129.661 291.768 129.877 292.024 130.026 292.32C130.171 292.709 130.199 293.132 130.107 293.536C130.014 293.941 129.806 294.31 129.506 294.598C129.207 294.885 128.83 295.079 128.421 295.155C128.013 295.231 127.592 295.186 127.209 295.026C126.92 294.865 126.673 294.639 126.486 294.367C126.3 294.094 126.179 293.782 126.135 293.455C126.061 293.023 126.14 292.578 126.357 292.198C126.52 291.945 126.672 291.864 126.682 291.884C126.476 292.355 126.412 292.877 126.499 293.384C126.56 293.639 126.676 293.879 126.839 294.085C127.002 294.292 127.208 294.46 127.442 294.58C127.729 294.677 128.038 294.694 128.335 294.629C128.631 294.565 128.905 294.42 129.125 294.212C129.346 294.004 129.506 293.739 129.588 293.447C129.67 293.155 129.671 292.845 129.59 292.553C129.482 292.307 129.32 292.089 129.116 291.914C128.913 291.739 128.674 291.611 128.415 291.539C127.906 291.433 127.377 291.479 126.895 291.671Z" fill="#FAFAFA"/>
<path d="M128.02 326.199C127.878 326.199 127.756 319.642 127.756 311.565C127.756 303.488 127.878 296.941 128.02 296.941C128.161 296.941 128.283 303.488 128.283 311.565C128.283 319.642 128.172 326.199 128.02 326.199Z" fill="#FAFAFA"/>
<g opacity="0.6">
<path d="M303.57 3.21147H257.64V385H303.57V3.21147Z" fill="black"/>
</g>
<path d="M243.198 199.872C243.198 200.024 206.947 200.136 162.244 200.136C117.54 200.136 81.2788 200.024 81.2788 199.872C81.2788 199.72 117.52 199.609 162.244 199.609C206.967 199.609 243.198 199.73 243.198 199.872Z" fill="#263238"/>
<path d="M243.198 266.203C243.198 266.345 206.947 266.466 162.244 266.466C117.54 266.466 81.2788 266.345 81.2788 266.203C81.2788 266.061 117.52 265.939 162.244 265.939C206.967 265.939 243.198 266.051 243.198 266.203Z" fill="#263238"/>
<path d="M243.198 134.008C243.198 134.15 206.947 134.271 162.244 134.271C117.54 134.271 81.2788 134.15 81.2788 134.008C81.2788 133.866 117.52 133.744 162.244 133.744C206.967 133.744 243.198 133.856 243.198 134.008Z" fill="#263238"/>
<path d="M243.198 68.2347C243.198 68.3765 206.947 68.4982 162.244 68.4982C117.54 68.4982 81.2788 68.3765 81.2788 68.2347C81.2788 68.0928 117.52 67.9712 162.244 67.9712C206.967 67.9712 243.198 68.0928 243.198 68.2347Z" fill="#263238"/>
<path d="M243.198 331.196C243.198 331.338 206.947 331.459 162.244 331.459C117.54 331.459 81.2788 331.338 81.2788 331.196C81.2788 331.054 117.52 330.932 162.244 330.932C206.967 330.932 243.198 331.064 243.198 331.196Z" fill="#263238"/>
</g>
<defs>
<clipPath id="clip0_50_2302">
<rect width="457" height="379" fill="white" transform="translate(-43)"/>
</clipPath>
</defs>
</svg>
